SplineFontDB: 3.0
FontName: Ayanna
FullName: Ayanna
FamilyName: Ayanna
OS2FamilyName: "Ayanna"
Weight: Bold
Copyright: Copyright (c) 2015 Mooniak
UComments: "2015-3-5: Created with FontForge (http://fontforge.org)"
Version: 0
ItalicAngle: 0
UnderlinePosition: 0
UnderlineWidth: 0
Ascent: 819
Descent: 205
InvalidEm: 0
UFOAscent: 819
UFODescent: -205
LayerCount: 2
Layer: 0 0 "Back" 1
Layer: 1 0 "Fore" 0
FSType: 0
OS2Version: 0
OS2_WeightWidthSlopeOnly: 0
OS2_UseTypoMetrics: 0
CreationTime: 1447346414
ModificationTime: 1447346529
PfmFamily: 16
TTFWeight: 400
TTFWidth: 5
LineGap: 0
VLineGap: 0
OS2TypoAscent: 0
OS2TypoAOffset: 1
OS2TypoDescent: 0
OS2TypoDOffset: 1
OS2TypoLinegap: 0
OS2WinAscent: 0
OS2WinAOffset: 1
OS2WinDescent: 0
OS2WinDOffset: 1
HheadAscent: 871
HheadAOffset: 0
HheadDescent: -284
HheadDOffset: 0
OS2CapHeight: 0
OS2XHeight: 0
DEI: 91125
LangName: 1033 "Copyright (c) 2015 Mooniak" "" "" "" "" "Version "
Encoding: Custom
UnicodeInterp: none
NameList: AGL For New Fonts
DisplaySize: -128
AntiAlias: 1
FitToEm: 1
WinInfo: 336 8 2
BeginChars: 568 568

StartChar: .notdef
Encoding: 0 -1 0
GlifName: _notdef
Width: 584
VWidth: 0
Flags: W
LayerCount: 2
Back
Fore
SplineSet
186 536 m 257
 186 108 l 257
 403 108 l 257
 403 536 l 257
 186 536 l 257
70 651 m 257
 514 651 l 257
 514 2 l 257
 70 2 l 257
 70 651 l 257
EndSplineSet
EndChar

StartChar: NameMe.124
Encoding: 1 -1 1
GlifName: N_ameM_e.124
Width: 604
VWidth: 0
GlyphClass: 2
Flags: W
LayerCount: 2
Back
Fore
SplineSet
37.5 -79 m 256
 147.5 -79 l 256
 147.5 -139.032 205.665 -178 297.5 -178 c 256
 389.335 -178 447.5 -140.269 447.5 -69 c 256
 447.5 -37 444.217 -7 389.5 23 c 257
 367.5 72 l 257
 470.5 79 l 257
 533.5 55 557.5 -16 557.5 -79 c 256
 557.5 -224 435.5 -284 297.5 -284 c 256
 159.5 -284 37.5 -224 37.5 -79 c 256
EndSplineSet
Refer: 146 -1 N 1 0 0 1 0 0 2
EndChar

StartChar: anusvara
Encoding: 2 3458 2
GlifName: anusvara
Width: 342
VWidth: 0
GlyphClass: 2
Flags: W
LayerCount: 2
Back
Fore
SplineSet
119.519 265.544 m 256
 119.519 211.906 133.665 168.389 171.497 168.389 c 256
 209.329 168.389 223.476 211.906 223.476 265.544 c 256
 223.476 319.182 209.329 362.698 171.497 362.698 c 256
 133.665 362.698 119.519 319.182 119.519 265.544 c 256
22 265.544 m 256
 22 375.155 73.0938 464.087 171.497 464.087 c 256
 269.9 464.087 320.994 375.155 320.994 265.544 c 256
 320.994 155.931 280.308 67 171.497 67 c 256
 62.6865 67 22 155.931 22 265.544 c 256
EndSplineSet
EndChar

StartChar: dottedcircle
Encoding: 3 9676 3
GlifName: dottedcircle
Width: 689
VWidth: 0
GlyphClass: 2
Flags: W
LayerCount: 2
Back
Fore
SplineSet
56.7881 165.87 m 256
 56.7881 199.121 84.0371 226.37 117.288 226.37 c 256
 150.539 226.37 177.788 199.121 177.788 165.87 c 256
 177.788 132.619 150.539 105.37 117.288 105.37 c 256
 84.0371 105.37 56.7881 132.619 56.7881 165.87 c 256
153.313 69.9717 m 256
 153.313 103.223 180.562 130.472 213.813 130.472 c 256
 247.064 130.472 274.313 103.223 274.313 69.9717 c 256
 274.313 36.7207 247.064 9.47168 213.813 9.47168 c 256
 180.562 9.47168 153.313 36.7207 153.313 69.9717 c 256
511.212 165.87 m 256
 511.212 199.121 538.461 226.37 571.712 226.37 c 256
 604.963 226.37 632.212 199.121 632.212 165.87 c 256
 632.212 132.619 604.963 105.37 571.712 105.37 c 256
 538.461 105.37 511.212 132.619 511.212 165.87 c 256
414.687 69.9717 m 256
 414.687 103.223 441.936 130.472 475.187 130.472 c 256
 508.438 130.472 535.687 103.223 535.687 69.9717 c 256
 535.687 36.7207 508.438 9.47168 475.187 9.47168 c 256
 441.936 9.47168 414.687 36.7207 414.687 69.9717 c 256
56.7881 428.13 m 256
 56.7881 461.381 84.0371 488.63 117.288 488.63 c 256
 150.539 488.63 177.788 461.381 177.788 428.13 c 256
 177.788 394.879 150.539 367.63 117.288 367.63 c 256
 84.0371 367.63 56.7881 394.879 56.7881 428.13 c 256
153.313 524.028 m 256
 153.313 557.279 180.562 584.528 213.813 584.528 c 256
 247.064 584.528 274.313 557.279 274.313 524.028 c 256
 274.313 490.777 247.064 463.528 213.813 463.528 c 256
 180.562 463.528 153.313 490.777 153.313 524.028 c 256
511.212 428.13 m 256
 511.212 461.381 538.461 488.63 571.712 488.63 c 256
 604.963 488.63 632.212 461.381 632.212 428.13 c 256
 632.212 394.879 604.963 367.63 571.712 367.63 c 256
 538.461 367.63 511.212 394.879 511.212 428.13 c 256
414.687 524.028 m 256
 414.687 557.279 441.936 584.528 475.187 584.528 c 256
 508.438 584.528 535.687 557.279 535.687 524.028 c 256
 535.687 490.777 508.438 463.528 475.187 463.528 c 256
 441.936 463.528 414.687 490.777 414.687 524.028 c 256
22 297 m 256
 22 330.251 49.249 357.5 82.5 357.5 c 256
 115.751 357.5 143 330.251 143 297 c 256
 143 263.749 115.751 236.5 82.5 236.5 c 256
 49.249 236.5 22 263.749 22 297 c 256
546 297 m 256
 546 330.251 573.249 357.5 606.5 357.5 c 256
 639.751 357.5 667 330.251 667 297 c 256
 667 263.749 639.751 236.5 606.5 236.5 c 256
 573.249 236.5 546 263.749 546 297 c 256
284 559 m 256
 284 592.251 311.249 619.5 344.5 619.5 c 256
 377.751 619.5 405 592.251 405 559 c 256
 405 525.749 377.751 498.5 344.5 498.5 c 256
 311.249 498.5 284 525.749 284 559 c 256
284 35 m 256
 284 68.251 311.249 95.5 344.5 95.5 c 256
 377.751 95.5 405 68.251 405 35 c 256
 405 1.74902 377.751 -25.5 344.5 -25.5 c 256
 311.249 -25.5 284 1.74902 284 35 c 256
EndSplineSet
EndChar

StartChar: si_A
Encoding: 4 3461 4
GlifName: si_A_
Width: 559
VWidth: 0
GlyphClass: 2
Flags: W
LayerCount: 2
Back
Fore
SplineSet
290.479 -205 m 257
 288.104 416 l 257
 288.104 416 300.479 489 346.174 533.185 c 257
 348.64 535.824 418.721 613.931 493.274 613.931 c 257
 535.479 552 l 257
 523.824 545.444 519.996 532.886 519.996 516.645 c 256
 519.996 485.538 534.04 440.919 534.04 399.081 c 256
 534.04 349.941 503.11 294.292 426.016 294.292 c 256
 414.825 294.292 402.662 295.465 389.479 298 c 257
 390.479 378 l 257
 394.766 377.61 398.796 377.419 402.577 377.419 c 256
 436.08 377.419 450.071 392.473 450.071 418.328 c 256
 450.071 438.103 443.368 460.722 438.473 478 c 256
 437.344 481.984 436.312 485.684 435.479 489 c 257
 391.997 459 395.078 403.256 394.479 327.227 c 257
 394.479 -205 l 257
 290.479 -205 l 257
22.2197 217 m 256
 22.2197 330.947 118.9 421.352 239.22 421.352 c 256
 258.05 421.352 270.22 420 288.026 418.437 c 257
 289.088 424.679 289.591 430.648 289.591 436.312 c 256
 289.591 473.944 267.361 498 238.835 498 c 256
 209.479 498 193.651 477 193.651 453.164 c 256
 193.651 440.756 197.168 427.391 205 418 c 257
 127.22 379 l 257
 107.91 404.207 100.176 430.604 100.176 458.407 c 256
 100.176 534.137 152.275 596 238.835 596 c 256
 315.825 596 387.22 539.336 387.22 430 c 256
 387.22 398.735 380.22 357 368.22 318 c 257
 368.22 318 287.751 318 239.22 318 c 256
 183.22 318 134.22 273 134.22 217 c 256
 134.22 161 172.817 112 270.479 112 c 256
 389.161 112 444.109 174.814 464.479 194 c 257
 533.479 111 l 257
 494.07 70.833 396.763 0 270.479 0 c 256
 102.928 0 22.2197 96.6641 22.2197 217 c 256
EndSplineSet
EndChar

StartChar: si_B.halant
Encoding: 10 -1 10
GlifName: si_B_.halant
Width: 576
VWidth: 0
GlyphClass: 2
Flags: W
LayerCount: 2
Back
Fore
SplineSet
56.0469 743.688 m 256
 56.0469 811.694 117.261 871 270.812 871 c 256
 434.745 871 524.356 790.408 524.356 701 c 256
 524.356 607 435.137 565 384.484 565 c 257
 351.484 607 l 257
 371.356 648 l 257
 397.484 655 409.356 676.732 409.356 701 c 256
 409.356 733.879 373.375 771 270.812 771 c 256
 186.865 771 163.07 747.772 163.07 724.965 c 256
 163.07 705.182 172.05 697 184.05 682 c 257
 180.05 649 l 257
 97.0498 656 l 257
 70.0498 680 56.0469 713.359 56.0469 743.688 c 256
22 220 m 256
 22 425.89 98 488.874 202.186 488.874 c 256
 309.691 488.874 371.125 430 371.125 324 c 256
 371.125 251 320.483 228 320.483 177 c 256
 320.483 142.758 333.728 115 360 115 c 256
 412.212 115 439.24 190 439.24 293 c 256
 439.24 527 347.562 581 227.05 581 c 256
 189.508 581 137.294 564.031 108.05 538 c 257
 45.0498 620 l 257
 113.05 684 192.05 690.976 243.05 690.976 c 256
 432.339 690.976 554.24 587 554.24 293 c 256
 553.756 181.996 521.881 0 364.125 0 c 256
 239.822 0 211.587 87.4053 211.587 177 c 256
 211.587 237 259.125 264 259.125 324 c 256
 259.125 354 243.691 376.433 201 376.433 c 256
 161.173 376.433 132 339.788 132 220 c 256
 132 128 150 110 171 110 c 256
 191 110 208 120 224 156 c 257
 280 73 l 257
 251 28 223.479 0 171 0 c 256
 66 0 22 79 22 220 c 256
EndSplineSet
EndChar

StartChar: si_BI
Encoding: 11 -1 11
GlifName: si_B_I_
Width: 576
VWidth: 0
GlyphClass: 2
Flags: W
LayerCount: 2
Back
Fore
SplineSet
40.6377 710 m 256
 40.6377 797.305 124.166 871 275.38 871 c 256
 426.594 871 509.252 792.305 509.252 705 c 256
 509.252 611 420.032 569 369.38 569 c 257
 336.38 611 l 257
 356.252 652 l 257
 382.38 659 394.252 680.732 394.252 705 c 256
 394.252 736 363.38 771 275.38 771 c 256
 187.38 771 155.638 741 155.638 710 c 256
 155.638 685.732 173.51 672.87 195.51 672.87 c 256
 203.237 672.87 251.897 675 260.38 675 c 257
 331.38 630.332 l 257
 260.38 560 l 257
 241.38 560 215.51 558 181.38 558 c 256
 130.728 558 40.6377 598.971 40.6377 710 c 256
22 220 m 256
 22 425.89 98 488.874 202.186 488.874 c 256
 309.691 488.874 371.125 430 371.125 324 c 256
 371.125 251 320.483 228 320.483 177 c 256
 320.483 142.758 333.728 115 360 115 c 256
 412.212 115 439.24 190 439.24 293 c 256
 439.24 467 398.38 560 260.38 560 c 257
 260.38 675.115 l 257
 477.38 675.115 554.24 527 554.24 293 c 256
 553.756 181.996 521.881 0 364.125 0 c 256
 239.822 0 211.587 87.4053 211.587 177 c 256
 211.587 237 259.125 264 259.125 324 c 256
 259.125 354 243.691 376.433 201 376.433 c 256
 161.173 376.433 132 339.788 132 220 c 256
 132 128 150 110 171 110 c 256
 191 110 208 120 224 156 c 257
 280 73 l 257
 251 28 223.479 0 171 0 c 256
 66 0 22 79 22 220 c 256
EndSplineSet
EndChar

StartChar: si_BIi
Encoding: 12 -1 12
GlifName: si_B_I_i
Width: 576
VWidth: 0
GlyphClass: 2
Flags: W
LayerCount: 2
Back
Fore
SplineSet
340.728 716.73 m 256
 340.728 694.479 358.36 676.556 380.249 676.556 c 256
 402.138 676.556 419.771 694.479 419.771 716.73 c 256
 419.771 738.98 402.138 756.905 380.249 756.905 c 256
 358.36 756.905 340.728 738.98 340.728 716.73 c 256
249.252 717.115 m 256
 249.252 789.115 307.252 847.115 379.252 847.115 c 256
 451.252 847.115 509.252 789.115 509.252 717.115 c 256
 509.252 645.115 451.252 587.115 379.252 587.115 c 256
 307.252 587.115 249.252 645.115 249.252 717.115 c 256
40.6377 710.115 m 256
 40.6377 797.42 124.166 871.115 275.38 871.115 c 256
 426.594 871.115 509.252 804.42 509.252 717.115 c 256
 509.252 681.183 494.918 654.163 474.38 634.494 c 256
 441.19 602.708 391.798 590.115 360.508 590.115 c 257
 327.508 632.115 l 257
 368.38 673.115 l 257
 391.097 673.115 419.771 679.115 419.771 716.73 c 256
 419.771 764.115 363.38 771.115 275.38 771.115 c 256
 187.38 771.115 155.638 741.115 155.638 710.115 c 256
 155.638 685.848 173.51 672.985 195.51 672.985 c 256
 203.237 672.985 251.897 675.115 260.38 675.115 c 257
 318.38 630.447 l 257
 260.38 560.115 l 257
 241.38 560.115 215.51 558.115 181.38 558.115 c 256
 130.728 558.115 40.6377 599.086 40.6377 710.115 c 256
22 220 m 256
 22 425.89 98 488.874 202.186 488.874 c 256
 309.691 488.874 371.125 430 371.125 324 c 256
 371.125 251 320.483 228 320.483 177 c 256
 320.483 142.758 333.728 115 360 115 c 256
 412.212 115 439.24 190 439.24 293 c 256
 439.24 467 398.38 560 260.38 560 c 257
 260.38 675.115 l 257
 477.38 675.115 554.24 527 554.24 293 c 256
 553.756 181.996 521.881 0 364.125 0 c 256
 239.822 0 211.587 87.4053 211.587 177 c 256
 211.587 237 259.125 264 259.125 324 c 256
 259.125 354 243.691 376.433 201 376.433 c 256
 161.173 376.433 132 339.788 132 220 c 256
 132 128 150 110 171 110 c 256
 191 110 208 120 224 156 c 257
 280 73 l 257
 251 28 223.479 0 171 0 c 256
 66 0 22 79 22 220 c 256
EndSplineSet
EndChar

StartChar: si_BR.halant
Encoding: 13 -1 13
GlifName: si_B_R_.halant
Width: 576
VWidth: 0
GlyphClass: 2
Flags: W
LayerCount: 2
Back
Fore
SplineSet
20 -79 m 256
 130 -79 l 256
 130 -139.032 188.165 -178 280 -178 c 256
 371.835 -178 430 -140.27 430 -69 c 256
 430 -37 426.717 -7 372 23 c 257
 350 72 l 257
 453 79 l 257
 516 55 540 -16 540 -79 c 256
 540 -224 418 -284 280 -284 c 256
 142 -284 20 -224 20 -79 c 256
56.0469 743.688 m 256
 56.0469 811.694 117.261 871 270.812 871 c 256
 434.745 871 524.356 790.408 524.356 701 c 256
 524.356 607 435.137 565 384.484 565 c 257
 351.484 607 l 257
 371.356 648 l 257
 397.484 655 409.356 676.732 409.356 701 c 256
 409.356 733.879 373.375 771 270.812 771 c 256
 186.865 771 163.07 747.772 163.07 724.965 c 256
 163.07 705.182 172.05 697 184.05 682 c 257
 180.05 649 l 257
 97.0498 656 l 257
 70.0498 680 56.0469 713.359 56.0469 743.688 c 256
22 220 m 256
 22 425.89 98 488.874 202.186 488.874 c 256
 309.691 488.874 371.125 430 371.125 324 c 256
 371.125 251 320.483 228 320.483 177 c 256
 320.483 142.758 333.728 115 360 115 c 256
 412.212 115 439.24 190 439.24 293 c 256
 439.24 527 347.562 581 227.05 581 c 256
 189.508 581 137.294 564.031 108.05 538 c 257
 45.0498 620 l 257
 113.05 684 192.05 690.976 243.05 690.976 c 256
 432.339 690.976 554.24 587 554.24 293 c 256
 553.756 181.996 521.881 0 364.125 0 c 256
 239.822 0 211.587 87.4053 211.587 177 c 256
 211.587 237 259.125 264 259.125 324 c 256
 259.125 354 243.691 376.433 201 376.433 c 256
 161.173 376.433 132 339.788 132 220 c 256
 132 128 150 110 171 110 c 256
 191 110 208 120 224 156 c 257
 280 73 l 257
 251 28 223.479 0 171 0 c 256
 66 0 22 79 22 220 c 256
EndSplineSet
EndChar

StartChar: si_BRI
Encoding: 14 -1 14
GlifName: si_B_R_I_
Width: 576
VWidth: 0
GlyphClass: 2
Flags: W
LayerCount: 2
Back
Fore
SplineSet
20 -79 m 256
 130 -79 l 256
 130 -139.032 188.165 -178 280 -178 c 256
 371.835 -178 430 -140.27 430 -69 c 256
 430 -37 426.717 -7 372 23 c 257
 350 72 l 257
 453 79 l 257
 516 55 540 -16 540 -79 c 256
 540 -224 418 -284 280 -284 c 256
 142 -284 20 -224 20 -79 c 256
40.6377 710 m 256
 40.6377 797.305 124.166 871 275.38 871 c 256
 426.594 871 509.252 792.305 509.252 705 c 256
 509.252 611 420.032 569 369.38 569 c 257
 336.38 611 l 257
 356.252 652 l 257
 382.38 659 394.252 680.732 394.252 705 c 256
 394.252 736 363.38 771 275.38 771 c 256
 187.38 771 155.638 741 155.638 710 c 256
 155.638 685.732 173.51 672.87 195.51 672.87 c 256
 203.237 672.87 251.897 675 260.38 675 c 257
 331.38 630.332 l 257
 260.38 560 l 257
 241.38 560 215.51 558 181.38 558 c 256
 130.728 558 40.6377 598.971 40.6377 710 c 256
22 220 m 256
 22 425.89 98 488.874 202.186 488.874 c 256
 309.691 488.874 371.125 430 371.125 324 c 256
 371.125 251 320.483 228 320.483 177 c 256
 320.483 142.758 333.728 115 360 115 c 256
 412.212 115 439.24 190 439.24 293 c 256
 439.24 467 398.38 560 260.38 560 c 257
 260.38 675.115 l 257
 477.38 675.115 554.24 527 554.24 293 c 256
 553.756 181.996 521.881 0 364.125 0 c 256
 239.822 0 211.587 87.4053 211.587 177 c 256
 211.587 237 259.125 264 259.125 324 c 256
 259.125 354 243.691 376.433 201 376.433 c 256
 161.173 376.433 132 339.788 132 220 c 256
 132 128 150 110 171 110 c 256
 191 110 208 120 224 156 c 257
 280 73 l 257
 251 28 223.479 0 171 0 c 256
 66 0 22 79 22 220 c 256
EndSplineSet
EndChar

StartChar: si_BRIi
Encoding: 15 -1 15
GlifName: si_B_R_I_i
Width: 576
VWidth: 0
GlyphClass: 2
Flags: W
LayerCount: 2
Back
Fore
SplineSet
20 -79 m 256
 130 -79 l 256
 130 -139.032 188.165 -178 280 -178 c 256
 371.835 -178 430 -140.27 430 -69 c 256
 430 -37 426.717 -7 372 23 c 257
 350 72 l 257
 453 79 l 257
 516 55 540 -16 540 -79 c 256
 540 -224 418 -284 280 -284 c 256
 142 -284 20 -224 20 -79 c 256
340.728 716.73 m 256
 340.728 694.479 358.36 676.556 380.249 676.556 c 256
 402.138 676.556 419.771 694.479 419.771 716.73 c 256
 419.771 738.98 402.138 756.905 380.249 756.905 c 256
 358.36 756.905 340.728 738.98 340.728 716.73 c 256
249.252 717.115 m 256
 249.252 789.115 307.252 847.115 379.252 847.115 c 256
 451.252 847.115 509.252 789.115 509.252 717.115 c 256
 509.252 645.115 451.252 587.115 379.252 587.115 c 256
 307.252 587.115 249.252 645.115 249.252 717.115 c 256
40.6377 710.115 m 256
 40.6377 797.42 124.166 871.115 275.38 871.115 c 256
 426.594 871.115 509.252 804.42 509.252 717.115 c 256
 509.252 681.183 494.918 654.163 474.38 634.494 c 256
 441.19 602.708 391.798 590.115 360.508 590.115 c 257
 327.508 632.115 l 257
 368.38 673.115 l 257
 391.097 673.115 419.771 679.115 419.771 716.73 c 256
 419.771 764.115 363.38 771.115 275.38 771.115 c 256
 187.38 771.115 155.638 741.115 155.638 710.115 c 256
 155.638 685.848 173.51 672.985 195.51 672.985 c 256
 203.237 672.985 251.897 675.115 260.38 675.115 c 257
 318.38 630.447 l 257
 260.38 560.115 l 257
 241.38 560.115 215.51 558.115 181.38 558.115 c 256
 130.728 558.115 40.6377 599.086 40.6377 710.115 c 256
22 220 m 256
 22 425.89 98 488.874 202.186 488.874 c 256
 309.691 488.874 371.125 430 371.125 324 c 256
 371.125 251 320.483 228 320.483 177 c 256
 320.483 142.758 333.728 115 360 115 c 256
 412.212 115 439.24 190 439.24 293 c 256
 439.24 467 398.38 560 260.38 560 c 257
 260.38 675.115 l 257
 477.38 675.115 554.24 527 554.24 293 c 256
 553.756 181.996 521.881 0 364.125 0 c 256
 239.822 0 211.587 87.4053 211.587 177 c 256
 211.587 237 259.125 264 259.125 324 c 256
 259.125 354 243.691 376.433 201 376.433 c 256
 161.173 376.433 132 339.788 132 220 c 256
 132 128 150 110 171 110 c 256
 191 110 208 120 224 156 c 257
 280 73 l 257
 251 28 223.479 0 171 0 c 256
 66 0 22 79 22 220 c 256
EndSplineSet
EndChar

StartChar: si_BRa
Encoding: 16 -1 16
GlifName: si_B_R_a
Width: 575
VWidth: 0
GlyphClass: 2
Flags: W
LayerCount: 2
Back
Fore
SplineSet
20 -79 m 256
 130 -79 l 256
 130 -139.032 188.165 -178 280 -178 c 256
 371.835 -178 430 -140.27 430 -69 c 256
 430 -37 426.717 -7 372 23 c 257
 350 72 l 257
 453 79 l 257
 516 55 540 -16 540 -79 c 256
 540 -224 418 -284 280 -284 c 256
 142 -284 20 -224 20 -79 c 256
22 220 m 256
 22 425.89 98 488.874 202.186 488.874 c 256
 309.691 488.874 371.125 430 371.125 324 c 256
 371.125 251 320.483 228 320.483 177 c 256
 320.483 142.758 333.728 115 360 115 c 256
 412.212 115 439.24 190 439.24 293 c 256
 439.24 522.797 396.24 639.885 258.24 639.885 c 256
 217.137 639.885 169.478 618.96 152.422 576.855 c 257
 43.3896 613.029 l 257
 79.374 707.868 171.52 755 258.24 755 c 256
 475.24 755 554.24 599.056 554.24 293 c 256
 553.756 181.996 521.881 0 364.125 0 c 256
 239.822 0 211.587 87.4053 211.587 177 c 256
 211.587 237 259.125 264 259.125 324 c 256
 259.125 354 243.691 376.433 201 376.433 c 256
 161.173 376.433 132 339.788 132 220 c 256
 132 128 150 110 171 110 c 256
 191 110 208 120 224 156 c 257
 280 73 l 257
 251 28 223.479 0 171 0 c 256
 66 0 22 79 22 220 c 256
EndSplineSet
EndChar

StartChar: si_BU
Encoding: 17 -1 17
GlifName: si_B_U_
Width: 575
VWidth: 0
GlyphClass: 2
Flags: W
LayerCount: 2
Back
Fore
SplineSet
37.9717 -103.642 m 256
 37.9717 -85.6904 40.2344 -64.9189 45 -41 c 257
 151.145 -53 l 257
 150.509 -58.2256 150.183 -63.0078 150.183 -67.3584 c 256
 150.183 -91.1045 159.915 -102 181.915 -102 c 258
 464 -102 l 257
 464 -205 l 257
 140.915 -205 l 258
 78.3477 -205 37.9717 -179.479 37.9717 -103.642 c 256
411 64 m 257
 447 172 l 257
 525 225 l 257
 525 -205 l 257
 411 -205 l 257
 411 64 l 257
22 220 m 256
 22 425.89 98 488.874 202.186 488.874 c 256
 309.691 488.874 371.125 430 371.125 324 c 256
 371.125 251 320.483 228 320.483 177 c 256
 320.483 142.758 333.728 115 360 115 c 256
 412.212 115 439.24 190 439.24 293 c 256
 439.24 522.797 396.24 639.885 258.24 639.885 c 256
 217.137 639.885 169.478 618.96 152.422 576.855 c 257
 43.3896 613.029 l 257
 79.374 707.868 171.52 755 258.24 755 c 256
 475.24 755 554.24 599.056 554.24 293 c 256
 553.756 181.996 521.881 0 364.125 0 c 256
 239.822 0 211.587 87.4053 211.587 177 c 256
 211.587 237 259.125 264 259.125 324 c 256
 259.125 354 243.691 376.433 201 376.433 c 256
 161.173 376.433 132 339.788 132 220 c 256
 132 128 150 110 171 110 c 256
 191 110 208 120 224 156 c 257
 280 73 l 257
 251 28 223.479 0 171 0 c 256
 66 0 22 79 22 220 c 256
EndSplineSet
EndChar

StartChar: si_BUu
Encoding: 18 -1 18
GlifName: si_B_U_u
Width: 575
VWidth: 0
GlyphClass: 2
Flags: W
LayerCount: 2
Back
Fore
SplineSet
38.1699 -102.642 m 256
 38.1699 -84.9404 40.3691 -64.499 45 -41 c 257
 148.662 -56 l 257
 147.637 -62.2686 147.166 -67.7656 147.166 -72.5605 c 256
 147.166 -93.4297 164.975 -101 176 -101 c 256
 217.025 -101 291 -59.1631 357.426 -59.1631 c 256
 375.275 -59.1631 397 -65 411 -74 c 257
 411 -205 l 257
 394 -169.667 369.777 -157.889 341.889 -157.889 c 256
 297.5 -157.889 206.667 -204 150 -204 c 256
 87.4326 -204 38.1699 -178.479 38.1699 -102.642 c 256
411 64 m 257
 481 173 l 257
 525 225 l 257
 525 -205 l 257
 411 -205 l 257
 411 64 l 257
22 220 m 256
 22 425.89 98 488.874 202.186 488.874 c 256
 309.691 488.874 371.125 430 371.125 324 c 256
 371.125 251 320.483 228 320.483 177 c 256
 320.483 142.758 333.728 115 360 115 c 256
 412.212 115 439.24 190 439.24 293 c 256
 439.24 522.797 396.24 639.885 258.24 639.885 c 256
 217.137 639.885 169.478 618.96 152.422 576.855 c 257
 43.3896 613.029 l 257
 79.374 707.868 171.52 755 258.24 755 c 256
 475.24 755 554.24 599.056 554.24 293 c 256
 553.756 181.996 521.881 0 364.125 0 c 256
 239.822 0 211.587 87.4053 211.587 177 c 256
 211.587 237 259.125 264 259.125 324 c 256
 259.125 354 243.691 376.433 201 376.433 c 256
 161.173 376.433 132 339.788 132 220 c 256
 132 128 150 110 171 110 c 256
 191 110 208 120 224 156 c 257
 280 73 l 257
 251 28 223.479 0 171 0 c 256
 66 0 22 79 22 220 c 256
EndSplineSet
EndChar

StartChar: si_Ba
Encoding: 19 3510 19
GlifName: si_B_a
Width: 575
VWidth: 0
GlyphClass: 2
Flags: W
LayerCount: 2
Back
Fore
SplineSet
22 220 m 256
 22 425.89 98 488.874 202.186 488.874 c 256
 309.691 488.874 371.125 430 371.125 324 c 256
 371.125 251 320.483 228 320.483 177 c 256
 320.483 142.758 333.728 115 360 115 c 256
 412.212 115 439.24 190 439.24 293 c 256
 439.24 522.797 396.24 639.885 258.24 639.885 c 256
 217.137 639.885 169.478 618.96 152.422 576.855 c 257
 43.3896 613.029 l 257
 79.374 707.868 171.52 755 258.24 755 c 256
 475.24 755 554.24 599.056 554.24 293 c 256
 553.756 181.996 521.881 0 364.125 0 c 256
 239.822 0 211.587 87.4053 211.587 177 c 256
 211.587 237 259.125 264 259.125 324 c 256
 259.125 354 243.691 376.433 201 376.433 c 256
 161.173 376.433 132 339.788 132 220 c 256
 132 128 150 110 171 110 c 256
 191 110 208 120 224 156 c 257
 280 73 l 257
 251 28 223.479 0 171 0 c 256
 66 0 22 79 22 220 c 256
EndSplineSet
EndChar

StartChar: si_Ba.reph
Encoding: 20 -1 20
GlifName: si_B_a.reph
Width: 575
VWidth: 0
GlyphClass: 2
Flags: W
LayerCount: 2
Back
Fore
SplineSet
110.295 706.572 m 256
 110.295 776.741 161.818 848.83 273.002 848.83 c 256
 375.321 848.83 453.002 782.337 453.002 673 c 256
 453.002 630.604 423.021 557.011 367.002 530 c 257
 317.002 594 l 257
 352.002 615.392 360.002 652 360.002 676 c 256
 360.002 733.027 325.738 772 267.002 772 c 256
 220.713 772 184.002 747.116 184.002 706.83 c 256
 184.002 687.128 191.864 667.244 207.002 656.83 c 257
 281.337 618.53 l 257
 181.24 587 l 257
 128.24 607 110.295 652.682 110.295 706.572 c 256
192.053 685.258 m 256
 192.053 668.959 204.969 655.83 221.002 655.83 c 256
 237.035 655.83 249.951 668.959 249.951 685.258 c 256
 249.951 701.557 237.035 714.687 221.002 714.687 c 256
 204.969 714.687 192.053 701.557 192.053 685.258 c 256
114.002 685 m 256
 114.002 741 181.313 768.567 237.884 768.567 c 256
 289.045 768.567 330.484 731.924 330.484 685 c 256
 330.484 626.291 281.638 579 221.002 579 c 256
 161.74 579 114.002 626.291 114.002 685 c 256
44.002 662 m 257
 71.002 688 102.437 715.017 151.002 729.287 c 257
 215.002 630 l 257
 143.581 628.73 135.002 614 103.002 588 c 257
 44.002 662 l 257
22 220 m 256
 22 425.89 98 488.874 202.186 488.874 c 256
 309.691 488.874 371.125 430 371.125 324 c 256
 371.125 251 320.483 228 320.483 177 c 256
 320.483 142.758 333.728 115 360 115 c 256
 412.212 115 439.24 190 439.24 293 c 256
 439.24 445.199 420.378 547.957 367.544 600 c 257
 415.48 702 l 257
 517.599 645.847 554.24 514.057 554.24 293 c 256
 553.756 181.996 521.881 0 364.125 0 c 256
 239.822 0 211.587 87.4053 211.587 177 c 256
 211.587 237 259.125 264 259.125 324 c 256
 259.125 354 243.691 376.433 201 376.433 c 256
 161.173 376.433 132 339.788 132 220 c 256
 132 128 150 110 171 110 c 256
 191 110 208 120 224 156 c 257
 280 73 l 257
 251 28 223.479 0 171 0 c 256
 66 0 22 79 22 220 c 256
EndSplineSet
EndChar

StartChar: si_Bh.halant
Encoding: 22 -1 22
GlifName: si_B_h.halant
Width: 718
VWidth: 0
GlyphClass: 2
Flags: W
LayerCount: 2
Back
Fore
SplineSet
572 634.649 m 257
 587 705.844 l 257
 592.819 704.582 598.098 704.003 602.872 704.003 c 256
 631.523 704.003 642 724.843 642 748.844 c 256
 642 789.343 610.367 790.776 596.808 790.776 c 256
 593.788 790.776 591.108 790.446 589 789.844 c 257
 568 823.844 l 257
 598 865.844 l 257
 634 865.844 718 861.844 718 748.844 c 256
 718 673.57 668.227 628.844 610.676 628.844 c 256
 598.011 628.844 584.97 630.759 572 634.649 c 257
505 865.844 m 257
 598 865.844 l 257
 598 811.844 l 257
 591 795.844 l 257
 591 766.844 591 734.844 591 703.844 c 257
 598 683.844 l 257
 598 479.844 l 257
 505 479.844 l 257
 505 865.844 l 257
224.716 255.156 m 257
 264.544 282.183 276.172 331.57 285.277 384 c 256
 301.778 479.008 309.994 584 462.716 584 c 256
 569.715 584 667.716 526.375 667.716 292 c 256
 667.716 69.4258 582.943 0 479.344 0 c 256
 403.43 0 362.001 50.0215 352.716 86 c 257
 417.716 158 l 257
 422.893 141.414 437.716 104 479.344 104 c 256
 522.446 104 561.716 150.341 561.716 292 c 256
 561.716 439.547 512.301 478 462.716 478 c 256
 401.278 478 387.934 429.942 377.408 371 c 256
 365.319 303.303 356.951 221.249 283.716 181.156 c 257
 224.716 255.156 l 257
38.1406 210.498 m 256
 38.1406 229.742 40.3584 249.387 44.9258 269 c 256
 49.5498 288.856 55.9385 306.742 62.96 319.563 c 257
 22.1436 319.667 l 257
 22.1436 408 l 257
 125.477 408 228.811 408 332.144 408 c 257
 332.144 319 l 257
 204.716 318 l 258
 179.223 317.8 161.982 294.194 152.689 264 c 256
 148.71 251.068 146.486 235.896 146.486 220.21 c 256
 146.486 167.965 171.148 110 237.716 110 c 256
 309.673 110 327.716 142.339 327.716 170 c 256
 327.716 180.209 325.866 195.969 313.448 195.969 c 256
 307.716 195.969 303.716 194 300.716 192 c 257
 256.716 272 l 257
 278.472 281.041 302.063 286.171 324.718 286.171 c 256
 382.241 286.171 433.716 253.095 433.716 167 c 256
 433.716 99 387.716 0 237.716 0 c 256
 113.299 0 38.1406 98.4756 38.1406 210.498 c 256
66.1006 454 m 256
 66.1006 532.132 116.163 594 207.543 594 c 256
 271.828 594 332.724 556.409 352.384 483 c 256
 353.635 478.329 354.199 473.071 354.199 467.354 c 256
 354.199 425.625 337.716 362.563 311.52 319 c 257
 261.17 403.03 l 257
 262.231 409.272 266.584 420 266.584 434.342 c 256
 266.584 481.03 235.911 496 211.716 496 c 256
 175.696 496 158.946 474.292 158.946 443 c 256
 158.946 414 172.471 397.281 189.716 392 c 257
 138.005 326.719 l 257
 103.195 347 66.1006 398 66.1006 454 c 256
EndSplineSet
EndChar

StartChar: si_BhI
Encoding: 23 -1 23
GlifName: si_B_hI_
Width: 690
VWidth: 0
GlyphClass: 2
Flags: W
LayerCount: 2
Back
Fore
SplineSet
109 660.844 m 256
 109 805.844 231 865.844 369 865.844 c 256
 507 865.844 629 805.844 629 660.844 c 256
 629 597.844 590 526.844 527 502.844 c 257
 439 509.844 l 257
 446 558.844 l 257
 499 580.844 514 618.844 514 660.844 c 256
 514 718.844 457.773 754.844 369 754.844 c 256
 280.227 754.844 224 717.844 224 660.844 c 256
 224 618.844 239 580.844 292 558.844 c 257
 299 509.844 l 257
 211 502.844 l 257
 148 526.844 109 597.844 109 660.844 c 256
225 255.156 m 257
 264.828 282.183 276.456 331.57 285.562 384 c 256
 302.062 479.008 310.278 584 463 584 c 256
 569.999 584 668 526.375 668 292 c 256
 668 69.4258 583.228 0 479.628 0 c 256
 403.714 0 362.285 50.0215 353 86 c 257
 418 158 l 257
 423.177 141.414 438 104 479.628 104 c 256
 522.73 104 562 150.341 562 292 c 256
 562 439.547 512.585 478 463 478 c 256
 401.562 478 388.218 429.942 377.692 371 c 256
 365.604 303.303 357.235 221.249 284 181.156 c 257
 225 255.156 l 257
38.4248 210.498 m 256
 38.4248 229.742 40.6426 249.387 45.21 269 c 256
 49.834 288.856 56.2227 306.742 63.2441 319.563 c 257
 22.4277 319.667 l 257
 22.4277 408 l 257
 125.761 408 229.095 408 332.428 408 c 257
 332.428 319 l 257
 205 318 l 258
 179.507 317.8 162.267 294.194 152.974 264 c 256
 148.994 251.068 146.771 235.896 146.771 220.21 c 256
 146.771 167.965 171.433 110 238 110 c 256
 309.957 110 328 142.339 328 170 c 256
 328 180.209 326.15 195.969 313.732 195.969 c 256
 308 195.969 304 194 301 192 c 257
 257 272 l 257
 278.756 281.041 302.348 286.171 325.002 286.171 c 256
 382.525 286.171 434 253.095 434 167 c 256
 434 99 388 0 238 0 c 256
 113.583 0 38.4248 98.4756 38.4248 210.498 c 256
66.3848 454 m 256
 66.3848 532.132 116.447 594 207.827 594 c 256
 272.112 594 333.008 556.409 352.668 483 c 256
 353.919 478.329 354.483 473.071 354.483 467.354 c 256
 354.483 425.625 338 362.563 311.804 319 c 257
 261.454 403.03 l 257
 262.516 409.272 266.868 420 266.868 434.342 c 256
 266.868 481.03 236.195 496 212 496 c 256
 175.98 496 159.23 474.292 159.23 443 c 256
 159.23 414 172.755 397.281 190 392 c 257
 138.289 326.719 l 257
 103.479 347 66.3848 398 66.3848 454 c 256
EndSplineSet
EndChar

StartChar: si_BhIi
Encoding: 24 -1 24
GlifName: si_B_hI_i
Width: 690
VWidth: 0
GlyphClass: 2
Flags: W
LayerCount: 2
Back
Fore
SplineSet
447.476 625.459 m 256
 447.476 603.208 465.108 585.284 486.997 585.284 c 256
 508.886 585.284 526.519 603.208 526.519 625.459 c 256
 526.519 647.709 508.886 665.634 486.997 665.634 c 256
 465.108 665.634 447.476 647.709 447.476 625.459 c 256
356 625.844 m 256
 356 702.177 413.562 737.542 465.2 737.542 c 256
 485.271 737.542 504.446 732.199 519 721.844 c 257
 537.5 721.844 616 710.05 616 625.844 c 256
 616 553.844 558 495.844 486 495.844 c 256
 414 495.844 356 553.844 356 625.844 c 256
109 660.844 m 256
 109 805.844 231 865.844 369 865.844 c 256
 507 865.844 629 805.844 629 660.844 c 256
 629 597.844 594 521.844 527 502.844 c 257
 439 509.844 l 257
 446 558.844 l 257
 495.087 561.01 531.668 591.835 531.668 624.237 c 256
 531.668 636.722 526.237 649.44 514 660.844 c 257
 514 718.844 508 761.844 369 761.844 c 256
 280.227 761.844 224 717.844 224 660.844 c 256
 224 618.844 239 580.844 292 558.844 c 257
 299 509.844 l 257
 211 502.844 l 257
 148 526.844 109 597.844 109 660.844 c 256
225 255.156 m 257
 264.828 282.183 276.456 331.57 285.562 384 c 256
 302.062 479.008 310.278 584 463 584 c 256
 569.999 584 668 526.375 668 292 c 256
 668 69.4258 583.228 0 479.628 0 c 256
 403.714 0 362.285 50.0215 353 86 c 257
 418 158 l 257
 423.177 141.414 438 104 479.628 104 c 256
 522.73 104 562 150.341 562 292 c 256
 562 439.547 512.585 478 463 478 c 256
 401.562 478 388.218 429.942 377.692 371 c 256
 365.604 303.303 357.235 221.249 284 181.156 c 257
 225 255.156 l 257
38.4248 210.498 m 256
 38.4248 229.742 40.6426 249.387 45.21 269 c 256
 49.834 288.856 56.2227 306.742 63.2441 319.563 c 257
 22.4277 319.667 l 257
 22.4277 408 l 257
 125.761 408 229.095 408 332.428 408 c 257
 332.428 319 l 257
 205 318 l 258
 179.507 317.8 162.267 294.194 152.974 264 c 256
 148.994 251.068 146.771 235.896 146.771 220.21 c 256
 146.771 167.965 171.433 110 238 110 c 256
 309.957 110 328 142.339 328 170 c 256
 328 180.209 326.15 195.969 313.732 195.969 c 256
 308 195.969 304 194 301 192 c 257
 257 272 l 257
 278.756 281.041 302.348 286.171 325.002 286.171 c 256
 382.525 286.171 434 253.095 434 167 c 256
 434 99 388 0 238 0 c 256
 113.583 0 38.4248 98.4756 38.4248 210.498 c 256
66.3848 454 m 256
 66.3848 532.132 116.447 594 207.827 594 c 256
 272.112 594 333.008 556.409 352.668 483 c 256
 353.919 478.329 354.483 473.071 354.483 467.354 c 256
 354.483 425.625 338 362.563 311.804 319 c 257
 261.454 403.03 l 257
 262.516 409.272 266.868 420 266.868 434.342 c 256
 266.868 481.03 236.195 496 212 496 c 256
 175.98 496 159.23 474.292 159.23 443 c 256
 159.23 414 172.755 397.281 190 392 c 257
 138.289 326.719 l 257
 103.479 347 66.3848 398 66.3848 454 c 256
EndSplineSet
EndChar

StartChar: si_BhRI
Encoding: 25 -1 25
GlifName: si_B_hR_I_
Width: 690
VWidth: 0
GlyphClass: 2
Flags: W
LayerCount: 2
Back
Fore
SplineSet
109 -79.1562 m 256
 219 -79.1562 l 256
 219 -139.188 277.165 -178.156 369 -178.156 c 256
 460.835 -178.156 519 -140.426 519 -69.1562 c 256
 519 -37.1562 515.717 -7.15625 461 22.8438 c 257
 439 71.8438 l 257
 542 78.8438 l 257
 605 54.8438 629 -16.1562 629 -79.1562 c 256
 629 -224.156 507 -284.156 369 -284.156 c 256
 231 -284.156 109 -224.156 109 -79.1562 c 256
109 660.844 m 256
 109 805.844 231 865.844 369 865.844 c 256
 507 865.844 629 805.844 629 660.844 c 256
 629 597.844 590 526.844 527 502.844 c 257
 439 509.844 l 257
 446 558.844 l 257
 499 580.844 514 618.844 514 660.844 c 256
 514 718.844 457.773 754.844 369 754.844 c 256
 280.227 754.844 224 717.844 224 660.844 c 256
 224 618.844 239 580.844 292 558.844 c 257
 299 509.844 l 257
 211 502.844 l 257
 148 526.844 109 597.844 109 660.844 c 256
225 255.156 m 257
 264.828 282.183 276.456 331.57 285.562 384 c 256
 302.062 479.008 310.278 584 463 584 c 256
 569.999 584 668 526.375 668 292 c 256
 668 69.4258 583.228 0 479.628 0 c 256
 403.714 0 362.285 50.0215 353 86 c 257
 418 158 l 257
 423.177 141.414 438 104 479.628 104 c 256
 522.73 104 562 150.341 562 292 c 256
 562 439.547 512.585 478 463 478 c 256
 401.562 478 388.218 429.942 377.692 371 c 256
 365.604 303.303 357.235 221.249 284 181.156 c 257
 225 255.156 l 257
38.4248 210.498 m 256
 38.4248 229.742 40.6426 249.387 45.21 269 c 256
 49.834 288.856 56.2227 306.742 63.2441 319.563 c 257
 22.4277 319.667 l 257
 22.4277 408 l 257
 125.761 408 229.095 408 332.428 408 c 257
 332.428 319 l 257
 205 318 l 258
 179.507 317.8 162.267 294.194 152.974 264 c 256
 148.994 251.068 146.771 235.896 146.771 220.21 c 256
 146.771 167.965 171.433 110 238 110 c 256
 309.957 110 328 142.339 328 170 c 256
 328 180.209 326.15 195.969 313.732 195.969 c 256
 308 195.969 304 194 301 192 c 257
 257 272 l 257
 278.756 281.041 302.348 286.171 325.002 286.171 c 256
 382.525 286.171 434 253.095 434 167 c 256
 434 99 388 0 238 0 c 256
 113.583 0 38.4248 98.4756 38.4248 210.498 c 256
66.3848 454 m 256
 66.3848 532.132 116.447 594 207.827 594 c 256
 272.112 594 333.008 556.409 352.668 483 c 256
 353.919 478.329 354.483 473.071 354.483 467.354 c 256
 354.483 425.625 338 362.563 311.804 319 c 257
 261.454 403.03 l 257
 262.516 409.272 266.868 420 266.868 434.342 c 256
 266.868 481.03 236.195 496 212 496 c 256
 175.98 496 159.23 474.292 159.23 443 c 256
 159.23 414 172.755 397.281 190 392 c 257
 138.289 326.719 l 257
 103.479 347 66.3848 398 66.3848 454 c 256
EndSplineSet
EndChar

StartChar: si_BhRIi
Encoding: 26 -1 26
GlifName: si_B_hR_I_i
Width: 690
VWidth: 0
GlyphClass: 2
Flags: W
LayerCount: 2
Back
Fore
SplineSet
109 -79.1562 m 256
 219 -79.1562 l 256
 219 -139.188 277.165 -178.156 369 -178.156 c 256
 460.835 -178.156 519 -140.426 519 -69.1562 c 256
 519 -37.1562 515.717 -7.15625 461 22.8438 c 257
 439 71.8438 l 257
 542 78.8438 l 257
 605 54.8438 629 -16.1562 629 -79.1562 c 256
 629 -224.156 507 -284.156 369 -284.156 c 256
 231 -284.156 109 -224.156 109 -79.1562 c 256
447.476 625.459 m 256
 447.476 603.208 465.108 585.284 486.997 585.284 c 256
 508.886 585.284 526.519 603.208 526.519 625.459 c 256
 526.519 647.709 508.886 665.634 486.997 665.634 c 256
 465.108 665.634 447.476 647.709 447.476 625.459 c 256
356 625.844 m 256
 356 702.177 413.562 737.542 465.2 737.542 c 256
 485.271 737.542 504.446 732.199 519 721.844 c 257
 537.5 721.844 616 710.05 616 625.844 c 256
 616 553.844 558 495.844 486 495.844 c 256
 414 495.844 356 553.844 356 625.844 c 256
109 660.844 m 256
 109 805.844 231 865.844 369 865.844 c 256
 507 865.844 629 805.844 629 660.844 c 256
 629 597.844 594 521.844 527 502.844 c 257
 439 509.844 l 257
 446 558.844 l 257
 495.087 561.01 531.668 591.835 531.668 624.237 c 256
 531.668 636.722 526.237 649.44 514 660.844 c 257
 514 718.844 508 761.844 369 761.844 c 256
 280.227 761.844 224 717.844 224 660.844 c 256
 224 618.844 239 580.844 292 558.844 c 257
 299 509.844 l 257
 211 502.844 l 257
 148 526.844 109 597.844 109 660.844 c 256
225 255.156 m 257
 264.828 282.183 276.456 331.57 285.562 384 c 256
 302.062 479.008 310.278 584 463 584 c 256
 569.999 584 668 526.375 668 292 c 256
 668 69.4258 583.228 0 479.628 0 c 256
 403.714 0 362.285 50.0215 353 86 c 257
 418 158 l 257
 423.177 141.414 438 104 479.628 104 c 256
 522.73 104 562 150.341 562 292 c 256
 562 439.547 512.585 478 463 478 c 256
 401.562 478 388.218 429.942 377.692 371 c 256
 365.604 303.303 357.235 221.249 284 181.156 c 257
 225 255.156 l 257
38.4248 210.498 m 256
 38.4248 229.742 40.6426 249.387 45.21 269 c 256
 49.834 288.856 56.2227 306.742 63.2441 319.563 c 257
 22.4277 319.667 l 257
 22.4277 408 l 257
 125.761 408 229.095 408 332.428 408 c 257
 332.428 319 l 257
 205 318 l 258
 179.507 317.8 162.267 294.194 152.974 264 c 256
 148.994 251.068 146.771 235.896 146.771 220.21 c 256
 146.771 167.965 171.433 110 238 110 c 256
 309.957 110 328 142.339 328 170 c 256
 328 180.209 326.15 195.969 313.732 195.969 c 256
 308 195.969 304 194 301 192 c 257
 257 272 l 257
 278.756 281.041 302.348 286.171 325.002 286.171 c 256
 382.525 286.171 434 253.095 434 167 c 256
 434 99 388 0 238 0 c 256
 113.583 0 38.4248 98.4756 38.4248 210.498 c 256
66.3848 454 m 256
 66.3848 532.132 116.447 594 207.827 594 c 256
 272.112 594 333.008 556.409 352.668 483 c 256
 353.919 478.329 354.483 473.071 354.483 467.354 c 256
 354.483 425.625 338 362.563 311.804 319 c 257
 261.454 403.03 l 257
 262.516 409.272 266.868 420 266.868 434.342 c 256
 266.868 481.03 236.195 496 212 496 c 256
 175.98 496 159.23 474.292 159.23 443 c 256
 159.23 414 172.755 397.281 190 392 c 257
 138.289 326.719 l 257
 103.479 347 66.3848 398 66.3848 454 c 256
EndSplineSet
EndChar

StartChar: si_BhRa
Encoding: 27 -1 27
GlifName: si_B_hR_a
Width: 690
VWidth: 0
GlyphClass: 2
Flags: W
LayerCount: 2
Back
Fore
SplineSet
109 -79.1562 m 256
 219 -79.1562 l 256
 219 -139.188 277.165 -178.156 369 -178.156 c 256
 460.835 -178.156 519 -140.426 519 -69.1562 c 256
 519 -37.1562 515.717 -7.15625 461 22.8438 c 257
 439 71.8438 l 257
 542 78.8438 l 257
 605 54.8438 629 -16.1562 629 -79.1562 c 256
 629 -224.156 507 -284.156 369 -284.156 c 256
 231 -284.156 109 -224.156 109 -79.1562 c 256
225 255.156 m 257
 264.828 282.183 276.456 331.57 285.562 384 c 256
 302.062 479.008 310.278 584 463 584 c 256
 569.999 584 668 526.375 668 292 c 256
 668 69.4258 583.228 0 479.628 0 c 256
 403.714 0 362.285 50.0215 353 86 c 257
 418 158 l 257
 423.177 141.414 438 104 479.628 104 c 256
 522.73 104 562 150.341 562 292 c 256
 562 439.547 512.585 478 463 478 c 256
 401.562 478 388.218 429.942 377.692 371 c 256
 365.604 303.303 357.235 221.249 284 181.156 c 257
 225 255.156 l 257
38.4248 210.498 m 256
 38.4248 229.742 40.6426 249.387 45.21 269 c 256
 49.834 288.856 56.2227 306.742 63.2441 319.563 c 257
 22.4277 319.667 l 257
 22.4277 408 l 257
 125.761 408 229.095 408 332.428 408 c 257
 332.428 319 l 257
 205 318 l 258
 179.507 317.8 162.267 294.194 152.974 264 c 256
 148.994 251.068 146.771 235.896 146.771 220.21 c 256
 146.771 167.965 171.433 110 238 110 c 256
 309.957 110 328 142.339 328 170 c 256
 328 180.209 326.15 195.969 313.732 195.969 c 256
 308 195.969 304 194 301 192 c 257
 257 272 l 257
 278.756 281.041 302.348 286.171 325.002 286.171 c 256
 382.525 286.171 434 253.095 434 167 c 256
 434 99 388 0 238 0 c 256
 113.583 0 38.4248 98.4756 38.4248 210.498 c 256
66.3848 454 m 256
 66.3848 532.132 116.447 594 207.827 594 c 256
 272.112 594 333.008 556.409 352.668 483 c 256
 353.919 478.329 354.483 473.071 354.483 467.354 c 256
 354.483 425.625 338 362.563 311.804 319 c 257
 261.454 403.03 l 257
 262.516 409.272 266.868 420 266.868 434.342 c 256
 266.868 481.03 236.195 496 212 496 c 256
 175.98 496 159.23 474.292 159.23 443 c 256
 159.23 414 172.755 397.281 190 392 c 257
 138.289 326.719 l 257
 103.479 347 66.3848 398 66.3848 454 c 256
EndSplineSet
EndChar

StartChar: si_BhRa.halant
Encoding: 28 -1 28
GlifName: si_B_hR_a.halant
Width: 718
VWidth: 0
GlyphClass: 2
Flags: W
LayerCount: 2
Back
Fore
SplineSet
108.716 -79.1562 m 256
 218.716 -79.1562 l 256
 218.716 -139.188 276.881 -178.156 368.716 -178.156 c 256
 460.551 -178.156 518.716 -140.426 518.716 -69.1562 c 256
 518.716 -37.1562 515.433 -7.15625 460.716 22.8438 c 257
 438.716 71.8438 l 257
 541.716 78.8438 l 257
 604.716 54.8438 628.716 -16.1562 628.716 -79.1562 c 256
 628.716 -224.156 506.716 -284.156 368.716 -284.156 c 256
 230.716 -284.156 108.716 -224.156 108.716 -79.1562 c 256
572 634.649 m 257
 587 705.844 l 257
 592.819 704.582 598.098 704.003 602.872 704.003 c 256
 631.523 704.003 642 724.843 642 748.844 c 256
 642 789.343 610.367 790.776 596.808 790.776 c 256
 593.788 790.776 591.108 790.446 589 789.844 c 257
 568 823.844 l 257
 598 865.844 l 257
 634 865.844 718 861.844 718 748.844 c 256
 718 673.57 668.227 628.844 610.676 628.844 c 256
 598.011 628.844 584.97 630.759 572 634.649 c 257
505 865.844 m 257
 598 865.844 l 257
 598 811.844 l 257
 591 795.844 l 257
 591 766.844 591 734.844 591 703.844 c 257
 598 683.844 l 257
 598 479.844 l 257
 505 479.844 l 257
 505 865.844 l 257
224.716 255.156 m 257
 264.544 282.183 276.172 331.57 285.277 384 c 256
 301.778 479.008 309.994 584 462.716 584 c 256
 569.715 584 667.716 526.375 667.716 292 c 256
 667.716 69.4258 582.943 0 479.344 0 c 256
 403.43 0 362.001 50.0215 352.716 86 c 257
 417.716 158 l 257
 422.893 141.414 437.716 104 479.344 104 c 256
 522.446 104 561.716 150.341 561.716 292 c 256
 561.716 439.547 512.301 478 462.716 478 c 256
 401.278 478 387.934 429.942 377.408 371 c 256
 365.319 303.303 356.951 221.249 283.716 181.156 c 257
 224.716 255.156 l 257
38.1406 210.498 m 256
 38.1406 229.742 40.3584 249.387 44.9258 269 c 256
 49.5498 288.856 55.9385 306.742 62.96 319.563 c 257
 22.1436 319.667 l 257
 22.1436 408 l 257
 125.477 408 228.811 408 332.144 408 c 257
 332.144 319 l 257
 204.716 318 l 258
 179.223 317.8 161.982 294.194 152.689 264 c 256
 148.71 251.068 146.486 235.896 146.486 220.21 c 256
 146.486 167.965 171.148 110 237.716 110 c 256
 309.673 110 327.716 142.339 327.716 170 c 256
 327.716 180.209 325.866 195.969 313.448 195.969 c 256
 307.716 195.969 303.716 194 300.716 192 c 257
 256.716 272 l 257
 278.472 281.041 302.063 286.171 324.718 286.171 c 256
 382.241 286.171 433.716 253.095 433.716 167 c 256
 433.716 99 387.716 0 237.716 0 c 256
 113.299 0 38.1406 98.4756 38.1406 210.498 c 256
66.1006 454 m 256
 66.1006 532.132 116.163 594 207.543 594 c 256
 271.828 594 332.724 556.409 352.384 483 c 256
 353.635 478.329 354.199 473.071 354.199 467.354 c 256
 354.199 425.625 337.716 362.563 311.52 319 c 257
 261.17 403.03 l 257
 262.231 409.272 266.584 420 266.584 434.342 c 256
 266.584 481.03 235.911 496 211.716 496 c 256
 175.696 496 158.946 474.292 158.946 443 c 256
 158.946 414 172.471 397.281 189.716 392 c 257
 138.005 326.719 l 257
 103.195 347 66.1006 398 66.1006 454 c 256
EndSplineSet
EndChar

StartChar: si_BhU
Encoding: 29 -1 29
GlifName: si_B_hU_
Width: 702
VWidth: 0
GlyphClass: 2
Flags: W
LayerCount: 2
Back
Fore
SplineSet
427.572 -66.1562 m 256
 427.572 17.4307 473.066 66.1338 514.572 97.8438 c 257
 593.572 85.8438 l 257
 576.572 15.8438 l 257
 549.906 -3.79297 526.572 -21.8574 526.572 -66.1562 c 256
 526.572 -92.4785 532.599 -119.156 562.154 -119.156 c 256
 591.572 -119.156 596.572 -92.1562 596.572 -71.1562 c 257
 680.572 -71.1562 l 257
 680.572 -149.156 653.572 -204.156 562.572 -204.156 c 256
 450.436 -204.156 427.572 -134.693 427.572 -66.1562 c 256
224.572 255.156 m 257
 264.4 282.183 276.028 331.57 285.134 384 c 256
 301.634 479.008 309.851 584 462.572 584 c 256
 569.571 584 667.572 526.375 667.572 292 c 256
 667.572 81.5029 616.013 47.6738 576.572 15.8438 c 257
 514.572 97.8438 l 257
 546.297 118.004 561.572 144.054 561.572 292 c 256
 561.572 439.547 512.157 478 462.572 478 c 256
 401.135 478 387.789 429.942 377.264 371 c 256
 365.176 303.303 356.808 221.249 283.572 181.156 c 257
 224.572 255.156 l 257
37.9971 210.498 m 256
 37.9971 229.742 40.2148 249.387 44.7822 269 c 256
 49.4062 288.856 55.7949 306.742 62.8164 319.563 c 257
 22 319.667 l 257
 22 408 l 257
 125.333 408 228.667 408 332 408 c 257
 332 319 l 257
 204.572 318 l 258
 179.079 317.8 161.839 294.194 152.546 264 c 256
 148.565 251.068 146.343 235.896 146.343 220.21 c 256
 146.343 167.965 171.004 110 237.572 110 c 256
 309.529 110 327.572 142.339 327.572 170 c 256
 327.572 180.209 325.722 195.969 313.304 195.969 c 256
 307.572 195.969 303.572 194 300.572 192 c 257
 256.572 272 l 257
 278.328 281.041 301.92 286.171 324.573 286.171 c 256
 382.098 286.171 433.572 253.095 433.572 167 c 256
 433.572 99 387.572 0 237.572 0 c 256
 113.155 0 37.9971 98.4756 37.9971 210.498 c 256
65.957 454 m 256
 65.957 532.132 116.02 594 207.399 594 c 256
 271.684 594 332.58 556.409 352.24 483 c 256
 353.491 478.329 354.056 473.071 354.056 467.354 c 256
 354.056 425.625 337.572 362.563 311.376 319 c 257
 261.026 403.03 l 257
 262.088 409.272 266.44 420 266.44 434.342 c 256
 266.44 481.03 235.768 496 211.572 496 c 256
 175.553 496 158.803 474.292 158.803 443 c 256
 158.803 414 172.327 397.281 189.572 392 c 257
 137.861 326.719 l 257
 103.052 347 65.957 398 65.957 454 c 256
EndSplineSet
EndChar

StartChar: si_BhUu
Encoding: 30 -1 30
GlifName: si_B_hU_u
Width: 713
VWidth: 0
GlyphClass: 2
Flags: W
LayerCount: 2
Back
Fore
SplineSet
481 -89.1562 m 256
 481 -51.5029 493.657 -25.8174 511.166 -8.15625 c 257
 475 -8.15625 l 257
 475 68.8438 l 257
 543.645 122.844 l 257
 501 122.844 l 257
 501 199.844 l 257
 670 199.844 l 257
 670 122.844 l 257
 589 68.8438 l 257
 670 68.8438 l 257
 670 -8.15625 l 257
 640 -8.15625 l 258
 608 -8.15625 569 -31.1562 569 -74.1562 c 256
 569 -96.1562 576 -119.156 604.582 -119.156 c 256
 634 -119.156 639 -92.1562 639 -71.1562 c 257
 723 -71.1562 l 257
 723 -149.156 696 -204.156 605 -204.156 c 256
 502 -204.156 481 -131.156 481 -89.1562 c 256
225 255.156 m 257
 264.828 282.183 276.456 331.57 285.562 384 c 256
 302.062 479.008 310.278 584 463 584 c 256
 562.285 584 667.323 520.933 667.323 318.857 c 256
 667.323 215.163 610.001 122.844 501 122.844 c 257
 501 199.844 l 257
 545.06 199.844 558.302 263.836 558.302 314.055 c 256
 558.302 433.454 510.167 478 463 478 c 256
 401.562 478 388.217 429.942 377.691 371 c 256
 365.604 303.303 357.235 221.249 284 181.156 c 257
 225 255.156 l 257
38.4248 210.498 m 256
 38.4248 229.742 40.6426 249.387 45.21 269 c 256
 49.834 288.856 56.2227 306.742 63.2441 319.563 c 257
 22.4277 319.667 l 257
 22.4277 408 l 257
 125.761 408 229.095 408 332.428 408 c 257
 332.428 319 l 257
 205 318 l 258
 179.507 317.8 162.267 294.194 152.974 264 c 256
 148.993 251.068 146.771 235.896 146.771 220.21 c 256
 146.771 167.965 171.432 110 238 110 c 256
 309.957 110 328 142.339 328 170 c 256
 328 180.209 326.149 195.969 313.731 195.969 c 256
 308 195.969 304 194 301 192 c 257
 257 272 l 257
 278.756 281.041 302.348 286.171 325.001 286.171 c 256
 382.525 286.171 434 253.095 434 167 c 256
 434 99 388 0 238 0 c 256
 113.583 0 38.4248 98.4756 38.4248 210.498 c 256
66.3848 454 m 256
 66.3848 532.132 116.447 594 207.827 594 c 256
 272.111 594 333.008 556.409 352.668 483 c 256
 353.919 478.329 354.483 473.071 354.483 467.354 c 256
 354.483 425.625 338 362.563 311.804 319 c 257
 261.454 403.03 l 257
 262.516 409.272 266.868 420 266.868 434.342 c 256
 266.868 481.03 236.195 496 212 496 c 256
 175.98 496 159.23 474.292 159.23 443 c 256
 159.23 414 172.755 397.281 190 392 c 257
 138.289 326.719 l 257
 103.479 347 66.3848 398 66.3848 454 c 256
EndSplineSet
EndChar

StartChar: si_Bha
Encoding: 31 3511 31
GlifName: si_B_ha
Width: 690
VWidth: 0
GlyphClass: 2
Flags: W
LayerCount: 2
Back
Fore
SplineSet
225 255.156 m 257
 264.828 282.183 276.456 331.57 285.562 384 c 256
 302.062 479.008 310.278 584 463 584 c 256
 569.999 584 668 526.375 668 292 c 256
 668 69.4258 583.228 0 479.628 0 c 256
 403.714 0 362.285 50.0215 353 86 c 257
 418 158 l 257
 423.177 141.414 438 104 479.628 104 c 256
 522.73 104 562 150.341 562 292 c 256
 562 439.547 512.585 478 463 478 c 256
 401.562 478 388.218 429.942 377.692 371 c 256
 365.604 303.303 357.235 221.249 284 181.156 c 257
 225 255.156 l 257
38.4248 210.498 m 256
 38.4248 229.742 40.6426 249.387 45.21 269 c 256
 49.834 288.856 56.2227 306.742 63.2441 319.563 c 257
 22.4277 319.667 l 257
 22.4277 408 l 257
 125.761 408 229.095 408 332.428 408 c 257
 332.428 319 l 257
 205 318 l 258
 179.507 317.8 162.267 294.194 152.974 264 c 256
 148.994 251.068 146.771 235.896 146.771 220.21 c 256
 146.771 167.965 171.433 110 238 110 c 256
 309.957 110 328 142.339 328 170 c 256
 328 180.209 326.15 195.969 313.732 195.969 c 256
 308 195.969 304 194 301 192 c 257
 257 272 l 257
 278.756 281.041 302.348 286.171 325.002 286.171 c 256
 382.525 286.171 434 253.095 434 167 c 256
 434 99 388 0 238 0 c 256
 113.583 0 38.4248 98.4756 38.4248 210.498 c 256
66.3848 454 m 256
 66.3848 532.132 116.447 594 207.827 594 c 256
 272.112 594 333.008 556.409 352.668 483 c 256
 353.919 478.329 354.483 473.071 354.483 467.354 c 256
 354.483 425.625 338 362.563 311.804 319 c 257
 261.454 403.03 l 257
 262.516 409.272 266.868 420 266.868 434.342 c 256
 266.868 481.03 236.195 496 212 496 c 256
 175.98 496 159.23 474.292 159.23 443 c 256
 159.23 414 172.755 397.281 190 392 c 257
 138.289 326.719 l 257
 103.479 347 66.3848 398 66.3848 454 c 256
EndSplineSet
EndChar

StartChar: si_Bha.reph
Encoding: 32 -1 32
GlifName: si_B_ha.reph
Width: 690
VWidth: 0
GlyphClass: 2
Flags: W
LayerCount: 2
Back
Fore
SplineSet
136.293 654.572 m 256
 136.293 735.677 190.033 819 306 819 c 256
 413.435 819 495 752.442 495 643 c 256
 495 561.992 453.514 508.355 376 477 c 257
 335 533 l 257
 383.024 562.479 394 612.927 394 646 c 256
 394 698.275 359.368 734 300 734 c 256
 249.807 734 210 703.771 210 654.83 c 256
 210 629.678 210.342 604.295 211 591 c 257
 320.335 574.53 l 257
 207.238 535 l 257
 154.238 555 136.293 600.682 136.293 654.572 c 256
214.051 623.428 m 256
 214.051 607.129 226.967 594 243 594 c 256
 259.033 594 271.949 607.129 271.949 623.428 c 256
 271.949 639.727 259.033 652.856 243 652.856 c 256
 226.967 652.856 214.051 639.727 214.051 623.428 c 256
140 633 m 256
 140 689 207.312 716.567 263.882 716.567 c 256
 312.566 716.567 352 679.924 352 633 c 256
 352 574.291 305.153 527 247 527 c 256
 187.738 527 140 574.291 140 633 c 256
225 255.156 m 257
 264.828 282.183 276.456 331.57 285.562 384 c 256
 302.062 479.008 310.278 584 463 584 c 256
 569.999 584 668 526.375 668 292 c 256
 668 69.4258 583.228 0 479.628 0 c 256
 403.714 0 362.285 50.0215 353 86 c 257
 418 158 l 257
 423.177 141.414 438 104 479.628 104 c 256
 522.73 104 562 150.341 562 292 c 256
 562 439.547 512.585 478 463 478 c 256
 401.562 478 388.218 429.942 377.692 371 c 256
 365.604 303.303 357.235 221.249 284 181.156 c 257
 225 255.156 l 257
38.4248 210.498 m 256
 38.4248 229.742 40.6426 249.387 45.21 269 c 256
 49.834 288.856 56.2227 306.742 63.2441 319.563 c 257
 22.4277 319.667 l 257
 22.4277 408 l 257
 125.761 408 229.095 408 332.428 408 c 257
 332.428 319 l 257
 205 318 l 258
 179.507 317.8 162.266 294.195 152.974 264 c 256
 148.994 251.068 146.771 235.896 146.771 220.21 c 256
 146.771 167.965 171.433 110 238 110 c 256
 309.957 110 328 142.339 328 170 c 256
 328 180.209 326.15 195.969 313.732 195.969 c 256
 308 195.969 304 194 301 192 c 257
 257 272 l 257
 278.756 281.041 302.348 286.171 325.002 286.171 c 256
 382.525 286.171 434 253.095 434 167 c 256
 434 99 388 0 238 0 c 256
 113.583 0 38.4248 98.4756 38.4248 210.498 c 256
66.3848 454 m 256
 66.3848 532.132 116.447 594 207.827 594 c 256
 272.112 594 333.007 556.409 352.668 483 c 256
 353.919 478.329 354.483 473.071 354.483 467.354 c 256
 354.483 425.625 338 362.563 311.804 319 c 257
 261.454 403.03 l 257
 262.516 409.272 266.868 420 266.868 434.342 c 256
 266.868 481.03 236.195 496 212 496 c 256
 175.98 496 159.23 474.292 159.23 443 c 256
 159.23 414 172.755 397.281 190 392 c 257
 138.289 326.719 l 257
 103.479 347 66.3848 398 66.3848 454 c 256
EndSplineSet
EndChar

StartChar: si_C.halant
Encoding: 34 -1 34
GlifName: si_C_.halant
Width: 529
VWidth: 0
GlyphClass: 2
Flags: W
LayerCount: 2
Back
Fore
SplineSet
42.9966 743.689 m 256
 42.9966 811.694 104.211 871 257.762 871 c 256
 408.976 871 491.634 792.305 491.634 705 c 256
 491.634 611 402.414 569 351.762 569 c 257
 318.762 611 l 257
 338.634 652 l 257
 364.762 659 376.634 680.732 376.634 705 c 256
 376.634 736 345.762 771 257.762 771 c 256
 173.815 771 150.021 747.772 150.021 724.965 c 256
 150.021 705.182 159 697 171 682 c 257
 167 649 l 257
 84 656 l 257
 57 680 42.9966 713.36 42.9966 743.689 c 256
28.1201 200.596 m 256
 28.1201 243.271 40.498 281.649 58.7617 306 c 257
 22 306 l 257
 22 393 l 257
 286.866 390 l 257
 320.706 306 l 257
 213.762 306 l 258
 156.977 306 136.743 261.911 136.743 214.068 c 256
 136.743 166.573 166.077 115 246.762 115 c 256
 351.214 115 392.762 195.018 392.762 354 c 256
 392.762 488.968 334.512 581 214 581 c 256
 176.458 581 124.244 564.031 95 538 c 257
 32 620 l 257
 100 684 179 690.976 230 690.976 c 256
 419.289 690.976 507.762 554.675 507.762 354 c 256
 507.762 118 426.762 0 246.762 0 c 256
 83.1152 0 28.1201 112.89 28.1201 200.596 c 256
56.2979 409.272 m 256
 56.2979 481.535 105.269 531.563 179.57 531.563 c 256
 256.557 531.563 327.955 474.899 327.955 365.563 c 256
 327.955 351 324.762 325 320.706 306 c 257
 230.326 371.875 l 257
 231.267 376.782 231.741 381.771 231.741 386.714 c 256
 231.741 416.144 214.928 444 179.57 444 c 256
 154.771 444 145.778 426.134 145.778 404.787 c 256
 145.778 386.793 158.063 370.325 166.762 356 c 257
 86.7617 318.563 l 257
 66.7617 351 56.2979 380.62 56.2979 409.272 c 256
EndSplineSet
EndChar

StartChar: si_CI
Encoding: 35 -1 35
GlifName: si_C_I_
Width: 529
VWidth: 0
GlyphClass: 2
Flags: W
LayerCount: 2
Back
Fore
SplineSet
23.0195 710 m 256
 23.0195 797.305 106.548 871 257.762 871 c 256
 408.976 871 491.634 792.305 491.634 705 c 256
 491.634 611 402.414 569 351.762 569 c 257
 318.762 611 l 257
 338.634 652 l 257
 364.762 659 376.634 680.732 376.634 705 c 256
 376.634 736 345.762 771 257.762 771 c 256
 169.762 771 138.02 741 138.02 710 c 256
 138.02 685.732 155.892 672.87 177.892 672.87 c 256
 185.619 672.87 234.279 675 242.762 675 c 257
 313.762 630.332 l 257
 242.762 560 l 257
 223.762 560 197.892 558 163.762 558 c 256
 113.109 558 23.0195 598.971 23.0195 710 c 256
28.1201 200.596 m 256
 28.1201 243.271 40.498 281.649 58.7617 306 c 257
 22 306 l 257
 22 393 l 257
 286.866 390 l 257
 320.706 306 l 257
 213.762 306 l 258
 156.977 306 136.743 261.911 136.743 214.068 c 256
 136.743 166.573 166.077 115 246.762 115 c 256
 351.214 115 392.762 195.018 392.762 354 c 256
 392.762 480 352.762 560 242.762 560 c 257
 242.762 675 l 257
 437.095 675 507.762 551.029 507.762 354 c 256
 507.762 118 426.762 0 246.762 0 c 256
 83.1152 0 28.1201 112.89 28.1201 200.596 c 256
56.2979 409.272 m 256
 56.2979 481.535 105.269 531.563 179.57 531.563 c 256
 256.557 531.563 327.955 474.899 327.955 365.563 c 256
 327.955 351 324.762 325 320.706 306 c 257
 230.326 371.875 l 257
 231.267 376.782 231.741 381.771 231.741 386.714 c 256
 231.741 416.144 214.928 444 179.57 444 c 256
 154.771 444 145.778 426.134 145.778 404.787 c 256
 145.778 386.793 158.063 370.325 166.762 356 c 257
 86.7617 318.563 l 257
 66.7617 351 56.2979 380.62 56.2979 409.272 c 256
EndSplineSet
EndChar

StartChar: si_CIi
Encoding: 36 -1 36
GlifName: si_C_I_i
Width: 529
VWidth: 0
GlyphClass: 2
Flags: W
LayerCount: 2
Back
Fore
SplineSet
323.109 716.615 m 256
 323.109 694.364 340.742 676.44 362.631 676.44 c 256
 384.52 676.44 402.152 694.364 402.152 716.615 c 256
 402.152 738.865 384.52 756.79 362.631 756.79 c 256
 340.742 756.79 323.109 738.865 323.109 716.615 c 256
231.634 717 m 256
 231.634 789 289.634 847 361.634 847 c 256
 433.634 847 491.634 789 491.634 717 c 256
 491.634 645 433.634 587 361.634 587 c 256
 289.634 587 231.634 645 231.634 717 c 256
23.0195 710 m 256
 23.0195 797.305 106.548 871 257.762 871 c 256
 408.976 871 491.634 804.305 491.634 717 c 256
 491.634 681.067 477.3 654.048 456.762 634.379 c 256
 423.572 602.593 374.18 590 342.89 590 c 257
 309.89 632 l 257
 350.762 673 l 257
 373.479 673 402.152 679 402.152 716.615 c 256
 402.152 764 345.762 771 257.762 771 c 256
 169.762 771 138.02 741 138.02 710 c 256
 138.02 685.732 155.892 672.87 177.892 672.87 c 256
 185.619 672.87 234.279 675 242.762 675 c 257
 300.762 630.332 l 257
 242.762 560 l 257
 223.762 560 197.892 558 163.762 558 c 256
 113.109 558 23.0195 598.971 23.0195 710 c 256
28.1201 200.596 m 256
 28.1201 243.271 40.498 281.649 58.7617 306 c 257
 22 306 l 257
 22 393 l 257
 286.866 390 l 257
 320.706 306 l 257
 213.762 306 l 258
 156.977 306 136.743 261.911 136.743 214.068 c 256
 136.743 166.573 166.077 115 246.762 115 c 256
 351.214 115 392.762 195.018 392.762 354 c 256
 392.762 480 352.762 560 242.762 560 c 257
 242.762 675 l 257
 437.095 675 507.762 551.029 507.762 354 c 256
 507.762 118 426.762 0 246.762 0 c 256
 83.1152 0 28.1201 112.89 28.1201 200.596 c 256
56.2979 409.272 m 256
 56.2979 481.535 105.269 531.563 179.57 531.563 c 256
 256.557 531.563 327.955 474.899 327.955 365.563 c 256
 327.955 351 324.762 325 320.706 306 c 257
 230.326 371.875 l 257
 231.267 376.782 231.741 381.771 231.741 386.714 c 256
 231.741 416.144 214.928 444 179.57 444 c 256
 154.771 444 145.778 426.134 145.778 404.787 c 256
 145.778 386.793 158.063 370.325 166.762 356 c 257
 86.7617 318.563 l 257
 66.7617 351 56.2979 380.62 56.2979 409.272 c 256
EndSplineSet
EndChar

StartChar: si_CR.halant
Encoding: 37 -1 37
GlifName: si_C_R_.halant
Width: 529
VWidth: 0
GlyphClass: 2
Flags: W
LayerCount: 2
Back
Fore
SplineSet
21 -89 m 256
 131 -89 l 256
 131 -142.969 179.858 -178 257 -178 c 256
 339.651 -178 392 -140.27 392 -69 c 256
 392 -37 388.717 -7 334 23 c 257
 312 72 l 257
 415 79 l 257
 478 55 502 -16 502 -79 c 256
 502 -224 387.038 -284 257 -284 c 256
 131.738 -284 21 -226.927 21 -89 c 256
EndSplineSet
Refer: 34 -1 N 1 0 0 1 0 0 2
EndChar

StartChar: si_CRI
Encoding: 38 -1 38
GlifName: si_C_R_I_
Width: 529
VWidth: 0
GlyphClass: 2
Flags: W
LayerCount: 2
Back
Fore
SplineSet
21 -89 m 256
 131 -89 l 256
 131 -142.969 179.858 -178 257 -178 c 256
 339.651 -178 392 -140.27 392 -69 c 256
 392 -37 388.717 -7 334 23 c 257
 312 72 l 257
 415 79 l 257
 478 55 502 -16 502 -79 c 256
 502 -224 387.038 -284 257 -284 c 256
 131.738 -284 21 -226.927 21 -89 c 256
EndSplineSet
Refer: 35 -1 N 1 0 0 1 0 0 2
EndChar

StartChar: si_CRIi
Encoding: 39 -1 39
GlifName: si_C_R_I_i
Width: 529
VWidth: 0
GlyphClass: 2
Flags: W
LayerCount: 2
Back
Fore
SplineSet
21 -89 m 256
 131 -89 l 256
 131 -142.969 179.858 -178 257 -178 c 256
 339.651 -178 392 -140.27 392 -69 c 256
 392 -37 388.717 -7 334 23 c 257
 312 72 l 257
 415 79 l 257
 478 55 502 -16 502 -79 c 256
 502 -224 387.038 -284 257 -284 c 256
 131.738 -284 21 -226.927 21 -89 c 256
EndSplineSet
Refer: 36 -1 N 1 0 0 1 0 0 2
EndChar

StartChar: si_CRa
Encoding: 40 -1 40
GlifName: si_C_R_a
Width: 530
VWidth: 0
GlyphClass: 2
Flags: W
LayerCount: 2
Back
Fore
SplineSet
21 -89 m 256
 131 -89 l 256
 131 -142.969 179.858 -178 257 -178 c 256
 339.651 -178 392 -140.27 392 -69 c 256
 392 -37 388.717 -7 334 23 c 257
 312 72 l 257
 415 79 l 257
 478 55 502 -16 502 -79 c 256
 502 -224 387.038 -284 257 -284 c 256
 131.738 -284 21 -226.927 21 -89 c 256
28.1204 200.596 m 256
 28.1204 243.27 40.4984 281.649 58.7617 306 c 257
 22 306 l 257
 22 393 l 257
 286.866 390 l 257
 320.706 306 l 257
 213.762 306 l 258
 156.977 306 136.743 261.911 136.743 214.068 c 256
 136.743 166.573 166.077 115 246.762 115 c 256
 351.214 115 392.762 195.018 392.762 354 c 256
 392.762 583 321.441 640 238.616 640 c 256
 197.513 640 157.428 618.96 140.372 576.855 c 257
 31.3398 613.029 l 257
 67.3242 707.868 151.896 755 238.616 755 c 256
 378.088 755 508.762 674 508.762 354 c 256
 508.762 117.998 426.762 0 246.762 0 c 256
 83.1154 0 28.1204 112.89 28.1204 200.596 c 256
56.2979 409.272 m 256
 56.2979 481.535 105.269 531.563 179.57 531.563 c 256
 256.557 531.563 327.955 474.899 327.955 365.563 c 256
 327.955 351 324.762 325 320.706 306 c 257
 230.326 371.875 l 257
 231.267 376.783 231.741 381.77 231.741 386.714 c 256
 231.741 416.144 214.927 444 179.57 444 c 256
 154.771 444 145.778 426.134 145.778 404.787 c 256
 145.778 386.793 158.063 370.325 166.762 356 c 257
 86.7617 318.563 l 257
 66.7617 351 56.2979 380.62 56.2979 409.272 c 256
EndSplineSet
EndChar

StartChar: si_CU
Encoding: 41 -1 41
GlifName: si_C_U_
Width: 530
VWidth: 0
GlyphClass: 2
Flags: W
LayerCount: 2
Back
Fore
SplineSet
21.0566 -103.642 m 256
 21.0566 -85.6904 23.3193 -64.9189 28.085 -41 c 257
 134.229 -53 l 257
 133.594 -58.2256 133.268 -63.0078 133.268 -67.3584 c 256
 133.268 -91.1045 142.976 -102 165 -102 c 258
 384 -102 l 257
 384 -205 l 257
 124 -205 l 258
 61.4326 -205 21.0566 -179.479 21.0566 -103.642 c 256
376 64 m 257
 412 172 l 257
 490 225 l 257
 490 -205 l 257
 376 -205 l 257
 376 64 l 257
28.1204 200.596 m 256
 28.1204 243.27 40.4984 281.649 58.7617 306 c 257
 22 306 l 257
 22 393 l 257
 286.866 390 l 257
 320.706 306 l 257
 213.762 306 l 258
 156.977 306 136.743 261.911 136.743 214.068 c 256
 136.743 166.573 166.077 115 246.762 115 c 256
 351.214 115 392.762 195.018 392.762 354 c 256
 392.762 583 321.441 640 238.616 640 c 256
 197.513 640 157.428 618.96 140.372 576.855 c 257
 31.3398 613.029 l 257
 67.3242 707.868 151.896 755 238.616 755 c 256
 378.088 755 508.762 675.859 508.762 354 c 256
 507.762 118 426.762 0 246.762 0 c 256
 83.1154 0 28.1204 112.89 28.1204 200.596 c 256
56.2979 409.272 m 256
 56.2979 481.535 105.269 531.563 179.57 531.563 c 256
 256.557 531.563 327.955 474.899 327.955 365.563 c 256
 327.955 351 324.762 325 320.706 306 c 257
 230.326 371.875 l 257
 231.267 376.783 231.741 381.77 231.741 386.714 c 256
 231.741 416.144 214.927 444 179.57 444 c 256
 154.771 444 145.778 426.134 145.778 404.787 c 256
 145.778 386.793 158.063 370.325 166.762 356 c 257
 86.7617 318.563 l 257
 66.7617 351 56.2979 380.62 56.2979 409.272 c 256
EndSplineSet
EndChar

StartChar: si_CUu
Encoding: 42 -1 42
GlifName: si_C_U_u
Width: 530
VWidth: 0
GlyphClass: 2
Flags: W
LayerCount: 2
Back
Fore
SplineSet
21.0566 -103.642 m 256
 21.0566 -85.9404 23.2559 -65.499 27.8867 -42 c 257
 131.549 -57 l 257
 130.523 -63.2686 130.053 -68.7656 130.053 -73.5605 c 256
 130.053 -94.4297 138.975 -102 150 -102 c 256
 191.025 -102 237 -59.1631 322.426 -59.1631 c 256
 340.275 -59.1631 362 -65 376 -74 c 257
 376 -205 l 257
 359 -169.666 334.777 -157.889 306.889 -157.889 c 256
 251.111 -157.889 180.667 -205 124 -205 c 256
 61.4326 -205 21.0566 -179.479 21.0566 -103.642 c 256
376 64 m 257
 446 173 l 257
 490 225 l 257
 490 -205 l 257
 376 -205 l 257
 376 64 l 257
28.1204 200.596 m 256
 28.1204 243.27 40.4984 281.649 58.7617 306 c 257
 22 306 l 257
 22 393 l 257
 286.866 390 l 257
 320.706 306 l 257
 213.762 306 l 258
 156.977 306 136.743 261.911 136.743 214.068 c 256
 136.743 166.573 166.077 115 246.762 115 c 256
 351.214 115 392.762 195.018 392.762 354 c 256
 392.762 583 321.441 640 238.616 640 c 256
 197.513 640 157.428 618.96 140.372 576.855 c 257
 31.3398 613.029 l 257
 67.3242 707.868 151.896 755 238.616 755 c 256
 378.088 755 508.762 676 508.762 354 c 256
 508.762 117.998 426.762 0 246.762 0 c 256
 83.1154 0 28.1204 112.89 28.1204 200.596 c 256
56.2979 409.272 m 256
 56.2979 481.535 105.269 531.563 179.57 531.563 c 256
 256.557 531.563 327.955 474.899 327.955 365.563 c 256
 327.955 351 324.762 325 320.706 306 c 257
 230.326 371.875 l 257
 231.267 376.783 231.741 381.77 231.741 386.714 c 256
 231.741 416.144 214.927 444 179.57 444 c 256
 154.771 444 145.778 426.134 145.778 404.787 c 256
 145.778 386.793 158.063 370.325 166.762 356 c 257
 86.7617 318.563 l 257
 66.7617 351 56.2979 380.62 56.2979 409.272 c 256
EndSplineSet
EndChar

StartChar: si_Ca
Encoding: 43 3488 43
GlifName: si_C_a
Width: 531
VWidth: 0
GlyphClass: 2
Flags: W
LayerCount: 2
Back
Fore
SplineSet
28.3584 200.596 m 256
 28.3584 243.271 40.7363 281.649 59 306 c 257
 22.2383 306 l 257
 22.2383 393 l 257
 287.104 390 l 257
 320.944 306 l 257
 214 306 l 258
 157.215 306 136.981 261.911 136.981 214.068 c 256
 136.981 166.573 166.315 115 247 115 c 256
 351.452 115 393 195.018 393 354 c 256
 393 583 321.68 640 238.854 640 c 256
 197.751 640 157.666 618.96 140.61 576.855 c 257
 31.5781 613.029 l 257
 67.5625 707.868 152.134 755 238.854 755 c 256
 378.326 755 509 675.859 509 354 c 256
 508 118 427 0 247 0 c 256
 83.3535 0 28.3584 112.89 28.3584 200.596 c 256
56.5361 409.272 m 256
 56.5361 481.535 105.507 531.563 179.809 531.563 c 256
 256.795 531.563 328.193 474.899 328.193 365.563 c 256
 328.193 351 325 325 320.944 306 c 257
 230.564 371.875 l 257
 231.505 376.782 231.979 381.771 231.979 386.714 c 256
 231.979 416.144 215.166 444 179.809 444 c 256
 155.009 444 146.017 426.134 146.017 404.787 c 256
 146.017 386.793 158.302 370.325 167 356 c 257
 87 318.563 l 257
 67 351 56.5361 380.62 56.5361 409.272 c 256
EndSplineSet
EndChar

StartChar: si_Ca.reph
Encoding: 44 -1 44
GlifName: si_C_a.reph
Width: 531
VWidth: 0
GlyphClass: 2
Flags: W
LayerCount: 2
Back
Fore
SplineSet
117.055 706.572 m 256
 117.055 776.741 168.578 848.83 279.762 848.83 c 256
 382.081 848.83 459.762 782.337 459.762 673 c 256
 459.762 594 400.019 530.011 344 503 c 257
 294 567 l 257
 352 594 366.762 652 366.762 676 c 256
 366.762 733.027 332.498 772 273.762 772 c 256
 227.473 772 190.762 747.116 190.762 706.83 c 256
 190.762 687.128 198.624 667.244 213.762 656.83 c 257
 288.097 618.53 l 257
 188 587 l 257
 135 607 117.055 652.681 117.055 706.572 c 256
198.812 685.258 m 256
 198.812 668.959 211.729 655.83 227.762 655.83 c 256
 243.795 655.83 256.711 668.959 256.711 685.258 c 256
 256.711 701.557 243.795 714.687 227.762 714.687 c 256
 211.729 714.687 198.812 701.557 198.812 685.258 c 256
120.762 685 m 256
 120.762 741 188.073 768.567 244.644 768.567 c 256
 295.805 768.567 337.244 731.924 337.244 685 c 256
 337.244 626.291 288.397 579 227.762 579 c 256
 168.5 579 120.762 626.291 120.762 685 c 256
31.5781 613.029 m 257
 57.2619 680.72 107.698 724.108 166 743.4 c 257
 184 634 l 257
 162 629 133.699 603.943 124 580 c 257
 31.5781 613.029 l 257
28.3584 200.596 m 256
 28.3584 243.271 40.7363 281.649 59 306 c 257
 22.2383 306 l 257
 22.2383 393 l 257
 287.104 390 l 257
 320.944 306 l 257
 214 306 l 258
 157.215 306 136.981 261.911 136.981 214.068 c 256
 136.981 166.573 166.315 115 247 115 c 256
 351.452 115 393 195.018 393 354 c 256
 393 453.864 379.166 522.019 357 566 c 257
 425.556 676 l 257
 476.039 616.075 509 515.649 509 354 c 256
 508 118 427 0 247 0 c 256
 83.3535 0 28.3584 112.89 28.3584 200.596 c 256
56.5361 409.272 m 256
 56.5361 481.535 105.507 531.563 179.809 531.563 c 256
 256.795 531.563 328.193 474.899 328.193 365.563 c 256
 328.193 351 325 325 320.944 306 c 257
 230.564 371.875 l 257
 231.505 376.782 231.979 381.771 231.979 386.714 c 256
 231.979 416.144 215.166 444 179.809 444 c 256
 155.009 444 146.017 426.134 146.017 404.787 c 256
 146.017 386.793 158.302 370.325 167 356 c 257
 87 318.563 l 257
 67 351 56.5361 380.62 56.5361 409.272 c 256
EndSplineSet
EndChar

StartChar: si_Ch.halant
Encoding: 46 -1 46
GlifName: si_C_h.halant
Width: 597
VWidth: 0
GlyphClass: 2
Flags: W
LayerCount: 2
Back
Fore
SplineSet
230.045 634.806 m 257
 245.045 706 l 257
 250.864 704.738 256.143 704.159 260.917 704.159 c 256
 289.568 704.159 300.045 724.999 300.045 749 c 256
 300.045 789.499 268.412 790.933 254.853 790.933 c 256
 251.833 790.933 249.153 790.603 247.045 790 c 257
 226.045 824 l 257
 256.045 866 l 257
 292.045 866 376.045 862 376.045 749 c 256
 376.045 673.727 326.271 629 268.721 629 c 256
 256.056 629 243.015 630.915 230.045 634.806 c 257
173.045 866 m 257
 256.045 866 l 257
 256.045 812 l 257
 249.045 796 l 257
 249.045 767 249.045 735 249.045 704 c 257
 256.045 684 l 257
 256.045 527 l 257
 173.045 527 l 257
 173.045 866 l 257
362.863 576 m 256
 472.572 688.385 479 723.753 479 779 c 257
 589 779 l 257
 589 681.148 538.723 617 461 537 c 256
 362.863 576 l 256
243.865 467.354 m 256
 243.865 473.071 244.43 478.329 245.681 483 c 256
 265.31 556.276 324.399 594 387.218 594 c 256
 473.777 594 536.775 538.437 536.775 408.68 c 256
 536.775 262.437 458.3 191.437 360.3 191.437 c 256
 287.729 191.437 253.672 239.871 253.672 282.802 c 256
 253.672 296.07 256.925 308.812 263.3 319.437 c 257
 352.3 318.437 l 257
 342.581 315.901 337.683 308.278 337.683 300.319 c 256
 337.683 289.444 346.829 277.943 365.317 277.943 c 256
 406.3 277.943 443.3 302.437 443.3 403.437 c 256
 443.3 474.437 414.583 496 383.045 496 c 256
 360.307 496 331.48 481.03 331.48 434.342 c 256
 331.48 428.679 331.983 422.242 333.045 416 c 258
 286.545 318.437 l 257
 273.934 359.423 243.865 425.625 243.865 467.354 c 256
128.824 224 m 256
 128.824 144.037 207.536 104.167 286.321 104.167 c 256
 365.255 104.167 444.264 144.187 444.264 224 c 256
 444.264 275.726 416.824 318 361.824 318 c 258
 211.264 318 l 258
 156.268 318 128.824 277 128.824 224 c 256
21.8242 224 m 256
 21.8242 329.377 82.8809 416 205.264 416 c 258
 367.824 416 l 258
 490.207 416 551.264 329.652 551.264 224 c 256
 551.264 66.501 418.904 -12.249 286.545 -12.249 c 256
 154.185 -12.249 21.8242 66.502 21.8242 224 c 256
47.2129 456.407 m 256
 47.2129 532.137 99.3125 594 185.872 594 c 256
 248.69 594 307.783 556.277 327.409 483 c 256
 328.66 478.329 329.225 473.071 329.225 467.354 c 256
 329.225 425.625 299.156 359.423 286.545 318.437 c 257
 240.045 416 l 258
 241.106 422.242 241.609 428.679 241.609 434.342 c 256
 241.609 481.03 212.783 496 190.045 496 c 256
 154.901 496 140.688 475 140.688 451.164 c 256
 140.688 439.108 147.324 419.561 155.308 410.437 c 257
 78.5986 369.03 l 257
 58.4609 394.649 47.2129 428.149 47.2129 456.407 c 256
EndSplineSet
EndChar

StartChar: si_ChI
Encoding: 47 -1 47
GlifName: si_C_hI_
Width: 617
VWidth: 0
GlyphClass: 2
Flags: W
LayerCount: 2
Back
Fore
SplineSet
65 661 m 256
 65 806 166.129 866 272 866 c 256
 414.563 866 468 776.186 468 690 c 256
 468 641.613 437.838 601.828 432 590 c 257
 384 533 l 257
 357 583 l 257
 370.971 597.632 382 616.802 382 650 c 256
 382 709.145 350.98 762 269 762 c 256
 202.076 762 171 718 171 661 c 256
 171 619 187.985 581 248 559 c 257
 255 510 l 257
 167 503 l 257
 104 527 65 598 65 661 c 256
404 576 m 256
 493.742 688.385 499 723.753 499 779 c 257
 609 779 l 257
 609 681.148 558.723 617 481 537 c 256
 404 576 l 256
244.041 467.354 m 256
 244.041 473.071 244.605 478.329 245.856 483 c 256
 265.485 556.276 324.575 594 387.394 594 c 256
 473.953 594 536.951 538.437 536.951 408.68 c 256
 536.951 262.437 458.476 191.437 360.476 191.437 c 256
 287.904 191.437 253.848 239.871 253.848 282.802 c 256
 253.848 296.07 257.101 308.812 263.476 319.437 c 257
 352.476 318.437 l 257
 342.757 315.901 337.858 308.278 337.858 300.319 c 256
 337.858 289.444 347.005 277.943 365.493 277.943 c 256
 406.476 277.943 443.476 302.437 443.476 403.437 c 256
 443.476 474.437 414.759 496 383.221 496 c 256
 360.482 496 331.656 481.03 331.656 434.342 c 256
 331.656 428.679 332.159 422.242 333.221 416 c 258
 286.721 318.437 l 257
 274.109 359.423 244.041 425.625 244.041 467.354 c 256
129 224 m 256
 129.001 144.037 207.712 104.167 286.497 104.167 c 256
 365.431 104.167 444.439 144.187 444.439 224 c 256
 444.439 275.726 417 318 362 318 c 258
 211.439 318 l 258
 156.443 318 129 276.868 129 224 c 256
22 224 m 256
 22 329.377 83.0566 416 205.439 416 c 258
 368 416 l 258
 490.383 416 551.439 329.652 551.439 224 c 256
 551.439 66.501 419.08 -12.249 286.721 -12.249 c 256
 154.36 -12.249 22 66.502 22 224 c 256
47.3887 456.407 m 256
 47.3887 532.137 99.4883 594 186.048 594 c 256
 248.866 594 307.959 556.277 327.585 483 c 256
 328.836 478.329 329.4 473.071 329.4 467.354 c 256
 329.4 425.625 299.332 359.423 286.721 318.437 c 257
 240.221 416 l 258
 241.282 422.242 241.785 428.679 241.785 434.342 c 256
 241.785 481.03 212.959 496 190.221 496 c 256
 155.077 496 140.864 475 140.864 451.164 c 256
 140.864 439.108 147.5 419.561 155.483 410.437 c 257
 78.7744 369.03 l 257
 58.6367 394.649 47.3887 428.149 47.3887 456.407 c 256
EndSplineSet
EndChar

StartChar: si_ChIi
Encoding: 48 -1 48
GlifName: si_C_hI_i
Width: 617
VWidth: 0
GlyphClass: 2
Flags: W
LayerCount: 2
Back
Fore
SplineSet
336.479 634.175 m 256
 336.479 611.924 354.111 594 376 594 c 256
 397.889 594 415.521 611.924 415.521 634.175 c 256
 415.521 656.425 397.889 674.35 376 674.35 c 256
 354.111 674.35 336.479 656.425 336.479 634.175 c 256
246 634.56 m 256
 246 706.628 297.324 748.654 348.581 748.654 c 256
 370.794 748.654 392.994 740.761 411 724 c 257
 423.411 724 476.075 712.889 476.075 633.56 c 256
 476.075 568.76 430.981 516.56 375.003 516.56 c 256
 303.555 516.56 246 569.206 246 634.56 c 256
65 661 m 256
 65 806 173.465 866 272 866 c 256
 430 866 483.928 760 483.928 661 c 256
 483.928 608.609 456.591 545.407 404.26 529.606 c 257
 316.26 536.606 l 257
 343 567 l 257
 392.087 569.166 428.668 599.991 428.668 632.394 c 256
 428.668 649.994 419.241 667.924 398 684 c 257
 364.989 741.571 338.755 762 272 762 c 256
 206.515 762 171 718 171 661 c 256
 171 619 187.985 581 248 559 c 257
 255 510 l 257
 167 503 l 257
 104 527 65 598 65 661 c 256
382.863 576 m 256
 492.572 688.385 499 723.753 499 779 c 257
 609 779 l 257
 609 681.148 558.723 617 481 537 c 256
 382.863 576 l 256
244.041 467.354 m 256
 244.041 473.071 244.605 478.329 245.856 483 c 256
 265.485 556.276 324.575 594 387.394 594 c 256
 473.953 594 536.951 538.437 536.951 408.68 c 256
 536.951 262.437 458.476 191.437 360.476 191.437 c 256
 287.904 191.437 253.848 239.871 253.848 282.802 c 256
 253.848 296.07 257.101 308.812 263.476 319.437 c 257
 352.476 318.437 l 257
 342.757 315.901 337.858 308.278 337.858 300.319 c 256
 337.858 289.444 347.005 277.943 365.493 277.943 c 256
 406.476 277.943 443.476 302.437 443.476 403.437 c 256
 443.476 474.437 414.759 496 383.221 496 c 256
 360.482 496 331.656 481.03 331.656 434.342 c 256
 331.656 428.679 332.159 422.242 333.221 416 c 258
 286.721 318.437 l 257
 274.109 359.423 244.041 425.625 244.041 467.354 c 256
129 224 m 256
 129.001 144.037 207.712 104.167 286.497 104.167 c 256
 365.431 104.167 444.439 144.187 444.439 224 c 256
 444.439 275.726 417 318 362 318 c 258
 211.439 318 l 258
 156.443 318 129 276.868 129 224 c 256
22 224 m 256
 22 329.377 83.0566 416 205.439 416 c 258
 368 416 l 258
 490.383 416 551.439 329.652 551.439 224 c 256
 551.439 66.501 419.08 -12.249 286.721 -12.249 c 256
 154.36 -12.249 22 66.502 22 224 c 256
47.3887 456.407 m 256
 47.3887 532.137 99.4883 594 186.048 594 c 256
 248.866 594 307.959 556.277 327.585 483 c 256
 328.836 478.329 329.4 473.071 329.4 467.354 c 256
 329.4 425.625 299.332 359.423 286.721 318.437 c 257
 240.221 416 l 258
 241.282 422.242 241.785 428.679 241.785 434.342 c 256
 241.785 481.03 212.959 496 190.221 496 c 256
 155.077 496 140.864 475 140.864 451.164 c 256
 140.864 439.108 147.5 419.561 155.483 410.437 c 257
 78.7744 369.03 l 257
 58.6367 394.649 47.3887 428.149 47.3887 456.407 c 256
EndSplineSet
EndChar

StartChar: si_ChU
Encoding: 49 -1 49
GlifName: si_C_hU_
Width: 597
VWidth: 0
GlyphClass: 2
Flags: W
LayerCount: 2
Back
Fore
SplineSet
57.1016 -103.642 m 256
 57.1016 -85.6904 59.3643 -64.9189 64.1299 -41 c 257
 170.274 -53 l 257
 169.639 -58.2256 169.312 -63.0078 169.312 -67.3584 c 256
 169.312 -91.1045 179.021 -102 201.045 -102 c 258
 201.045 -102 391.045 -102 420.045 -102 c 257
 420.045 -205 l 257
 374.045 -205 160.045 -205 160.045 -205 c 258
 97.4775 -205 57.1016 -179.479 57.1016 -103.642 c 256
412.045 64 m 257
 448.045 172 l 257
 526.045 225 l 257
 526.045 -205 l 257
 412.045 -205 l 257
 412.045 64 l 257
362.863 576 m 256
 472.572 688.385 479 723.753 479 779 c 257
 589 779 l 257
 589 681.148 538.723 617 461 537 c 256
 362.863 576 l 256
243.865 467.354 m 256
 243.865 473.071 244.43 478.329 245.681 483 c 256
 265.31 556.276 324.399 594 387.218 594 c 256
 473.777 594 536.775 538.437 536.775 408.68 c 256
 536.775 262.437 458.3 191.437 360.3 191.437 c 256
 287.729 191.437 253.672 239.871 253.672 282.802 c 256
 253.672 296.07 256.925 308.812 263.3 319.437 c 257
 352.3 318.437 l 257
 342.581 315.901 337.683 308.278 337.683 300.319 c 256
 337.683 289.444 346.829 277.943 365.317 277.943 c 256
 406.3 277.943 443.3 302.437 443.3 403.437 c 256
 443.3 474.437 414.583 496 383.045 496 c 256
 360.307 496 331.48 481.03 331.48 434.342 c 256
 331.48 428.679 331.983 422.242 333.045 416 c 258
 286.545 318.437 l 257
 273.934 359.423 243.865 425.625 243.865 467.354 c 256
128.824 224 m 256
 128.825 144.037 207.536 104.167 286.321 104.167 c 256
 365.255 104.167 444.264 144.187 444.264 224 c 256
 444.264 275.726 416.824 318 361.824 318 c 258
 211.264 318 l 258
 156.268 318 128.824 276.868 128.824 224 c 256
21.8242 224 m 256
 21.8242 329.377 82.8809 416 205.264 416 c 258
 367.824 416 l 258
 490.207 416 551.264 329.652 551.264 224 c 256
 551.264 66.501 418.904 -12.249 286.545 -12.249 c 256
 154.185 -12.249 21.8242 66.502 21.8242 224 c 256
47.2129 456.407 m 256
 47.2129 532.137 99.3125 594 185.872 594 c 256
 248.69 594 307.783 556.277 327.409 483 c 256
 328.66 478.329 329.225 473.071 329.225 467.354 c 256
 329.225 425.625 299.156 359.423 286.545 318.437 c 257
 240.045 416 l 258
 241.106 422.242 241.609 428.679 241.609 434.342 c 256
 241.609 481.03 212.783 496 190.045 496 c 256
 154.901 496 140.688 475 140.688 451.164 c 256
 140.688 439.108 147.324 419.561 155.308 410.437 c 257
 78.5986 369.03 l 257
 58.4609 394.649 47.2129 428.149 47.2129 456.407 c 256
EndSplineSet
EndChar

StartChar: si_ChUu
Encoding: 50 -1 50
GlifName: si_C_hU_u
Width: 597
VWidth: 0
GlyphClass: 2
Flags: W
LayerCount: 2
Back
Fore
SplineSet
57.1016 -103.642 m 256
 57.1016 -85.9404 59.3008 -65.499 63.9316 -42 c 257
 167.594 -57 l 257
 166.568 -63.2686 166.098 -68.7656 166.098 -73.5605 c 256
 166.098 -94.4297 175.02 -102 186.045 -102 c 256
 227.07 -102 273.045 -59.1631 358.471 -59.1631 c 256
 376.32 -59.1631 398.045 -65 412.045 -74 c 257
 412.045 -205 l 257
 395.045 -169.666 370.822 -157.889 342.934 -157.889 c 256
 287.156 -157.889 216.712 -205 160.045 -205 c 256
 97.4775 -205 57.1016 -179.479 57.1016 -103.642 c 256
412.045 64 m 257
 482.045 173 l 257
 526.045 225 l 257
 526.045 -205 l 257
 412.045 -205 l 257
 412.045 64 l 257
362.863 576 m 256
 472.572 688.385 479 723.753 479 779 c 257
 589 779 l 257
 589 681.148 538.723 617 461 537 c 256
 362.863 576 l 256
243.865 467.354 m 256
 243.865 473.071 244.43 478.329 245.681 483 c 256
 265.31 556.276 324.399 594 387.218 594 c 256
 473.777 594 536.775 538.437 536.775 408.68 c 256
 536.775 262.437 458.3 191.437 360.3 191.437 c 256
 287.729 191.437 253.672 239.871 253.672 282.802 c 256
 253.672 296.07 256.925 308.812 263.3 319.437 c 257
 352.3 318.437 l 257
 342.581 315.901 337.683 308.278 337.683 300.319 c 256
 337.683 289.444 346.829 277.943 365.317 277.943 c 256
 406.3 277.943 443.3 302.437 443.3 403.437 c 256
 443.3 474.437 414.583 496 383.045 496 c 256
 360.307 496 331.48 481.03 331.48 434.342 c 256
 331.48 428.679 331.983 422.242 333.045 416 c 258
 286.545 318.437 l 257
 273.934 359.423 243.865 425.625 243.865 467.354 c 256
128.824 224 m 256
 128.824 144.037 207.536 104.167 286.321 104.167 c 256
 365.255 104.167 444.264 144.187 444.264 224 c 256
 444.264 275.726 416.824 318 361.824 318 c 258
 211.264 318 l 258
 156.268 318 128.824 277 128.824 224 c 256
21.8242 224 m 256
 21.8242 329.377 82.8809 416 205.264 416 c 258
 367.824 416 l 258
 490.207 416 551.264 329.652 551.264 224 c 256
 551.264 66.501 418.904 -12.249 286.545 -12.249 c 256
 154.185 -12.249 21.8242 66.502 21.8242 224 c 256
47.2129 456.407 m 256
 47.2129 532.137 99.3125 594 185.872 594 c 256
 248.69 594 307.783 556.277 327.409 483 c 256
 328.66 478.329 329.225 473.071 329.225 467.354 c 256
 329.225 425.625 299.156 359.423 286.545 318.437 c 257
 240.045 416 l 258
 241.106 422.242 241.609 428.679 241.609 434.342 c 256
 241.609 481.03 212.783 496 190.045 496 c 256
 154.901 496 140.688 475 140.688 451.164 c 256
 140.688 439.108 147.324 419.561 155.308 410.437 c 257
 78.5986 369.03 l 257
 58.4609 394.649 47.2129 428.149 47.2129 456.407 c 256
EndSplineSet
EndChar

StartChar: si_Cha
Encoding: 51 3489 51
GlifName: si_C_ha
Width: 566
VWidth: 0
GlyphClass: 2
Flags: W
LayerCount: 2
Back
Fore
SplineSet
363.039 576 m 256
 472.748 688.385 479.176 723.753 479.176 779 c 257
 589.176 779 l 257
 589.176 681.148 538.898 617 461.176 537 c 256
 363.039 576 l 256
244.041 467.354 m 256
 244.041 473.071 244.605 478.329 245.856 483 c 256
 265.485 556.276 324.575 594 387.394 594 c 256
 473.953 594 536.951 538.437 536.951 408.68 c 256
 536.951 262.437 458.476 191.437 360.476 191.437 c 256
 287.904 191.437 253.848 239.871 253.848 282.802 c 256
 253.848 296.07 257.101 308.812 263.476 319.437 c 257
 352.476 318.437 l 257
 342.757 315.901 337.858 308.278 337.858 300.319 c 256
 337.858 289.444 347.005 277.943 365.493 277.943 c 256
 406.476 277.943 443.476 302.437 443.476 403.437 c 256
 443.476 474.437 414.759 496 383.221 496 c 256
 360.482 496 331.656 481.03 331.656 434.342 c 256
 331.656 428.679 332.159 422.242 333.221 416 c 258
 286.721 318.437 l 257
 274.109 359.423 244.041 425.625 244.041 467.354 c 256
129 224 m 256
 129.001 144.037 207.712 104.167 286.497 104.167 c 256
 365.431 104.167 444.439 144.187 444.439 224 c 256
 444.439 275.726 417 318 362 318 c 258
 211.439 318 l 258
 156.443 318 129 276.868 129 224 c 256
22 224 m 256
 22 329.377 83.0566 416 205.439 416 c 258
 368 416 l 258
 490.383 416 551.439 329.652 551.439 224 c 256
 551.439 66.501 419.08 -12.249 286.721 -12.249 c 256
 154.36 -12.249 22 66.502 22 224 c 256
47.3887 456.407 m 256
 47.3887 532.137 99.4883 594 186.048 594 c 256
 248.866 594 307.959 556.277 327.585 483 c 256
 328.836 478.329 329.4 473.071 329.4 467.354 c 256
 329.4 425.625 299.332 359.423 286.721 318.437 c 257
 240.221 416 l 258
 241.282 422.242 241.785 428.679 241.785 434.342 c 256
 241.785 481.03 212.959 496 190.221 496 c 256
 155.077 496 140.864 475 140.864 451.164 c 256
 140.864 439.108 147.5 419.561 155.483 410.437 c 257
 78.7744 369.03 l 257
 58.6367 394.649 47.3887 428.149 47.3887 456.407 c 256
EndSplineSet
EndChar

StartChar: si_D.halant
Encoding: 53 -1 53
GlifName: si_D_.halant
Width: 442
VWidth: 0
GlyphClass: 2
Flags: W
LayerCount: 2
Back
Fore
SplineSet
302 634.806 m 257
 317 706 l 257
 322.819 704.738 328.098 704.159 332.872 704.159 c 256
 361.523 704.159 372 724.999 372 749 c 256
 372 789.499 340.367 790.933 326.808 790.933 c 256
 323.788 790.933 321.108 790.603 319 790 c 257
 298 824 l 257
 328 866 l 257
 364 866 448 862 448 749 c 256
 448 673.727 398.227 629 340.676 629 c 256
 328.011 629 314.97 630.915 302 634.806 c 257
235 866 m 257
 328 866 l 257
 328 812 l 257
 321 796 l 257
 321 767 321 735 321 704 c 257
 328 684 l 257
 328 527 l 257
 235 527 l 257
 235 866 l 257
22 217 m 256
 22 330.947 118.68 421.352 239 421.352 c 256
 257.83 421.352 270 420 287.807 418.437 c 257
 288.868 424.679 289.371 430.648 289.371 436.312 c 256
 289.371 473.944 267.142 498 238.615 498 c 256
 209.26 498 193.432 477 193.432 453.164 c 256
 193.432 440.756 196.948 427.391 204.78 418 c 257
 127 379 l 257
 107.69 404.207 99.9561 430.604 99.9561 458.407 c 256
 99.9561 534.137 152.056 596 238.615 596 c 256
 315.605 596 387 539.336 387 430 c 256
 387 398.735 380 357 368 318 c 257
 368 318 287.531 318 239 318 c 256
 183 318 134 274 134 217 c 256
 134 160 180.782 116 239 116 c 256
 274.293 116 305.569 131.386 325.662 155.437 c 257
 412 93.042 l 257
 371.89 36.2998 309.454 0 239 0 c 256
 118.664 0 22 96.6641 22 217 c 256
154.334 -57.9704 m 256
 154.334 -31.6058 161.78 -4.27516 178 21.5381 c 257
 268 44.4365 l 257
 278 4 l 257
 266.925 -8.77351 261.221 -26.319 261.221 -43.2046 c 256
 261.221 -70.996 276.672 -97 309.055 -97 c 256
 333.686 -97 360.509 -85.0557 383 -54.5635 c 257
 460 -106.563 l 257
 414.089 -175.431 359.333 -202.407 309.055 -202.407 c 256
 216.628 -202.407 154.334 -134.23 154.334 -57.9704 c 256
EndSplineSet
EndChar

StartChar: si_DAa
Encoding: 54 -1 54
GlifName: si_D_A_a
Width: 695
VWidth: 0
GlyphClass: 2
Flags: W
LayerCount: 2
Back
Fore
SplineSet
440.359 560.93 m 257
 453.187 563.47 466.511 564.859 480 564.859 c 256
 572.721 564.859 673.2 499.185 673.2 289.93 c 256
 673.2 80.6748 572.721 15 480 15 c 256
 466.511 15 453.187 16.3896 440.359 18.9297 c 257
 458.359 119.93 l 257
 463.085 119.005 467.893 118.501 472.717 118.501 c 256
 514.853 118.501 558.2 156.975 558.2 289.93 c 256
 558.2 422.885 514.853 461.358 472.717 461.358 c 256
 467.893 461.358 463.085 460.854 458.359 459.93 c 257
 440.359 560.93 l 257
154.493 -57.9707 m 256
 154.493 -31.6055 161.938 -4.27539 178.159 21.5381 c 257
 268.159 44.4365 l 257
 278.159 4 l 257
 267.084 -8.77344 261.38 -26.3193 261.38 -43.2051 c 256
 261.38 -70.9961 276.831 -97 309.214 -97 c 256
 333.845 -97 360.668 -85.0557 383.159 -54.5635 c 257
 460.159 -106.563 l 257
 414.248 -175.431 359.492 -202.407 309.214 -202.407 c 256
 216.787 -202.407 154.493 -134.229 154.493 -57.9707 c 256
22.1592 217 m 256
 22.1592 330.947 118.839 421.352 239.159 421.352 c 256
 257.989 421.352 270.159 420 287.966 418.437 c 257
 289.027 424.679 289.53 430.648 289.53 436.312 c 256
 289.53 473.944 267.301 498 238.774 498 c 256
 209.419 498 193.591 477 193.591 453.164 c 256
 193.591 440.756 197.107 427.391 204.939 418 c 257
 127.159 379 l 257
 107.85 404.207 100.115 430.604 100.115 458.407 c 256
 100.115 534.137 152.215 596 238.774 596 c 256
 315.765 596 387.159 539.336 387.159 430 c 256
 387.159 398.735 380.159 357 368.159 318 c 257
 368.159 318 287.69 318 239.159 318 c 256
 183.159 318 134.159 274 134.159 217 c 256
 134.159 160 180.941 116 239.159 116 c 256
 274.452 116 305.729 131.386 325.821 155.437 c 257
 412.159 93.042 l 257
 372.049 36.2998 309.613 0 239.159 0 c 256
 118.823 0 22.1592 96.6641 22.1592 217 c 256
EndSplineSet
EndChar

StartChar: si_DAa.halant
Encoding: 55 -1 55
GlifName: si_D_A_a.halant
Width: 702
VWidth: 0
GlyphClass: 2
Flags: W
LayerCount: 2
Back
Fore
SplineSet
534 634.806 m 257
 549 706 l 257
 554.819 704.738 560.098 704.159 564.872 704.159 c 256
 593.523 704.159 604 724.999 604 749 c 256
 604 789.499 572.368 790.933 558.808 790.933 c 256
 555.788 790.933 553.108 790.603 551 790 c 257
 530 824 l 257
 560 866 l 257
 596 866 680 862 680 749 c 256
 680 673.727 630.227 629 572.676 629 c 256
 560.011 629 546.97 630.915 534 634.806 c 257
477 866 m 257
 560 866 l 257
 560 812 l 257
 553 796 l 257
 553 767 553 735 553 704 c 257
 560 684 l 257
 560 488 l 257
 477 488 l 257
 477 866 l 257
440.359 560.93 m 257
 453.187 563.47 466.511 564.859 480 564.859 c 256
 572.721 564.859 673.2 499.185 673.2 289.93 c 256
 673.2 80.6748 572.721 15 480 15 c 256
 466.511 15 453.187 16.3896 440.359 18.9297 c 257
 458.359 119.93 l 257
 463.085 119.005 467.893 118.501 472.717 118.501 c 256
 514.853 118.501 558.2 156.975 558.2 289.93 c 256
 558.2 422.885 514.853 461.358 472.717 461.358 c 256
 467.893 461.358 463.085 460.854 458.359 459.93 c 257
 440.359 560.93 l 257
21.7656 217 m 256
 21.7656 330.947 118.445 421.352 238.766 421.352 c 256
 257.596 421.352 269.766 420 287.572 418.437 c 257
 288.634 424.679 289.137 430.648 289.137 436.312 c 256
 289.137 473.944 266.907 498 238.381 498 c 256
 209.025 498 193.197 477 193.197 453.164 c 256
 193.197 440.756 196.714 427.391 204.546 418 c 257
 126.766 379 l 257
 107.456 404.207 99.7217 430.604 99.7217 458.407 c 256
 99.7217 534.137 151.821 596 238.381 596 c 256
 315.371 596 386.766 539.336 386.766 430 c 256
 386.766 398.735 379.766 357 367.766 318 c 257
 367.766 318 287.297 318 238.766 318 c 256
 182.766 318 133.766 274 133.766 217 c 256
 133.766 160 180.548 116 238.766 116 c 256
 274.059 116 305.335 131.386 325.428 155.437 c 257
 411.766 93.042 l 257
 371.655 36.2998 309.22 0 238.766 0 c 256
 118.43 0 21.7656 96.6641 21.7656 217 c 256
154.1 -57.9707 m 256
 154.1 -31.6055 161.545 -4.27539 177.766 21.5381 c 257
 267.766 44.4365 l 257
 277.766 4 l 257
 266.69 -8.77344 260.986 -26.3193 260.986 -43.2051 c 256
 260.986 -70.9961 276.438 -97 308.82 -97 c 256
 333.451 -97 360.274 -85.0557 382.766 -54.5635 c 257
 459.766 -106.563 l 257
 413.854 -175.431 359.099 -202.407 308.82 -202.407 c 256
 216.394 -202.407 154.1 -134.229 154.1 -57.9707 c 256
EndSplineSet
EndChar

StartChar: si_DAae
Encoding: 56 -1 56
GlifName: si_D_A_ae
Width: 768
VWidth: 0
GlyphClass: 2
Flags: W
LayerCount: 2
Back
Fore
SplineSet
442 157 m 256
 442 274.719 549.524 356 669 356 c 257
 669 286 l 257
 632 286 542 251 542 157 c 256
 542 124.17 559 104 592 104 c 256
 631 104 650 132.052 650 179 c 257
 746 179 l 257
 746 101 716 0 594 0 c 256
 475 0 442 94 442 157 c 256
456 286 m 257
 456 374 l 257
 691 374 l 257
 691 286 l 257
 456 286 l 257
456 546 m 257
 691 546 l 257
 691 451 l 257
 574 374 l 257
 456 374 l 257
 547 447 l 257
 456 447 l 257
 456 546 l 257
22 217 m 256
 22 330.947 118.68 421.352 239 421.352 c 256
 257.83 421.352 270 420 287.807 418.437 c 257
 288.868 424.679 289.371 430.648 289.371 436.312 c 256
 289.371 473.944 267.142 498 238.615 498 c 256
 209.26 498 193.432 477 193.432 453.164 c 256
 193.432 440.756 196.948 427.391 204.78 418 c 257
 127 379 l 257
 107.69 404.207 99.9561 430.604 99.9561 458.407 c 256
 99.9561 534.137 152.056 596 238.615 596 c 256
 315.605 596 387 539.336 387 430 c 256
 387 398.735 380 357 368 318 c 257
 368 318 287.531 318 239 318 c 256
 183 318 134 274 134 217 c 256
 134 160 180.782 116 239 116 c 256
 274.293 116 305.569 131.386 325.662 155.437 c 257
 412 93.042 l 257
 371.89 36.2998 309.454 0 239 0 c 256
 118.664 0 22 96.6641 22 217 c 256
154.334 -57.9704 m 256
 154.334 -31.6058 161.78 -4.27516 178 21.5381 c 257
 268 44.4365 l 257
 278 4 l 257
 266.925 -8.77351 261.221 -26.319 261.221 -43.2046 c 256
 261.221 -70.996 276.672 -97 309.055 -97 c 256
 333.686 -97 360.509 -85.0557 383 -54.5635 c 257
 460 -106.563 l 257
 414.089 -175.431 359.333 -202.407 309.055 -202.407 c 256
 216.628 -202.407 154.334 -134.23 154.334 -57.9704 c 256
EndSplineSet
EndChar

StartChar: si_DAe
Encoding: 57 -1 57
GlifName: si_D_A_e
Width: 755
VWidth: 0
GlyphClass: 2
Flags: W
LayerCount: 2
Back
Fore
SplineSet
429 167 m 256
 429 268 495 341 573 447 c 257
 537 447 465 447 465 447 c 257
 465 546 l 257
 568 546 645.853 546 700 546 c 257
 700 522 700 491 700 451 c 257
 583 295 537 243 537 167 c 256
 537 125 560 111 585 111 c 256
 608 111 637 123 637 179 c 257
 733 179 l 257
 733 101 703 0 581 0 c 256
 462 0 429 104 429 167 c 256
22 217 m 256
 22 330.947 118.68 421.352 239 421.352 c 256
 257.83 421.352 270 420 287.807 418.437 c 257
 288.868 424.679 289.371 430.648 289.371 436.312 c 256
 289.371 473.944 267.142 498 238.615 498 c 256
 209.26 498 193.432 477 193.432 453.164 c 256
 193.432 440.756 196.948 427.391 204.78 418 c 257
 127 379 l 257
 107.69 404.207 99.9561 430.604 99.9561 458.407 c 256
 99.9561 534.137 152.056 596 238.615 596 c 256
 315.605 596 387 539.336 387 430 c 256
 387 398.735 380 357 368 318 c 257
 368 318 287.531 318 239 318 c 256
 183 318 134 274 134 217 c 256
 134 160 180.782 116 239 116 c 256
 274.293 116 305.569 131.386 325.662 155.437 c 257
 412 93.042 l 257
 371.89 36.2998 309.454 0 239 0 c 256
 118.664 0 22 96.6641 22 217 c 256
154.334 -57.9704 m 256
 154.334 -31.6058 161.78 -4.27516 178 21.5381 c 257
 268 44.4365 l 257
 278 4 l 257
 266.925 -8.77351 261.221 -26.319 261.221 -43.2046 c 256
 261.221 -70.996 276.672 -97 309.055 -97 c 256
 333.686 -97 360.509 -85.0557 383 -54.5635 c 257
 460 -106.563 l 257
 414.089 -175.431 359.333 -202.407 309.055 -202.407 c 256
 216.628 -202.407 154.334 -134.23 154.334 -57.9704 c 256
EndSplineSet
EndChar

StartChar: si_DDdh.halant
Encoding: 58 -1 58
GlifName: si_D_D_dh.halant
Width: 754
VWidth: 0
GlyphClass: 2
Flags: W
LayerCount: 2
Back
Fore
SplineSet
233.825 743.688 m 256
 233.825 811.694 295.039 871 448.59 871 c 256
 612.523 871 702.135 790.408 702.135 701 c 256
 702.135 607 612.915 565 562.263 565 c 257
 529.263 607 l 257
 549.135 648 l 257
 575.263 655 587.135 676.732 587.135 701 c 256
 587.135 733.879 551.153 771 448.59 771 c 256
 364.644 771 340.849 747.772 340.849 724.965 c 256
 340.849 705.182 349.828 697 361.828 682 c 257
 357.828 649 l 257
 274.828 656 l 257
 247.828 680 233.825 713.359 233.825 743.688 c 256
194.674 231.204 m 256
 194.674 277.471 200.885 319.61 208.802 345 c 256
 232.871 422.729 288.253 472 360.352 472 c 256
 388.118 472 417.149 465.063 445.523 445.258 c 257
 407.658 345 l 257
 393.811 352.989 381.141 356.607 369.795 356.607 c 256
 343.012 356.607 323.612 336.442 313.538 306 c 256
 309.106 291.601 305.621 261.724 305.621 229.771 c 256
 305.621 175.234 315.774 114.652 348.712 114.652 c 256
 390.888 114.652 405.894 179.678 405.894 249.5 c 257
 501.805 249.5 l 257
 501.805 176.75 517.272 115 560.263 115 c 256
 617.019 115 617.019 239.958 617.019 293 c 256
 617.019 527 525.34 581 404.828 581 c 256
 367.286 581 315.072 564.031 285.828 538 c 257
 222.828 620 l 257
 290.828 684 369.828 690.976 420.828 690.976 c 256
 610.117 690.976 732.019 587 732.019 293 c 256
 732.019 181.996 731.019 0 560.263 0 c 256
 504.343 0 466.32 33.1445 451.5 79.0303 c 257
 435.354 31.6025 395.942 0 343.263 0 c 256
 226.654 0 194.674 126.225 194.674 231.204 c 256
22 255 m 256
 22 456.801 96.8721 527 188.372 527 c 256
 257.691 527 295.521 470.58 304 430 c 257
 250 369 l 257
 245.212 385.586 231.502 423 193 423 c 256
 158.987 423 128 376.422 128 255 c 256
 128 126.8 151.779 101.844 185 101.844 c 256
 185 -0.15625 l 256
 90 -0.15625 22 41.4199 22 255 c 256
EndSplineSet
EndChar

StartChar: si_DDhI
Encoding: 59 -1 59
GlifName: si_D_D_hI_
Width: 754
VWidth: 0
GlyphClass: 2
Flags: W
LayerCount: 2
Back
Fore
SplineSet
218.416 710 m 256
 218.416 797.305 301.944 871 453.158 871 c 256
 604.372 871 687.03 792.305 687.03 705 c 256
 687.03 611 597.811 569 547.158 569 c 257
 514.158 611 l 257
 534.03 652 l 257
 560.158 659 572.03 680.732 572.03 705 c 256
 572.03 736 541.158 771 453.158 771 c 256
 365.158 771 333.416 741 333.416 710 c 256
 333.416 685.732 351.288 672.87 373.288 672.87 c 256
 381.016 672.87 429.676 675 438.158 675 c 257
 509.158 630.332 l 257
 438.158 560 l 257
 419.158 560 393.288 558 359.158 558 c 256
 308.506 558 218.416 598.971 218.416 710 c 256
194.674 231.204 m 256
 194.674 277.471 200.885 319.61 208.802 345 c 256
 232.871 422.729 288.253 472 360.352 472 c 256
 388.118 472 417.149 465.063 445.523 445.258 c 257
 407.658 345 l 257
 393.811 352.989 381.141 356.607 369.795 356.607 c 256
 343.012 356.607 323.612 336.442 313.538 306 c 256
 309.106 291.601 305.621 261.724 305.621 229.771 c 256
 305.621 175.234 315.774 114.652 348.712 114.652 c 256
 390.888 114.652 405.894 179.678 405.894 249.5 c 257
 501.805 249.5 l 257
 501.805 176.75 517.272 115 560.263 115 c 256
 617.019 115 617.019 241 617.019 293 c 256
 617.019 467 576.158 560 438.158 560 c 257
 438.158 675.115 l 257
 655.158 675.115 732.019 527 732.019 293 c 256
 732.019 181.996 731.019 0 560.263 0 c 256
 504.343 0 466.32 33.1445 451.5 79.0303 c 257
 435.354 31.6025 395.942 0 343.263 0 c 256
 226.654 0 194.674 126.225 194.674 231.204 c 256
22 255 m 256
 22 456.801 96.8721 527 188.372 527 c 256
 257.691 527 295.521 470.58 304 430 c 257
 250 369 l 257
 245.212 385.586 231.502 423 193 423 c 256
 158.987 423 128 376.422 128 255 c 256
 128 126.8 151.779 101.844 185 101.844 c 256
 185 -0.15625 l 256
 90 -0.15625 22 41.4199 22 255 c 256
EndSplineSet
EndChar

StartChar: si_DDhIi
Encoding: 60 -1 60
GlifName: si_D_D_hI_i
Width: 754
VWidth: 0
GlyphClass: 2
Flags: W
LayerCount: 2
Back
Fore
SplineSet
518.506 716.73 m 256
 518.506 694.479 536.139 676.556 558.027 676.556 c 256
 579.916 676.556 597.549 694.479 597.549 716.73 c 256
 597.549 738.98 579.916 756.905 558.027 756.905 c 256
 536.139 756.905 518.506 738.98 518.506 716.73 c 256
427.03 717.115 m 256
 427.03 789.115 485.03 847.115 557.03 847.115 c 256
 629.03 847.115 687.03 789.115 687.03 717.115 c 256
 687.03 645.115 629.03 587.115 557.03 587.115 c 256
 485.03 587.115 427.03 645.115 427.03 717.115 c 256
218.416 710.115 m 256
 218.416 797.42 301.944 871.115 453.158 871.115 c 256
 604.372 871.115 687.03 804.42 687.03 717.115 c 256
 687.03 681.183 672.696 654.163 652.158 634.494 c 256
 618.969 602.708 569.576 590.115 538.286 590.115 c 257
 505.286 632.115 l 257
 546.158 673.115 l 257
 568.875 673.115 597.549 679.115 597.549 716.73 c 256
 597.549 764.115 541.158 771.115 453.158 771.115 c 256
 365.158 771.115 333.416 741.115 333.416 710.115 c 256
 333.416 685.848 351.288 672.985 373.288 672.985 c 256
 381.016 672.985 429.676 675.115 438.158 675.115 c 257
 496.158 630.447 l 257
 438.158 560.115 l 257
 419.158 560.115 393.288 558.115 359.158 558.115 c 256
 308.506 558.115 218.416 599.086 218.416 710.115 c 256
194.674 231.204 m 256
 194.674 277.471 200.885 319.61 208.802 345 c 256
 232.871 422.729 288.253 472 360.352 472 c 256
 388.118 472 417.149 465.063 445.523 445.258 c 257
 407.658 345 l 257
 393.811 352.989 381.141 356.607 369.795 356.607 c 256
 343.012 356.607 323.612 336.442 313.538 306 c 256
 309.106 291.601 305.621 261.724 305.621 229.771 c 256
 305.621 175.234 315.774 114.652 348.712 114.652 c 256
 390.888 114.652 405.894 179.678 405.894 249.5 c 257
 501.805 249.5 l 257
 501.805 176.75 517.272 115 560.263 115 c 256
 617.019 115 617.019 241 617.019 293 c 256
 617.019 467 576.158 560 438.158 560 c 257
 438.158 675.115 l 257
 655.158 675.115 732.019 527 732.019 293 c 256
 732.019 181.996 731.019 0 560.263 0 c 256
 504.343 0 466.32 33.1445 451.5 79.0303 c 257
 435.354 31.6025 395.942 0 343.263 0 c 256
 226.654 0 194.674 126.225 194.674 231.204 c 256
22 255 m 256
 22 456.801 96.8721 527 188.372 527 c 256
 257.691 527 295.521 470.58 304 430 c 257
 250 369 l 257
 245.212 385.586 231.502 423 193 423 c 256
 158.987 423 128 376.422 128 255 c 256
 128 126.8 151.779 101.844 185 101.844 c 256
 185 -0.15625 l 256
 90 -0.15625 22 41.4199 22 255 c 256
EndSplineSet
EndChar

StartChar: si_DDhU
Encoding: 61 -1 61
GlifName: si_D_D_hU_
Width: 754
VWidth: 0
GlyphClass: 2
Flags: W
LayerCount: 2
Back
Fore
SplineSet
233.835 -103.642 m 256
 233.835 -85.6904 236.098 -64.9189 240.863 -41 c 257
 347.008 -53 l 257
 346.372 -58.2256 346.046 -63.0078 346.046 -67.3584 c 256
 346.046 -91.1045 355.754 -102 377.778 -102 c 258
 596.778 -102 l 257
 596.778 -205 l 257
 336.778 -205 l 258
 274.211 -205 233.835 -179.479 233.835 -103.642 c 256
588.778 64 m 257
 624.778 172 l 257
 702.778 225 l 257
 702.778 -205 l 257
 588.778 -205 l 257
 588.778 64 l 257
194.674 231.204 m 256
 194.674 277.471 200.935 319.595 208.802 345 c 256
 232.871 422.729 288.253 472 360.352 472 c 256
 388.118 472 417.149 465.063 445.523 445.258 c 257
 407.658 345 l 257
 393.811 352.989 381.141 356.607 369.795 356.607 c 256
 343.012 356.607 322.971 336.647 313.538 306 c 256
 309.106 291.601 305.621 261.724 305.621 229.771 c 256
 305.621 175.234 315.774 114.652 348.712 114.652 c 256
 390.888 114.652 405.894 179.678 405.894 249.5 c 257
 501.805 249.5 l 257
 501.805 176.75 517.272 115 560.263 115 c 256
 617.019 115 617.019 239.958 617.019 293 c 256
 617.019 522.797 574.019 639.885 436.019 639.885 c 256
 394.915 639.885 347.256 618.96 330.2 576.855 c 257
 221.168 613.029 l 257
 257.152 707.868 349.298 755 436.019 755 c 256
 653.019 755 732.019 599.056 732.019 293 c 256
 732.019 181.996 731.019 0 560.263 0 c 256
 504.343 0 466.32 33.1445 451.5 79.0303 c 257
 435.354 31.6025 395.942 0 343.263 0 c 256
 226.654 0 194.674 126.225 194.674 231.204 c 256
22 255 m 256
 22 456.801 96.8721 527 188.372 527 c 256
 257.691 527 295.521 470.58 304 430 c 257
 250 369 l 257
 245.212 385.586 231.502 423 193 423 c 256
 158.987 423 128 376.422 128 255 c 256
 128 126.8 151.779 101.844 185 101.844 c 256
 185 -0.15625 l 256
 90 -0.15625 22 41.4199 22 255 c 256
EndSplineSet
EndChar

StartChar: si_DDhUu
Encoding: 62 -1 62
GlifName: si_D_D_hU_u
Width: 754
VWidth: 0
GlyphClass: 2
Flags: W
LayerCount: 2
Back
Fore
SplineSet
233.835 -103.642 m 256
 233.835 -85.9404 236.034 -65.499 240.665 -42 c 257
 344.327 -57 l 257
 343.302 -63.2686 342.831 -68.7656 342.831 -73.5605 c 256
 342.831 -94.4297 351.753 -102 362.778 -102 c 256
 403.804 -102 449.778 -59.1631 535.204 -59.1631 c 256
 553.054 -59.1631 574.778 -65 588.778 -74 c 257
 588.778 -205 l 257
 571.778 -169.666 547.556 -157.889 519.667 -157.889 c 256
 463.89 -157.889 393.445 -205 336.778 -205 c 256
 274.211 -205 233.835 -179.479 233.835 -103.642 c 256
588.778 64 m 257
 658.778 173 l 257
 702.778 225 l 257
 702.778 -205 l 257
 588.778 -205 l 257
 588.778 64 l 257
194.674 231.204 m 256
 194.674 277.471 200.935 319.595 208.802 345 c 256
 232.871 422.729 288.253 472 360.352 472 c 256
 388.118 472 417.149 465.063 445.523 445.258 c 257
 407.658 345 l 257
 393.811 352.989 381.141 356.607 369.795 356.607 c 256
 343.012 356.607 322.971 336.647 313.538 306 c 256
 309.106 291.601 305.621 261.724 305.621 229.771 c 256
 305.621 175.234 315.774 114.652 348.712 114.652 c 256
 390.888 114.652 405.894 179.678 405.894 249.5 c 257
 501.805 249.5 l 257
 501.805 176.75 517.272 115 560.263 115 c 256
 617.019 115 617.019 239.958 617.019 293 c 256
 617.019 522.797 574.019 639.885 436.019 639.885 c 256
 394.915 639.885 347.256 618.96 330.2 576.855 c 257
 221.168 613.029 l 257
 257.152 707.868 349.298 755 436.019 755 c 256
 653.019 755 732.019 599.056 732.019 293 c 256
 732.019 181.996 731.019 0 560.263 0 c 256
 504.343 0 466.32 33.1445 451.5 79.0303 c 257
 435.354 31.6025 395.942 0 343.263 0 c 256
 226.654 0 194.674 126.225 194.674 231.204 c 256
22 255 m 256
 22 456.801 96.8721 527 188.372 527 c 256
 257.691 527 295.521 470.58 304 430 c 257
 250 369 l 257
 245.212 385.586 231.502 423 193 423 c 256
 158.987 423 128 376.422 128 255 c 256
 128 126.8 151.779 101.844 185 101.844 c 256
 185 -0.15625 l 256
 90 -0.15625 22 41.4199 22 255 c 256
EndSplineSet
EndChar

StartChar: si_DDha
Encoding: 63 -1 63
GlifName: si_D_D_ha
Width: 754
VWidth: 0
GlyphClass: 2
Flags: W
LayerCount: 2
Back
Fore
SplineSet
194.674 231.204 m 256
 194.674 277.471 200.935 319.595 208.802 345 c 256
 232.871 422.729 288.253 472 360.352 472 c 256
 388.118 472 417.149 465.063 445.523 445.258 c 257
 407.658 345 l 257
 393.811 352.989 381.141 356.607 369.795 356.607 c 256
 343.012 356.607 322.971 336.647 313.538 306 c 256
 309.106 291.601 305.621 261.724 305.621 229.771 c 256
 305.621 175.234 315.774 114.652 348.712 114.652 c 256
 390.888 114.652 405.894 179.678 405.894 249.5 c 257
 501.805 249.5 l 257
 501.805 176.75 517.272 115 560.263 115 c 256
 617.019 115 617.019 239.958 617.019 293 c 256
 617.019 522.797 574.019 639.885 436.019 639.885 c 256
 394.915 639.885 347.256 618.96 330.2 576.855 c 257
 221.168 613.029 l 257
 257.152 707.868 349.298 755 436.019 755 c 256
 653.019 755 732.019 599.056 732.019 293 c 256
 732.019 181.996 731.019 0 560.263 0 c 256
 504.343 0 466.32 33.1445 451.5 79.0303 c 257
 435.354 31.6025 395.942 0 343.263 0 c 256
 226.654 0 194.674 126.225 194.674 231.204 c 256
22 255 m 256
 22 456.801 96.8721 527 188.372 527 c 256
 257.691 527 295.521 470.58 304 430 c 257
 250 369 l 257
 245.212 385.586 231.502 423 193 423 c 256
 158.987 423 128 376.422 128 255 c 256
 128 126.8 151.779 101.844 185 101.844 c 256
 185 -0.15625 l 256
 90 -0.15625 22 41.4199 22 255 c 256
EndSplineSet
EndChar

StartChar: si_DI
Encoding: 64 -1 64
GlifName: si_D_I_
Width: 498
VWidth: 0
GlyphClass: 2
Flags: W
LayerCount: 2
Back
Fore
SplineSet
22 661 m 256
 22 780 133.677 866 260 866 c 256
 386.323 866 498 780 498 661 c 256
 498 598 457 522 386 500 c 257
 308 510 l 257
 315 566 l 257
 371.117 586.49 387 621.883 387 661 c 256
 387 708 337.754 755 260 755 c 256
 182.246 755 133 708 133 661 c 256
 133 621.883 148.883 586.49 205 566 c 257
 212 510 l 257
 124 503 l 257
 61 527 22 598 22 661 c 256
167.334 -57.9707 m 256
 167.334 -31.6055 174.779 -4.27539 191 21.5381 c 257
 281 44.4365 l 257
 291 4 l 257
 279.925 -8.77344 274.221 -26.3193 274.221 -43.2051 c 256
 274.221 -70.9961 289.672 -97 322.055 -97 c 256
 346.686 -97 373.509 -85.0557 396 -54.5635 c 257
 473 -106.563 l 257
 427.089 -175.431 372.333 -202.407 322.055 -202.407 c 256
 229.628 -202.407 167.334 -134.229 167.334 -57.9707 c 256
35 217 m 256
 35 330.947 131.68 421.352 252 421.352 c 256
 270.83 421.352 283 420 300.807 418.437 c 257
 301.868 424.679 302.371 430.648 302.371 436.312 c 256
 302.371 473.944 280.142 498 251.615 498 c 256
 222.26 498 206.432 477 206.432 453.164 c 256
 206.432 440.756 209.948 427.391 217.78 418 c 257
 140 379 l 257
 120.69 404.207 112.956 430.604 112.956 458.407 c 256
 112.956 534.137 165.056 596 251.615 596 c 256
 328.605 596 400 539.336 400 430 c 256
 400 398.735 393 357 381 318 c 257
 381 318 300.531 318 252 318 c 256
 196 318 147 274 147 217 c 256
 147 160 193.782 116 252 116 c 256
 287.293 116 318.569 131.386 338.662 155.437 c 257
 425 93.042 l 257
 384.89 36.2998 322.454 0 252 0 c 256
 131.664 0 35 96.6641 35 217 c 256
EndSplineSet
EndChar

StartChar: si_DIi
Encoding: 65 -1 65
GlifName: si_D_I_i
Width: 498
VWidth: 0
GlyphClass: 2
Flags: W
LayerCount: 2
Back
Fore
SplineSet
316.476 625.615 m 256
 316.476 603.364 334.108 585.44 355.997 585.44 c 256
 377.886 585.44 395.519 603.364 395.519 625.615 c 256
 395.519 647.865 377.886 665.79 355.997 665.79 c 256
 334.108 665.79 316.476 647.865 316.476 625.615 c 256
225 626 m 256
 225 702.333 282.561 737.698 334.2 737.698 c 256
 354.27 737.698 373.446 732.356 388 722 c 257
 406.5 722 485 710.206 485 626 c 256
 485 554 427 496 355 496 c 256
 283 496 225 554 225 626 c 256
22 661 m 256
 22 780 133.677 866 260 866 c 256
 386.323 866 498 780 498 661 c 256
 498 598 463 522 396 503 c 257
 308 510 l 257
 315 559 l 257
 364.087 561.166 400.668 591.991 400.668 624.394 c 256
 400.668 636.878 395.237 649.597 383 661 c 257
 383 719 377.91 762 260 762 c 256
 182.246 762 133 708 133 661 c 256
 133 619 148.882 581 205 559 c 257
 212 510 l 257
 124 503 l 257
 61 527 22 598 22 661 c 256
167.334 -57.9707 m 256
 167.334 -31.6055 174.779 -4.27539 191 21.5381 c 257
 281 44.4365 l 257
 291 4 l 257
 279.925 -8.77344 274.221 -26.3193 274.221 -43.2051 c 256
 274.221 -70.9961 289.672 -97 322.055 -97 c 256
 346.686 -97 373.509 -85.0557 396 -54.5635 c 257
 473 -106.563 l 257
 427.089 -175.431 372.333 -202.407 322.055 -202.407 c 256
 229.628 -202.407 167.334 -134.229 167.334 -57.9707 c 256
35 217 m 256
 35 330.947 131.68 421.352 252 421.352 c 256
 270.83 421.352 283 420 300.807 418.437 c 257
 301.868 424.679 302.371 430.648 302.371 436.312 c 256
 302.371 473.944 280.142 498 251.615 498 c 256
 222.26 498 206.432 477 206.432 453.164 c 256
 206.432 440.756 209.948 427.391 217.78 418 c 257
 140 379 l 257
 120.69 404.207 112.956 430.604 112.956 458.407 c 256
 112.956 534.137 165.056 596 251.615 596 c 256
 328.605 596 400 539.336 400 430 c 256
 400 398.735 393 357 381 318 c 257
 381 318 300.531 318 252 318 c 256
 196 318 147 274 147 217 c 256
 147 160 193.782 116 252 116 c 256
 287.293 116 318.569 131.386 338.662 155.437 c 257
 425 93.042 l 257
 384.89 36.2998 322.454 0 252 0 c 256
 131.664 0 35 96.6641 35 217 c 256
EndSplineSet
EndChar

StartChar: si_DR.halant
Encoding: 66 -1 66
GlifName: si_D_R_.halant
Width: 470
VWidth: 0
GlyphClass: 2
Flags: W
LayerCount: 2
Back
Fore
SplineSet
302 634.806 m 257
 317 706 l 257
 322.819 704.738 328.098 704.159 332.872 704.159 c 256
 361.523 704.159 372 724.999 372 749 c 256
 372 789.499 340.367 790.933 326.808 790.933 c 256
 323.788 790.933 321.108 790.603 319 790 c 257
 298 824 l 257
 328 866 l 257
 364 866 448 862 448 749 c 256
 448 673.727 398.227 629 340.676 629 c 256
 328.011 629 314.97 630.915 302 634.806 c 257
235 866 m 257
 328 866 l 257
 328 812 l 257
 321 796 l 257
 321 767 321 735 321 704 c 257
 328 684 l 257
 328 527 l 257
 235 527 l 257
 235 866 l 257
21.6621 -71 m 256
 136.662 -71 l 256
 136.662 -128 171.174 -165 225.662 -165 c 256
 299.01 -165 325.662 -116.83 325.662 -11 c 256
 325.662 46.0777 325.662 101.985 325.662 155.437 c 257
 428.662 155.437 l 257
 428.662 128 428.662 58 428.662 -11 c 256
 428.662 -205 354.229 -276 225.662 -276 c 256
 117.385 -276 21.6621 -216 21.6621 -71 c 256
22 217 m 256
 22 330.947 118.68 421.352 239 421.352 c 256
 257.83 421.352 270 420 287.807 418.437 c 257
 288.868 424.679 289.371 430.648 289.371 436.312 c 256
 289.371 473.944 267.142 498 238.615 498 c 256
 209.26 498 193.432 477 193.432 453.164 c 256
 193.432 440.756 196.948 427.391 204.78 418 c 257
 127 379 l 257
 107.69 404.207 99.9561 430.604 99.9561 458.407 c 256
 99.9561 534.137 152.056 596 238.615 596 c 256
 315.605 596 387 539.336 387 430 c 256
 387 398.735 380 357 368 318 c 257
 368 318 287.531 318 239 318 c 256
 183 318 134 274 134 217 c 256
 134 160 180.782 116 239 116 c 256
 274.293 116 305.569 131.386 325.662 155.437 c 257
 412 93.042 l 257
 371.89 36.2998 309.454 0 239 0 c 256
 118.664 0 22 96.6641 22 217 c 256
EndSplineSet
EndChar

StartChar: si_DRI
Encoding: 67 -1 67
GlifName: si_D_R_I_
Width: 498
VWidth: 0
GlyphClass: 2
Flags: W
LayerCount: 2
Back
Fore
SplineSet
22 661 m 256
 22 780 133.677 866 260 866 c 256
 386.323 866 498 780 498 661 c 256
 498 598 457 522 386 500 c 257
 308 510 l 257
 315 566 l 257
 371.117 586.49 387 621.883 387 661 c 256
 387 708 337.754 755 260 755 c 256
 182.246 755 133 708 133 661 c 256
 133 621.883 148.883 586.49 205 566 c 257
 212 510 l 257
 124 503 l 257
 61 527 22 598 22 661 c 256
34.6621 -71 m 256
 149.662 -71 l 256
 149.662 -128 184.174 -165 238.662 -165 c 256
 312.011 -165 338.662 -116.83 338.662 -11 c 256
 338.662 46.0781 338.662 101.984 338.662 155.437 c 257
 441.662 155.437 l 257
 441.662 122.725 441.662 58 441.662 -43 c 256
 441.662 -205 367.229 -276 238.662 -276 c 256
 130.385 -276 34.6621 -216 34.6621 -71 c 256
35 217 m 256
 35 330.947 131.68 421.352 252 421.352 c 256
 270.83 421.352 283 420 300.807 418.437 c 257
 301.868 424.679 302.371 430.648 302.371 436.312 c 256
 302.371 473.944 280.142 498 251.615 498 c 256
 222.26 498 206.432 477 206.432 453.164 c 256
 206.432 440.756 209.948 427.391 217.78 418 c 257
 140 379 l 257
 120.69 404.207 112.956 430.604 112.956 458.407 c 256
 112.956 534.137 165.056 596 251.615 596 c 256
 328.605 596 400 539.336 400 430 c 256
 400 398.735 393 357 381 318 c 257
 381 318 300.531 318 252 318 c 256
 196 318 147 274 147 217 c 256
 147 160 193.782 116 252 116 c 256
 287.293 116 318.569 131.386 338.662 155.437 c 257
 425 93.042 l 257
 384.89 36.2998 322.454 0 252 0 c 256
 131.664 0 35 96.6641 35 217 c 256
EndSplineSet
EndChar

StartChar: si_DRIi
Encoding: 68 -1 68
GlifName: si_D_R_I_i
Width: 498
VWidth: 0
GlyphClass: 2
Flags: W
LayerCount: 2
Back
Fore
SplineSet
316.476 625.615 m 256
 316.476 603.364 334.108 585.44 355.997 585.44 c 256
 377.886 585.44 395.519 603.364 395.519 625.615 c 256
 395.519 647.865 377.886 665.79 355.997 665.79 c 256
 334.108 665.79 316.476 647.865 316.476 625.615 c 256
225 626 m 256
 225 702.333 282.562 737.698 334.2 737.698 c 256
 354.271 737.698 373.446 732.355 388 722 c 257
 406.5 722 485 710.206 485 626 c 256
 485 554 427 496 355 496 c 256
 283 496 225 554 225 626 c 256
22 661 m 256
 22 780 133.677 866 260 866 c 256
 386.323 866 498 780 498 661 c 256
 498 598 463 522 396 503 c 257
 308 510 l 257
 315 559 l 257
 364.087 561.166 400.668 591.991 400.668 624.394 c 256
 400.668 636.878 395.237 649.597 383 661 c 257
 383 719 377.91 762 260 762 c 256
 182.246 762 133 708 133 661 c 256
 133 619 148.883 581 205 559 c 257
 212 510 l 257
 124 503 l 257
 61 527 22 598 22 661 c 256
34.6621 -71 m 256
 149.662 -71 l 256
 149.662 -128 184.174 -165 238.662 -165 c 256
 312.011 -165 338.662 -116.83 338.662 -11 c 256
 338.662 46.0781 338.662 101.984 338.662 155.437 c 257
 441.662 155.437 l 257
 441.662 122.725 441.662 58 441.662 -43 c 256
 441.662 -205 367.229 -276 238.662 -276 c 256
 130.385 -276 34.6621 -216 34.6621 -71 c 256
35 217 m 256
 35 330.947 131.68 421.352 252 421.352 c 256
 270.83 421.352 283 420 300.807 418.437 c 257
 301.868 424.679 302.371 430.648 302.371 436.312 c 256
 302.371 473.944 280.142 498 251.615 498 c 256
 222.26 498 206.432 477 206.432 453.164 c 256
 206.432 440.756 209.948 427.391 217.78 418 c 257
 140 379 l 257
 120.69 404.207 112.956 430.604 112.956 458.407 c 256
 112.956 534.137 165.056 596 251.615 596 c 256
 328.605 596 400 539.336 400 430 c 256
 400 398.735 393 357 381 318 c 257
 381 318 300.531 318 252 318 c 256
 196 318 147 274 147 217 c 256
 147 160 193.782 116 252 116 c 256
 287.293 116 318.569 131.386 338.662 155.437 c 257
 425 93.042 l 257
 384.89 36.2998 322.454 0 252 0 c 256
 131.664 0 35 96.6641 35 217 c 256
EndSplineSet
EndChar

StartChar: si_DRa
Encoding: 69 -1 69
GlifName: si_D_R_a
Width: 451
VWidth: 0
GlyphClass: 2
Flags: W
LayerCount: 2
Back
Fore
SplineSet
22 -71 m 256
 137 -71 l 256
 137 -128 171.512 -165 226 -165 c 256
 299.349 -165 326 -116.83 326 -11 c 256
 326 46.0781 326 101.984 326 155.437 c 257
 429 155.437 l 257
 429 122.725 429 58 429 -43 c 256
 429 -205 354.566 -276 226 -276 c 256
 117.723 -276 22 -216 22 -71 c 256
22.3379 217 m 256
 22.3379 330.947 119.018 421.352 239.338 421.352 c 256
 258.168 421.352 270.338 420 288.145 418.437 c 257
 289.206 424.679 289.709 430.648 289.709 436.312 c 256
 289.709 473.944 267.479 498 238.953 498 c 256
 209.598 498 193.77 477 193.77 453.164 c 256
 193.77 440.756 197.286 427.391 205.118 418 c 257
 127.338 379 l 257
 108.028 404.207 100.294 430.604 100.294 458.407 c 256
 100.294 534.137 152.394 596 238.953 596 c 256
 315.943 596 387.338 539.336 387.338 430 c 256
 387.338 398.735 380.338 357 368.338 318 c 257
 368.338 318 287.869 318 239.338 318 c 256
 183.338 318 134.338 274 134.338 217 c 256
 134.338 160 181.12 116 239.338 116 c 256
 274.631 116 305.907 131.386 326 155.437 c 257
 412.338 93.042 l 257
 372.228 36.2998 309.792 0 239.338 0 c 256
 119.002 0 22.3379 96.6641 22.3379 217 c 256
EndSplineSet
EndChar

StartChar: si_DU
Encoding: 70 -1 70
GlifName: si_D_U_
Width: 434
VWidth: 0
GlyphClass: 2
Flags: W
LayerCount: 2
Back
Fore
SplineSet
13.0566 -103.642 m 256
 13.0566 -85.69 15.319 -64.9191 20.085 -41 c 257
 126.229 -53 l 257
 125.594 -58.2255 125.268 -63.0077 125.268 -67.3584 c 256
 125.268 -91.1049 134.976 -102 157 -102 c 258
 376 -102 l 257
 376 -205 l 257
 116 -205 l 258
 53.4321 -205 13.0566 -179.479 13.0566 -103.642 c 256
298 65 m 257
 325.662 155.437 l 257
 412 156 l 257
 412 -205 l 257
 298 -205 l 257
 298 65 l 257
22 217 m 256
 22 330.947 118.684 421.352 239 421.352 c 257
 257.835 421.352 270 420 287.807 418.437 c 257
 288.868 424.679 289.371 430.648 289.371 436.312 c 256
 289.371 473.944 267.142 498 238.615 498 c 256
 209.26 498 193.432 477 193.432 453.164 c 256
 193.432 441.108 197.017 428.124 205 419 c 257
 127 379 l 257
 107.69 404.207 99.9561 430.604 99.9561 458.407 c 256
 99.9561 534.137 152.056 596 238.615 596 c 256
 315.605 596 387 539.336 387 430 c 256
 387 398.735 380 357 368 318 c 257
 368 318 287.531 318 239 318 c 256
 180.782 318 134 273 134 217 c 256
 134 161 180.782 116 239 116 c 256
 274.293 116 305.569 131.386 325.662 155.437 c 257
 412 93.042 l 257
 371.89 36.2998 309.454 0 239 0 c 256
 118.664 0 22 96.6641 22 217 c 256
EndSplineSet
EndChar

StartChar: si_DUu
Encoding: 71 -1 71
GlifName: si_D_U_u
Width: 434
VWidth: 0
GlyphClass: 2
Flags: W
LayerCount: 2
Back
Fore
SplineSet
1.16992 -102.642 m 256
 1.16992 -84.9406 3.36954 -64.4985 8 -41 c 257
 111.662 -56 l 257
 110.637 -62.2685 110.166 -67.7656 110.166 -72.5605 c 256
 110.166 -93.4295 119.088 -101 130.113 -101 c 256
 157.448 -101 188.081 -74 245 -74 c 256
 262.482 -74 281.57 -78.4348 298 -91 c 257
 298 -205 l 257
 281.879 -176.294 258.91 -166.726 232.463 -166.726 c 256
 193.319 -166.726 143.881 -204 104.113 -204 c 256
 41.5454 -204 1.16992 -178.479 1.16992 -102.642 c 256
298 65 m 257
 325.662 155.437 l 257
 412 156 l 257
 412 -205 l 257
 298 -205 l 257
 298 65 l 257
22 217 m 256
 22 330.947 118.684 421.352 239 421.352 c 257
 257.835 421.352 270 420 287.807 418.437 c 257
 288.868 424.679 289.371 430.648 289.371 436.312 c 256
 289.371 473.944 267.142 498 238.615 498 c 256
 209.26 498 193.432 477 193.432 453.164 c 256
 193.432 441.108 197.017 428.124 205 419 c 257
 127 379 l 257
 107.69 404.207 99.9561 430.604 99.9561 458.407 c 256
 99.9561 534.137 152.056 596 238.615 596 c 256
 315.605 596 387 539.336 387 430 c 256
 387 398.735 380 357 368 318 c 257
 368 318 287.531 318 239 318 c 256
 180.782 318 134 273 134 217 c 256
 134 161 180.782 116 239 116 c 256
 274.293 116 305.569 131.386 325.662 155.437 c 257
 412 93.042 l 257
 371.89 36.2998 309.454 0 239 0 c 256
 118.664 0 22 96.6641 22 217 c 256
EndSplineSet
EndChar

StartChar: si_DV.halant
Encoding: 72 -1 72
GlifName: si_D_V_.halant
Width: 708
VWidth: 0
GlyphClass: 2
Flags: W
LayerCount: 2
Back
Fore
SplineSet
221.235 743.688 m 256
 221.235 811.694 282.449 871 436 871 c 256
 587.214 871 669.872 792.305 669.872 705 c 256
 669.872 611 580.652 569 530 569 c 257
 497 611 l 257
 516.872 652 l 257
 543 659 554.872 680.732 554.872 705 c 256
 554.872 736 524 771 436 771 c 256
 352.054 771 328.259 747.772 328.259 724.965 c 256
 328.259 705.182 337.238 697 349.238 682 c 257
 345.238 649 l 257
 262.238 656 l 257
 235.238 680 221.235 713.359 221.235 743.688 c 256
686 354 m 256
 686 118 605 0 425 0 c 256
 247 0 194.812 137 194.812 218.826 c 256
 194.812 279.354 214.71 335.661 245.189 362 c 256
 266.209 380.164 294.286 391 330.888 391 c 256
 337.888 391 411.53 391 425 391 c 257
 454 363 498.944 306 498.944 306 c 257
 474.937 306 373.888 306 373.888 306 c 258
 317.888 306 305.487 270.602 305.487 226.602 c 256
 305.487 174 332.08 115 425 115 c 256
 529.452 115 571 195.018 571 354 c 256
 571 488.968 512.75 581 392.238 581 c 256
 354.696 581 302.482 564.031 273.238 538 c 257
 210.238 620 l 257
 278.238 684 357.238 690.976 408.238 690.976 c 256
 597.527 690.976 686 554.675 686 354 c 256
234.536 409.272 m 256
 234.536 481.535 283.507 531.563 357.809 531.563 c 256
 434.795 531.563 506.193 474.899 506.193 365.563 c 256
 506.193 351 503 325 498.944 306 c 257
 408.564 371.875 l 257
 409.505 376.782 409.979 381.771 409.979 386.714 c 256
 409.979 416.144 393.166 444 357.809 444 c 256
 333.009 444 324.017 426.134 324.017 404.787 c 256
 324.017 386.793 336.302 370.325 345 356 c 257
 265 318.563 l 257
 245 351 234.536 380.62 234.536 409.272 c 256
22 255 m 256
 22 456.801 96.8721 527 188.372 527 c 256
 257.691 527 295.521 470.58 304 430 c 257
 250 369 l 257
 245.212 385.586 231.502 423 193 423 c 256
 158.987 423 128 376.422 128 255 c 256
 128 126.8 151.779 101.844 185 101.844 c 256
 185 -0.15625 l 256
 90 -0.15625 22 41.4199 22 255 c 256
EndSplineSet
EndChar

StartChar: si_DVI
Encoding: 73 -1 73
GlifName: si_D_V_I_
Width: 708
VWidth: 0
GlyphClass: 2
Flags: W
LayerCount: 2
Back
Fore
SplineSet
201.258 710 m 256
 201.258 797.305 284.786 871 436 871 c 256
 587.214 871 669.872 792.305 669.872 705 c 256
 669.872 611 580.652 569 530 569 c 257
 497 611 l 257
 516.872 652 l 257
 543 659 554.872 680.732 554.872 705 c 256
 554.872 736 524 771 436 771 c 256
 348 771 316.258 741 316.258 710 c 256
 316.258 685.732 334.13 672.87 356.13 672.87 c 256
 363.857 672.87 412.518 675 421 675 c 257
 492 630.332 l 257
 421 560 l 257
 402 560 376.13 558 342 558 c 256
 291.348 558 201.258 598.971 201.258 710 c 256
194.812 218.826 m 256
 194.812 279.354 214.71 335.661 245.189 362 c 256
 266.209 380.164 294.286 391 330.888 391 c 256
 337.888 391 411.53 391 425 391 c 257
 454 363 498.944 306 498.944 306 c 257
 474.937 306 373.888 306 373.888 306 c 258
 317.888 306 305.487 270.602 305.487 226.602 c 256
 305.487 174 332.08 115 425 115 c 256
 529.452 115 571 195.018 571 354 c 256
 571 480 531 560 421 560 c 257
 421 675 l 257
 615.333 675 686 551.029 686 354 c 256
 686 118 605 0 425 0 c 256
 247 0 194.812 137 194.812 218.826 c 256
234.536 409.272 m 256
 234.536 481.535 283.507 531.563 357.809 531.563 c 256
 434.795 531.563 506.193 474.899 506.193 365.563 c 256
 506.193 351 503 325 498.944 306 c 257
 408.564 371.875 l 257
 409.505 376.782 409.979 381.771 409.979 386.714 c 256
 409.979 416.144 393.166 444 357.809 444 c 256
 333.009 444 324.017 426.134 324.017 404.787 c 256
 324.017 386.793 336.302 370.325 345 356 c 257
 265 318.563 l 257
 245 351 234.536 380.62 234.536 409.272 c 256
22 255 m 256
 22 456.801 96.8721 527 188.372 527 c 256
 257.691 527 295.521 470.58 304 430 c 257
 250 369 l 257
 245.212 385.586 231.502 423 193 423 c 256
 158.987 423 128 376.422 128 255 c 256
 128 126.8 151.779 101.844 185 101.844 c 256
 185 -0.15625 l 256
 90 -0.15625 22 41.4199 22 255 c 256
EndSplineSet
EndChar

StartChar: si_DVIi
Encoding: 74 -1 74
GlifName: si_D_V_I_i
Width: 708
VWidth: 0
GlyphClass: 2
Flags: W
LayerCount: 2
Back
Fore
SplineSet
501.348 716.615 m 256
 501.348 694.364 518.98 676.44 540.869 676.44 c 256
 562.758 676.44 580.391 694.364 580.391 716.615 c 256
 580.391 738.865 562.758 756.79 540.869 756.79 c 256
 518.98 756.79 501.348 738.865 501.348 716.615 c 256
409.872 717 m 256
 409.872 789 467.872 847 539.872 847 c 256
 611.872 847 669.872 789 669.872 717 c 256
 669.872 645 611.872 587 539.872 587 c 256
 467.872 587 409.872 645 409.872 717 c 256
201.258 710 m 256
 201.258 797.305 284.786 871 436 871 c 256
 587.214 871 669.872 804.305 669.872 717 c 256
 669.872 681.067 655.538 654.048 635 634.379 c 256
 601.811 602.593 552.418 590 521.128 590 c 257
 488.128 632 l 257
 529 673 l 257
 551.717 673 580.391 679 580.391 716.615 c 256
 580.391 764 524 771 436 771 c 256
 348 771 316.258 741 316.258 710 c 256
 316.258 685.732 334.13 672.87 356.13 672.87 c 256
 363.857 672.87 412.518 675 421 675 c 257
 479 630.332 l 257
 421 560 l 257
 402 560 376.13 558 342 558 c 256
 291.348 558 201.258 598.971 201.258 710 c 256
194.812 218.826 m 256
 194.812 279.354 214.71 335.661 245.189 362 c 256
 266.209 380.164 294.286 391 330.888 391 c 256
 337.888 391 411.53 391 425 391 c 257
 454 363 498.944 306 498.944 306 c 257
 474.937 306 373.888 306 373.888 306 c 258
 317.888 306 305.487 270.602 305.487 226.602 c 256
 305.487 174 332.08 115 425 115 c 256
 529.452 115 571 195.018 571 354 c 256
 571 480 531 560 421 560 c 257
 421 675 l 257
 615.333 675 686 551.029 686 354 c 256
 686 118 605 0 425 0 c 256
 247 0 194.812 137 194.812 218.826 c 256
234.348 409.272 m 256
 234.348 481.535 283.318 531.563 357.62 531.563 c 256
 434.606 531.563 506.005 474.899 506.005 365.563 c 256
 506.005 351 502.812 325 498.756 306 c 257
 408.376 371.875 l 257
 409.316 376.782 409.791 381.771 409.791 386.714 c 256
 409.791 416.144 392.978 444 357.62 444 c 256
 332.82 444 323.828 426.134 323.828 404.787 c 256
 323.828 386.793 336.113 370.325 344.812 356 c 257
 264.812 318.563 l 257
 244.812 351 234.348 380.62 234.348 409.272 c 256
22 255 m 256
 22 456.801 96.8721 527 188.372 527 c 256
 257.691 527 295.521 470.58 304 430 c 257
 250 369 l 257
 245.212 385.586 231.502 423 193 423 c 256
 158.987 423 128 376.422 128 255 c 256
 128 126.8 151.779 101.844 185 101.844 c 256
 185 -0.15625 l 256
 90 -0.15625 22 41.4199 22 255 c 256
EndSplineSet
EndChar

StartChar: si_DVU
Encoding: 75 -1 75
GlifName: si_D_V_U_
Width: 709
VWidth: 0
GlyphClass: 2
Flags: W
LayerCount: 2
Back
Fore
SplineSet
194.911 -103.642 m 256
 194.911 -85.6904 197.174 -64.9189 201.939 -41 c 257
 308.084 -53 l 257
 307.448 -58.2256 307.122 -63.0078 307.122 -67.3584 c 256
 307.122 -91.1045 316.83 -102 338.854 -102 c 258
 557.854 -102 l 257
 557.854 -205 l 257
 297.854 -205 l 258
 235.287 -205 194.911 -179.479 194.911 -103.642 c 256
549.854 64 m 257
 585.854 172 l 257
 663.854 225 l 257
 663.854 -205 l 257
 549.854 -205 l 257
 549.854 64 l 257
194.812 218.826 m 256
 194.812 279.354 214.71 335.661 245.189 362 c 256
 266.209 380.164 294.286 391 330.888 391 c 256
 337.888 391 411.53 391 425 391 c 257
 454 363 498.944 306 498.944 306 c 257
 498.944 306 373.888 306 373.888 306 c 258
 317.888 306 305.487 270.602 305.487 226.602 c 256
 305.487 174 332.08 115 425 115 c 256
 529.452 115 571 195.018 571 354 c 256
 571 583 499.68 640 416.854 640 c 256
 375.751 640 335.666 618.96 318.61 576.855 c 257
 209.578 613.029 l 257
 245.562 707.868 330.134 755 416.854 755 c 256
 556.326 755 687 675.859 687 354 c 256
 686 118 605 0 425 0 c 256
 247 0 194.812 137 194.812 218.826 c 256
234.536 409.272 m 256
 234.536 481.535 283.507 531.563 357.809 531.563 c 256
 434.795 531.563 506.193 474.899 506.193 365.563 c 256
 506.193 351 503 325 498.944 306 c 257
 408.564 371.875 l 257
 409.505 376.782 409.979 381.771 409.979 386.714 c 256
 409.979 416.144 393.166 444 357.809 444 c 256
 333.009 444 324.017 426.134 324.017 404.787 c 256
 324.017 386.793 336.302 370.325 345 356 c 257
 265 318.563 l 257
 245 351 234.536 380.62 234.536 409.272 c 256
22 255 m 256
 22 456.801 96.8721 527 188.372 527 c 256
 257.691 527 295.521 470.58 304 430 c 257
 250 369 l 257
 245.212 385.586 231.502 423 193 423 c 256
 158.987 423 128 376.422 128 255 c 256
 128 126.8 151.779 101.844 185 101.844 c 256
 185 -0.15625 l 256
 90 -0.15625 22 41.4199 22 255 c 256
EndSplineSet
EndChar

StartChar: si_DVUu
Encoding: 76 -1 76
GlifName: si_D_V_U_u
Width: 709
VWidth: 0
GlyphClass: 2
Flags: W
LayerCount: 2
Back
Fore
SplineSet
194.911 -103.642 m 256
 194.911 -85.9404 197.11 -65.499 201.741 -42 c 257
 305.403 -57 l 257
 304.378 -63.2686 303.907 -68.7656 303.907 -73.5605 c 256
 303.907 -94.4297 312.829 -102 323.854 -102 c 256
 364.88 -102 410.854 -59.1631 496.28 -59.1631 c 256
 514.13 -59.1631 535.854 -65 549.854 -74 c 257
 549.854 -205 l 257
 532.854 -169.666 508.632 -157.889 480.743 -157.889 c 256
 424.966 -157.889 354.521 -205 297.854 -205 c 256
 235.287 -205 194.911 -179.479 194.911 -103.642 c 256
549.854 64 m 257
 619.854 173 l 257
 663.854 225 l 257
 663.854 -205 l 257
 549.854 -205 l 257
 549.854 64 l 257
194.812 218.826 m 256
 194.812 279.354 214.71 335.661 245.189 362 c 256
 266.209 380.164 294.286 391 330.888 391 c 256
 337.888 391 411.53 391 425 391 c 257
 454 363 498.944 306 498.944 306 c 257
 498.944 306 373.888 306 373.888 306 c 258
 317.888 306 305.487 270.602 305.487 226.602 c 256
 305.487 174 332.08 115 425 115 c 256
 529.452 115 571 195.018 571 354 c 256
 571 583 499.68 640 416.854 640 c 256
 375.751 640 335.666 618.96 318.61 576.855 c 257
 209.578 613.029 l 257
 245.562 707.868 330.134 755 416.854 755 c 256
 556.326 755 687 675.859 687 354 c 256
 686 118 605 0 425 0 c 256
 247 0 194.812 137 194.812 218.826 c 256
234.536 409.272 m 256
 234.536 481.535 283.507 531.563 357.809 531.563 c 256
 434.795 531.563 506.193 474.899 506.193 365.563 c 256
 506.193 351 503 325 498.944 306 c 257
 408.564 371.875 l 257
 409.505 376.782 409.979 381.771 409.979 386.714 c 256
 409.979 416.144 393.166 444 357.809 444 c 256
 333.009 444 324.017 426.134 324.017 404.787 c 256
 324.017 386.793 336.302 370.325 345 356 c 257
 265 318.563 l 257
 245 351 234.536 380.62 234.536 409.272 c 256
22 255 m 256
 22 456.801 96.8721 527 188.372 527 c 256
 257.691 527 295.521 470.58 304 430 c 257
 250 369 l 257
 245.212 385.586 231.502 423 193 423 c 256
 158.987 423 128 376.422 128 255 c 256
 128 126.8 151.779 101.844 185 101.844 c 256
 185 -0.15625 l 256
 90 -0.15625 22 41.4199 22 255 c 256
EndSplineSet
EndChar

StartChar: si_DVa
Encoding: 77 -1 77
GlifName: si_D_V_a
Width: 709
VWidth: 0
GlyphClass: 2
Flags: W
LayerCount: 2
Back
Fore
SplineSet
194.812 218.826 m 256
 194.812 279.354 214.71 335.661 245.189 362 c 256
 266.209 380.164 294.286 391 330.888 391 c 256
 337.888 391 411.53 391 425 391 c 257
 454 363 498.944 306 498.944 306 c 257
 498.944 306 373.888 306 373.888 306 c 258
 317.888 306 305.487 270.602 305.487 226.602 c 256
 305.487 174 332.08 115 425 115 c 256
 529.452 115 571 195.018 571 354 c 256
 571 583 499.68 640 416.854 640 c 256
 375.751 640 335.666 618.96 318.61 576.855 c 257
 209.578 613.029 l 257
 245.562 707.868 330.134 755 416.854 755 c 256
 556.326 755 687 675.859 687 354 c 256
 686 118 605 0 425 0 c 256
 247 0 194.812 137 194.812 218.826 c 256
234.536 409.272 m 256
 234.536 481.535 283.507 531.563 357.809 531.563 c 256
 434.795 531.563 506.193 474.899 506.193 365.563 c 256
 506.193 351 503 325 498.944 306 c 257
 408.564 371.875 l 257
 409.505 376.782 409.979 381.771 409.979 386.714 c 256
 409.979 416.144 393.166 444 357.809 444 c 256
 333.009 444 324.017 426.134 324.017 404.787 c 256
 324.017 386.793 336.302 370.325 345 356 c 257
 265 318.563 l 257
 245 351 234.536 380.62 234.536 409.272 c 256
22 255 m 256
 22 456.801 96.8721 527 188.372 527 c 256
 257.691 527 295.521 470.58 304 430 c 257
 250 369 l 257
 245.212 385.586 231.502 423 193 423 c 256
 158.987 423 128 376.422 128 255 c 256
 128 126.8 151.779 101.844 185 101.844 c 256
 185 -0.15625 l 256
 90 -0.15625 22 41.4199 22 255 c 256
EndSplineSet
EndChar

StartChar: si_DYAa.post
Encoding: 78 -1 78
GlifName: si_D_Y_A_a.post
Width: 1181
VWidth: 0
GlyphClass: 2
Flags: W
LayerCount: 2
Back
Fore
SplineSet
927.359 560.93 m 257
 940.187 563.47 953.511 564.859 967 564.859 c 256
 1059.72 564.859 1160.2 499.185 1160.2 289.93 c 256
 1160.2 80.6748 1059.72 15 967 15 c 256
 953.511 15 940.187 16.3896 927.359 18.9297 c 257
 945.359 119.93 l 257
 950.085 119.005 954.893 118.501 959.717 118.501 c 256
 1001.85 118.501 1045.2 156.975 1045.2 289.93 c 256
 1045.2 422.885 1001.85 461.358 959.717 461.358 c 256
 954.893 461.358 950.085 460.854 945.359 459.93 c 257
 927.359 560.93 l 257
504.8 102 m 257
 586.8 131 l 257
 593.467 132.186 599.826 132.69 605.998 132.69 c 256
 641.489 132.69 670.8 116 716.8 116 c 256
 774.055 116 800.8 157.436 800.8 209 c 256
 800.8 256.129 778.8 294 719.8 294 c 256
 671.269 294 632.022 294 632.022 294 c 257
 620.022 333 613.022 374.735 613.022 406 c 256
 613.022 515.336 684.421 572 761.407 572 c 256
 845.386 572 901.48 507.459 901.48 437.467 c 256
 901.48 404 885.8 369 864.8 347 c 257
 786.8 387 l 257
 796.8 397 806.999 411 806.999 428.841 c 256
 806.999 452.279 791.213 474 761.407 474 c 256
 732.881 474 710.651 449.944 710.651 412.312 c 256
 710.651 406.648 711.154 400.679 712.216 394.437 c 257
 730.022 396 726.965 397.352 745.8 397.352 c 257
 812.8 397.352 916.8 364.768 916.8 209 c 256
 916.8 93.1006 836.02 0 716.8 0 c 256
 666.133 0 628.355 21.333 598.133 21.333 c 256
 583.021 21.333 569.8 16 557.8 0 c 257
 504.8 102 l 257
447.8 422 m 257
 447.8 549.216 509.512 576.322 566.463 576.322 c 256
 604.867 576.322 641.106 558.54 654.8 538 c 257
 684.727 509.062 710.8 458.22 710.8 409.314 c 256
 710.8 292.697 557.8 161.734 557.8 0 c 257
 447.8 0 l 257
 447.8 166.798 599.254 318.962 599.254 418.316 c 256
 599.254 449 591.8 473.421 569.8 473.421 c 256
 552.917 473.421 539.8 464.5 539.8 422 c 257
 447.8 422 l 257
21.7998 217 m 256
 21.7998 330.947 118.479 421.352 238.8 421.352 c 256
 257.63 421.352 269.8 420 287.606 418.437 c 257
 288.668 424.679 289.171 430.648 289.171 436.312 c 256
 289.171 473.944 266.941 498 238.415 498 c 256
 209.06 498 193.231 477 193.231 453.164 c 256
 193.231 440.756 196.748 427.391 204.58 418 c 257
 126.8 379 l 257
 107.49 404.207 99.7559 430.604 99.7559 458.407 c 256
 99.7559 534.137 151.855 596 238.415 596 c 256
 315.405 596 386.8 539.336 386.8 430 c 256
 386.8 398.735 379.8 357 367.8 318 c 257
 367.8 318 287.331 318 238.8 318 c 256
 182.8 318 133.8 274 133.8 217 c 256
 133.8 160 180.582 116 238.8 116 c 256
 274.093 116 305.369 131.386 325.462 155.437 c 257
 411.8 93.042 l 257
 371.689 36.2998 309.254 0 238.8 0 c 256
 118.464 0 21.7998 96.6641 21.7998 217 c 256
154.134 -57.9707 m 256
 154.134 -31.6055 161.579 -4.27539 177.8 21.5381 c 257
 267.8 44.4365 l 257
 277.8 4 l 257
 266.725 -8.77344 261.021 -26.3193 261.021 -43.2051 c 256
 261.021 -70.9961 276.472 -97 308.854 -97 c 256
 333.485 -97 360.309 -85.0557 382.8 -54.5635 c 257
 459.8 -106.563 l 257
 413.889 -175.431 359.133 -202.407 308.854 -202.407 c 256
 216.428 -202.407 154.134 -134.229 154.134 -57.9707 c 256
EndSplineSet
EndChar

StartChar: si_DYOo.post
Encoding: 79 -1 79
GlifName: si_D_Y_O_o.post
Width: 1189
VWidth: 0
GlyphClass: 2
Flags: W
LayerCount: 2
Back
Fore
SplineSet
1021 634.806 m 257
 1036 706 l 257
 1041.82 704.738 1047.1 704.159 1051.87 704.159 c 256
 1080.52 704.159 1091 724.999 1091 749 c 256
 1091 789.499 1059.37 790.933 1045.81 790.933 c 256
 1042.79 790.933 1040.11 790.603 1038 790 c 257
 1017 824 l 257
 1047 866 l 257
 1083 866 1167 862 1167 749 c 256
 1167 673.727 1117.23 629 1059.68 629 c 256
 1047.01 629 1033.97 630.915 1021 634.806 c 257
964 866 m 257
 1047 866 l 257
 1047 812 l 257
 1040 796 l 257
 1040 767 1040 735 1040 704 c 257
 1047 684 l 257
 1047 488 l 257
 964 488 l 257
 964 866 l 257
927.359 560.93 m 257
 940.187 563.47 953.511 564.859 967 564.859 c 256
 1059.72 564.859 1160.2 499.185 1160.2 289.93 c 256
 1160.2 80.6748 1059.72 15 967 15 c 256
 953.511 15 940.187 16.3896 927.359 18.9297 c 257
 945.359 119.93 l 257
 950.085 119.005 954.893 118.501 959.717 118.501 c 256
 1001.85 118.501 1045.2 156.975 1045.2 289.93 c 256
 1045.2 422.885 1001.85 461.358 959.717 461.358 c 256
 954.893 461.358 950.085 460.854 945.359 459.93 c 257
 927.359 560.93 l 257
505.406 102 m 257
 587.406 131 l 257
 594.073 132.186 600.433 132.69 606.604 132.69 c 256
 642.096 132.69 671.406 116 717.406 116 c 256
 774.661 116 801.406 157.436 801.406 209 c 256
 801.406 256.129 779.406 294 720.406 294 c 256
 671.875 294 632.629 294 632.629 294 c 257
 620.629 333 613.629 374.735 613.629 406 c 256
 613.629 515.336 685.027 572 762.014 572 c 256
 845.992 572 902.087 507.459 902.087 437.467 c 256
 902.087 404 886.406 369 865.406 347 c 257
 787.406 387 l 257
 797.406 397 807.605 411 807.605 428.841 c 256
 807.605 452.279 791.819 474 762.014 474 c 256
 733.487 474 711.258 449.944 711.258 412.312 c 256
 711.258 406.648 711.761 400.679 712.822 394.437 c 257
 730.629 396 727.571 397.352 746.406 397.352 c 257
 813.406 397.352 917.406 364.768 917.406 209 c 256
 917.406 93.1006 836.626 0 717.406 0 c 256
 666.739 0 628.962 21.333 598.739 21.333 c 256
 583.628 21.333 570.406 16 558.406 0 c 257
 505.406 102 l 257
448.406 422 m 257
 448.406 549.216 510.118 576.322 567.069 576.322 c 256
 605.474 576.322 641.713 558.54 655.406 538 c 257
 685.333 509.062 711.406 458.22 711.406 409.314 c 256
 711.406 292.697 558.406 161.734 558.406 0 c 257
 448.406 0 l 257
 448.406 166.798 599.86 318.962 599.86 418.316 c 256
 599.86 449 592.406 473.421 570.406 473.421 c 256
 553.523 473.421 540.406 464.5 540.406 422 c 257
 448.406 422 l 257
22.4062 217 m 256
 22.4062 330.947 119.086 421.352 239.406 421.352 c 256
 258.236 421.352 270.406 420 288.213 418.437 c 257
 289.274 424.679 289.777 430.648 289.777 436.312 c 256
 289.777 473.944 267.548 498 239.021 498 c 256
 209.666 498 193.838 477 193.838 453.164 c 256
 193.838 440.756 197.354 427.391 205.187 418 c 257
 127.406 379 l 257
 108.097 404.207 100.362 430.604 100.362 458.407 c 256
 100.362 534.137 152.462 596 239.021 596 c 256
 316.012 596 387.406 539.336 387.406 430 c 256
 387.406 398.735 380.406 357 368.406 318 c 257
 368.406 318 287.938 318 239.406 318 c 256
 183.406 318 134.406 274 134.406 217 c 256
 134.406 160 181.188 116 239.406 116 c 256
 274.699 116 305.976 131.386 326.068 155.437 c 257
 412.406 93.042 l 257
 372.296 36.2998 309.86 0 239.406 0 c 256
 119.07 0 22.4062 96.6641 22.4062 217 c 256
154.74 -57.9707 m 256
 154.74 -31.6055 162.186 -4.27539 178.406 21.5381 c 257
 268.406 44.4365 l 257
 278.406 4 l 257
 267.331 -8.77344 261.627 -26.3193 261.627 -43.2051 c 256
 261.627 -70.9961 277.078 -97 309.461 -97 c 256
 334.092 -97 360.915 -85.0557 383.406 -54.5635 c 257
 460.406 -106.563 l 257
 414.495 -175.431 359.739 -202.407 309.461 -202.407 c 256
 217.034 -202.407 154.74 -134.229 154.74 -57.9707 c 256
EndSplineSet
EndChar

StartChar: si_DYUu.post
Encoding: 80 -1 80
GlifName: si_D_Y_U_u.post
Width: 939
VWidth: 0
GlyphClass: 2
Flags: W
LayerCount: 2
Back
Fore
SplineSet
465 -103.672 m 256
 465 -85.9707 467.199 -65.5293 471.83 -42.0303 c 257
 575.492 -57.0303 l 257
 574.467 -63.2988 573.996 -68.7959 573.996 -73.5908 c 256
 573.996 -94.46 582.918 -102.03 593.943 -102.03 c 256
 624.412 -102.03 658.556 -64 722 -64 c 256
 741.991 -64 766.321 -71.0813 782 -82 c 257
 782 -205.03 l 257
 765 -169.696 740.777 -157.919 712.889 -157.919 c 256
 668.683 -157.919 612.854 -205.03 567.943 -205.03 c 256
 505.376 -205.03 465 -179.509 465 -103.672 c 256
782 63.9697 m 257
 852 172.97 l 257
 896 224.97 l 257
 896 -205.03 l 257
 782 -205.03 l 257
 782 63.9697 l 257
505 102 m 257
 587 131 l 257
 593.667 132.185 600.026 132.69 606.198 132.69 c 256
 641.69 132.69 671 116 717 116 c 256
 774.255 116 801 157.436 801 209 c 256
 801 256.129 779 294 720 294 c 256
 671.469 294 632.223 294 632.223 294 c 257
 620.223 333 613.223 374.735 613.223 406 c 256
 613.223 515.336 684.621 572 761.607 572 c 256
 845.586 572 901.681 507.459 901.681 437.467 c 256
 901.681 404 886 369 865 347 c 257
 787 387 l 257
 797 397 807.199 411 807.199 428.841 c 256
 807.199 452.279 791.413 474 761.607 474 c 256
 733.081 474 710.852 449.944 710.852 412.312 c 256
 710.852 406.648 711.354 400.679 712.416 394.437 c 257
 730.223 396 727.165 397.352 746 397.352 c 257
 813 397.352 917 364.768 917 209 c 256
 917 93.1004 836.22 0 717 0 c 256
 666.333 0 628.555 21.333 598.333 21.333 c 256
 583.222 21.333 570 15.9998 558 0 c 257
 505 102 l 257
448 422 m 257
 448 549.216 509.712 576.322 566.663 576.322 c 256
 605.067 576.322 641.307 558.54 655 538 c 257
 684.927 509.062 711 458.22 711 409.314 c 256
 711 292.697 558 161.734 558 0 c 257
 448 0 l 257
 448 166.797 599.454 318.962 599.454 418.316 c 256
 599.454 449 592 473.421 570 473.421 c 256
 553.117 473.421 540 464.5 540 422 c 257
 448 422 l 257
22 217 m 256
 22 330.947 118.68 421.352 239 421.352 c 256
 257.83 421.352 270 420 287.807 418.437 c 257
 288.868 424.679 289.371 430.648 289.371 436.312 c 256
 289.371 473.944 267.142 498 238.615 498 c 256
 209.26 498 193.432 477 193.432 453.164 c 256
 193.432 440.756 196.948 427.391 204.78 418 c 257
 127 379 l 257
 107.69 404.207 99.9561 430.604 99.9561 458.407 c 256
 99.9561 534.137 152.056 596 238.615 596 c 256
 315.605 596 387 539.336 387 430 c 256
 387 398.735 380 357 368 318 c 257
 368 318 287.531 318 239 318 c 256
 183 318 134 274 134 217 c 256
 134 160 180.782 116 239 116 c 256
 274.293 116 305.569 131.386 325.662 155.437 c 257
 412 93.042 l 257
 371.89 36.2998 309.454 0 239 0 c 256
 118.664 0 22 96.6641 22 217 c 256
154.334 -57.9704 m 256
 154.334 -31.6058 161.78 -4.27516 178 21.5381 c 257
 268 44.4365 l 257
 278 4 l 257
 266.925 -8.77351 261.221 -26.319 261.221 -43.2046 c 256
 261.221 -70.996 276.672 -97 309.055 -97 c 256
 330.127 -97 352.804 -88.2577 373 -66.6382 c 257
 441 -132.147 l 257
 399.42 -182.208 352.561 -202.407 309.055 -202.407 c 256
 216.628 -202.407 154.334 -134.23 154.334 -57.9704 c 256
EndSplineSet
EndChar

StartChar: si_DYa.post
Encoding: 81 -1 81
GlifName: si_D_Y_a.post
Width: 939
VWidth: 0
GlyphClass: 2
Flags: W
LayerCount: 2
Back
Fore
SplineSet
505 102 m 257
 587 131 l 257
 593.667 132.185 600.026 132.69 606.198 132.69 c 256
 641.69 132.69 671 116 717 116 c 256
 774.255 116 801 157.436 801 209 c 256
 801 256.129 779 294 720 294 c 256
 671.469 294 632.223 294 632.223 294 c 257
 620.223 333 613.223 374.735 613.223 406 c 256
 613.223 515.336 684.621 572 761.607 572 c 256
 845.586 572 901.681 507.459 901.681 437.467 c 256
 901.681 404 886 369 865 347 c 257
 787 387 l 257
 797 397 807.199 411 807.199 428.841 c 256
 807.199 452.279 791.413 474 761.607 474 c 256
 733.081 474 710.852 449.944 710.852 412.312 c 256
 710.852 406.648 711.354 400.679 712.416 394.437 c 257
 730.223 396 727.165 397.352 746 397.352 c 257
 813 397.352 917 364.768 917 209 c 256
 917 93.1004 836.22 0 717 0 c 256
 666.333 0 628.555 21.333 598.333 21.333 c 256
 583.222 21.333 570 15.9998 558 0 c 257
 505 102 l 257
448 422 m 257
 448 549.216 509.712 576.322 566.663 576.322 c 256
 605.067 576.322 641.307 558.54 655 538 c 257
 684.927 509.062 711 458.22 711 409.314 c 256
 711 292.697 558 161.734 558 0 c 257
 448 0 l 257
 448 166.797 599.454 318.962 599.454 418.316 c 256
 599.454 449 592 473.421 570 473.421 c 256
 553.117 473.421 540 464.5 540 422 c 257
 448 422 l 257
22 217 m 256
 22 330.947 118.68 421.352 239 421.352 c 256
 257.83 421.352 270 420 287.807 418.437 c 257
 288.868 424.679 289.371 430.648 289.371 436.312 c 256
 289.371 473.944 267.142 498 238.615 498 c 256
 209.26 498 193.432 477 193.432 453.164 c 256
 193.432 440.756 196.948 427.391 204.78 418 c 257
 127 379 l 257
 107.69 404.207 99.9561 430.604 99.9561 458.407 c 256
 99.9561 534.137 152.056 596 238.615 596 c 256
 315.605 596 387 539.336 387 430 c 256
 387 398.735 380 357 368 318 c 257
 368 318 287.531 318 239 318 c 256
 183 318 134 274 134 217 c 256
 134 160 180.782 116 239 116 c 256
 274.293 116 305.569 131.386 325.662 155.437 c 257
 412 93.042 l 257
 371.89 36.2998 309.454 0 239 0 c 256
 118.664 0 22 96.6641 22 217 c 256
154.334 -57.9704 m 256
 154.334 -31.6058 161.78 -4.27516 178 21.5381 c 257
 268 44.4365 l 257
 278 4 l 257
 266.925 -8.77351 261.221 -26.319 261.221 -43.2046 c 256
 261.221 -70.996 276.672 -97 309.055 -97 c 256
 333.686 -97 360.509 -85.0557 383 -54.5635 c 257
 460 -106.563 l 257
 414.089 -175.431 359.333 -202.407 309.055 -202.407 c 256
 216.628 -202.407 154.334 -134.23 154.334 -57.9704 c 256
EndSplineSet
EndChar

StartChar: si_DYu.post
Encoding: 82 -1 82
GlifName: si_D_Y_u.post
Width: 939
VWidth: 0
GlyphClass: 2
Flags: W
LayerCount: 2
Back
Fore
SplineSet
465 -103.672 m 256
 465 -85.7207 467.263 -64.9492 472.028 -41.0303 c 257
 578.173 -53.0303 l 257
 577.537 -58.2559 577.211 -63.0381 577.211 -67.3887 c 256
 577.211 -91.1348 586.924 -102.03 608.943 -102.03 c 258
 608.943 -102.03 766.024 -102.03 790 -102.03 c 257
 790 -205.03 l 257
 750.713 -205.03 567.943 -205.03 567.943 -205.03 c 258
 505.386 -205.03 465 -179.509 465 -103.672 c 256
782 63.9697 m 257
 818 171.97 l 257
 896 224.97 l 257
 896 -205.03 l 257
 782 -205.03 l 257
 782 63.9697 l 257
505 102 m 257
 587 131 l 257
 593.667 132.185 600.026 132.69 606.198 132.69 c 256
 641.69 132.69 671 116 717 116 c 256
 774.255 116 801 157.436 801 209 c 256
 801 256.129 779 294 720 294 c 256
 671.469 294 632.223 294 632.223 294 c 257
 620.223 333 613.223 374.735 613.223 406 c 256
 613.223 515.336 684.621 572 761.607 572 c 256
 845.586 572 901.681 507.459 901.681 437.467 c 256
 901.681 404 886 369 865 347 c 257
 787 387 l 257
 797 397 807.199 411 807.199 428.841 c 256
 807.199 452.279 791.413 474 761.607 474 c 256
 733.081 474 710.852 449.944 710.852 412.312 c 256
 710.852 406.648 711.354 400.679 712.416 394.437 c 257
 730.223 396 727.165 397.352 746 397.352 c 257
 813 397.352 917 364.768 917 209 c 256
 917 93.1004 836.22 0 717 0 c 256
 666.333 0 628.555 21.333 598.333 21.333 c 256
 583.222 21.333 570 15.9998 558 0 c 257
 505 102 l 257
448 422 m 257
 448 549.216 509.712 576.322 566.663 576.322 c 256
 605.067 576.322 641.307 558.54 655 538 c 257
 684.927 509.062 711 458.22 711 409.314 c 256
 711 292.697 558 161.734 558 0 c 257
 448 0 l 257
 448 166.797 599.454 318.962 599.454 418.316 c 256
 599.454 449 592 473.421 570 473.421 c 256
 553.117 473.421 540 464.5 540 422 c 257
 448 422 l 257
22 217 m 256
 22 330.947 118.68 421.352 239 421.352 c 256
 257.83 421.352 270 420 287.807 418.437 c 257
 288.868 424.679 289.371 430.648 289.371 436.312 c 256
 289.371 473.944 267.142 498 238.615 498 c 256
 209.26 498 193.432 477 193.432 453.164 c 256
 193.432 440.756 196.948 427.391 204.78 418 c 257
 127 379 l 257
 107.69 404.207 99.9561 430.604 99.9561 458.407 c 256
 99.9561 534.137 152.056 596 238.615 596 c 256
 315.605 596 387 539.336 387 430 c 256
 387 398.735 380 357 368 318 c 257
 368 318 287.531 318 239 318 c 256
 183 318 134 274 134 217 c 256
 134 160 180.782 116 239 116 c 256
 274.293 116 305.569 131.386 325.662 155.437 c 257
 412 93.042 l 257
 371.89 36.2998 309.454 0 239 0 c 256
 118.664 0 22 96.6641 22 217 c 256
154.334 -57.9704 m 256
 154.334 -31.6058 161.78 -4.27516 178 21.5381 c 257
 268 44.4365 l 257
 278 4 l 257
 266.925 -8.77351 261.221 -26.319 261.221 -43.2046 c 256
 261.221 -70.996 276.672 -97 309.055 -97 c 256
 330.127 -97 352.804 -88.2577 373 -66.6382 c 257
 441 -132.147 l 257
 399.42 -182.208 352.561 -202.407 309.055 -202.407 c 256
 216.628 -202.407 154.334 -134.23 154.334 -57.9704 c 256
EndSplineSet
EndChar

StartChar: si_Da
Encoding: 83 3503 83
GlifName: si_D_a
Width: 410
VWidth: 0
GlyphClass: 2
Flags: W
LayerCount: 2
Back
Fore
SplineSet
22 217 m 256
 22 330.947 118.68 421.352 239 421.352 c 256
 257.83 421.352 270 420 287.807 418.437 c 257
 288.868 424.679 289.371 430.648 289.371 436.312 c 256
 289.371 473.944 267.142 498 238.615 498 c 256
 209.26 498 193.432 477 193.432 453.164 c 256
 193.432 440.756 196.948 427.391 204.78 418 c 257
 127 379 l 257
 107.69 404.207 99.9561 430.604 99.9561 458.407 c 256
 99.9561 534.137 152.056 596 238.615 596 c 256
 315.605 596 387 539.336 387 430 c 256
 387 398.735 380 357 368 318 c 257
 368 318 287.531 318 239 318 c 256
 183 318 134 274 134 217 c 256
 134 160 180.782 116 239 116 c 256
 274.293 116 305.569 131.386 325.662 155.437 c 257
 412 93.042 l 257
 371.89 36.2998 309.454 0 239 0 c 256
 118.664 0 22 96.6641 22 217 c 256
154.334 -57.9704 m 256
 154.334 -31.6058 161.78 -4.27516 178 21.5381 c 257
 268 44.4365 l 257
 278 4 l 257
 266.925 -8.77351 261.221 -26.319 261.221 -43.2046 c 256
 261.221 -70.996 276.672 -97 309.055 -97 c 256
 333.686 -97 360.509 -85.0557 383 -54.5635 c 257
 460 -106.563 l 257
 414.089 -175.431 359.333 -202.407 309.055 -202.407 c 256
 216.628 -202.407 154.334 -134.23 154.334 -57.9704 c 256
EndSplineSet
EndChar

StartChar: si_Da.reph
Encoding: 84 -1 84
GlifName: si_D_a.reph
Width: 442
VWidth: 0
GlyphClass: 2
Flags: W
LayerCount: 2
Back
Fore
SplineSet
100.293 648.572 m 256
 100.293 718.741 151.816 797 263 797 c 256
 365.319 797 443 729.253 443 628 c 256
 443 567 420.064 516.61 366 493 c 257
 316 557 l 257
 348.559 573.696 350 612.269 350 631 c 256
 350 680.305 315.736 714 257 714 c 256
 210.711 714 174 689.116 174 648.83 c 256
 174 629.128 181.862 609.244 197 598.83 c 257
 271.335 560.53 l 257
 171.238 529 l 257
 118.238 549 100.293 594.682 100.293 648.572 c 256
182.051 627.258 m 256
 182.051 610.959 194.967 597.83 211 597.83 c 256
 227.033 597.83 239.949 610.959 239.949 627.258 c 256
 239.949 643.557 227.033 656.687 211 656.687 c 256
 194.967 656.687 182.051 643.557 182.051 627.258 c 256
104 627 m 256
 104 683 171.312 710.567 227.882 710.567 c 256
 279.043 710.567 320.482 673.924 320.482 627 c 256
 320.482 568.291 271.636 521 211 521 c 256
 151.738 521 104 568.291 104 627 c 256
22 217 m 256
 22 330.947 118.68 421.352 239 421.352 c 256
 257.83 421.352 270 420 287.807 418.437 c 257
 288.868 424.679 289.371 430.648 289.371 436.312 c 256
 289.371 473.944 267.142 498 238.615 498 c 256
 209.26 498 193.432 477 193.432 453.164 c 256
 193.432 440.756 196.948 427.391 204.78 418 c 257
 127 379 l 257
 107.69 404.207 99.9561 430.604 99.9561 458.407 c 256
 99.9561 534.137 152.056 596 238.615 596 c 256
 315.605 596 387 539.336 387 430 c 256
 387 398.735 380 357 368 318 c 257
 368 318 287.531 318 239 318 c 256
 183 318 134 274 134 217 c 256
 134 160 180.782 116 239 116 c 256
 274.293 116 305.569 131.386 325.662 155.437 c 257
 412 93.042 l 257
 371.89 36.2998 309.454 0 239 0 c 256
 118.664 0 22 96.6641 22 217 c 256
154.334 -57.9704 m 256
 154.334 -31.6058 161.78 -4.27516 178 21.5381 c 257
 268 44.4365 l 257
 278 4 l 257
 266.925 -8.77351 261.221 -26.319 261.221 -43.2046 c 256
 261.221 -70.996 276.672 -97 309.055 -97 c 256
 333.686 -97 360.509 -85.0557 383 -54.5635 c 257
 460 -106.563 l 257
 414.089 -175.431 359.333 -202.407 309.055 -202.407 c 256
 216.628 -202.407 154.334 -134.23 154.334 -57.9704 c 256
EndSplineSet
EndChar

StartChar: si_Dd.halant
Encoding: 86 -1 86
GlifName: si_D_d.halant
Width: 583
VWidth: 0
GlyphClass: 2
Flags: W
LayerCount: 2
Back
Fore
SplineSet
62.8066 743.688 m 256
 62.8066 811.694 124.021 871 277.571 871 c 256
 441.505 871 531.116 790.408 531.116 701 c 256
 531.116 607 441.896 565 391.244 565 c 257
 358.244 607 l 257
 378.116 648 l 257
 404.244 655 416.116 676.732 416.116 701 c 256
 416.116 733.879 380.135 771 277.571 771 c 256
 193.625 771 169.83 747.772 169.83 724.965 c 256
 169.83 705.182 178.81 697 190.81 682 c 257
 186.81 649 l 257
 103.81 656 l 257
 76.8096 680 62.8066 713.359 62.8066 743.688 c 256
27.7617 193.437 m 256
 27.7617 234.737 39.2441 280.437 53.2441 306 c 257
 22 306 l 257
 22 391 l 257
 311.243 389.5 l 257
 344.745 306 l 257
 195 306 l 258
 154.244 306 134.762 245.162 134.762 193.437 c 256
 134.762 156.328 140.436 114.652 177.693 114.652 c 256
 219.869 114.652 234.875 179.678 234.875 249.5 c 257
 330.786 249.5 l 257
 330.786 176.75 346.254 115 389.244 115 c 256
 446 115 446 239.958 446 293 c 256
 446 527 354.321 581 233.81 581 c 256
 196.268 581 144.054 564.031 114.81 538 c 257
 51.8096 620 l 257
 119.81 684 198.81 690.976 249.81 690.976 c 256
 439.099 690.976 561 587 561 293 c 256
 561 181.996 560 0 389.244 0 c 256
 333.324 0 295.302 33.1445 280.481 79.0303 c 257
 264.336 31.6025 224.924 0 172.244 0 c 256
 56.4443 0 27.7617 105.454 27.7617 193.437 c 256
80.3369 409.272 m 256
 80.3369 481.535 129.308 531.563 203.609 531.563 c 256
 280.596 531.563 351.994 474.899 351.994 365.563 c 256
 351.994 351 348.801 325 344.745 306 c 257
 254.365 371.875 l 257
 255.306 376.782 255.78 381.771 255.78 386.714 c 256
 255.78 416.144 238.967 444 203.609 444 c 256
 178.81 444 169.817 426.134 169.817 404.787 c 256
 169.817 386.793 182.103 370.325 190.801 356 c 257
 110.801 318.563 l 257
 90.8008 351 80.3369 380.62 80.3369 409.272 c 256
EndSplineSet
EndChar

StartChar: si_DdI
Encoding: 87 -1 87
GlifName: si_D_dI_
Width: 583
VWidth: 0
GlyphClass: 2
Flags: W
LayerCount: 2
Back
Fore
SplineSet
47.3975 710 m 256
 47.3975 797.305 130.926 871 282.14 871 c 256
 433.354 871 516.012 792.305 516.012 705 c 256
 516.012 611 426.792 569 376.14 569 c 257
 343.14 611 l 257
 363.012 652 l 257
 389.14 659 401.012 680.732 401.012 705 c 256
 401.012 736 370.14 771 282.14 771 c 256
 194.14 771 162.397 741 162.397 710 c 256
 162.397 685.732 180.27 672.87 202.27 672.87 c 256
 209.997 672.87 258.657 675 267.14 675 c 257
 338.14 630.332 l 257
 267.14 560 l 257
 248.14 560 222.27 558 188.14 558 c 256
 137.487 558 47.3975 598.971 47.3975 710 c 256
27.7617 193.437 m 256
 27.7617 234.737 39.2441 280.437 53.2441 306 c 257
 22 306 l 257
 22 391 l 257
 311.243 389.5 l 257
 344.745 306 l 257
 195 306 l 258
 154.244 306 134.762 245.162 134.762 193.437 c 256
 134.762 156.328 140.436 114.652 177.693 114.652 c 256
 219.869 114.652 234.875 179.678 234.875 249.5 c 257
 330.786 249.5 l 257
 330.786 176.75 346.254 115 389.244 115 c 256
 446 115 446 239.958 446 293 c 256
 446 467 405.14 560 267.14 560 c 257
 267.14 675.115 l 257
 484.14 675.115 561 527 561 293 c 256
 561 181.996 560 0 389.244 0 c 256
 333.324 0 295.302 33.1445 280.481 79.0303 c 257
 264.336 31.6025 224.924 0 172.244 0 c 256
 56.4443 0 27.7617 105.454 27.7617 193.437 c 256
80.3369 409.272 m 256
 80.3369 481.535 129.308 531.563 203.609 531.563 c 256
 280.596 531.563 351.994 474.899 351.994 365.563 c 256
 351.994 351 348.801 325 344.745 306 c 257
 254.365 371.875 l 257
 255.306 376.782 255.78 381.771 255.78 386.714 c 256
 255.78 416.144 238.967 444 203.609 444 c 256
 178.81 444 169.817 426.134 169.817 404.787 c 256
 169.817 386.793 182.103 370.325 190.801 356 c 257
 110.801 318.563 l 257
 90.8008 351 80.3369 380.62 80.3369 409.272 c 256
EndSplineSet
EndChar

StartChar: si_DdIi
Encoding: 88 -1 88
GlifName: si_D_dI_i
Width: 583
VWidth: 0
GlyphClass: 2
Flags: W
LayerCount: 2
Back
Fore
SplineSet
347.487 716.615 m 256
 347.487 694.364 365.12 676.44 387.009 676.44 c 256
 408.897 676.44 426.53 694.364 426.53 716.615 c 256
 426.53 738.865 408.897 756.79 387.009 756.79 c 256
 365.12 756.79 347.487 738.865 347.487 716.615 c 256
256.012 717 m 256
 256.012 789 314.012 847 386.012 847 c 256
 458.012 847 516.012 789 516.012 717 c 256
 516.012 645 458.012 587 386.012 587 c 256
 314.012 587 256.012 645 256.012 717 c 256
47.3975 710 m 256
 47.3975 797.305 130.926 871 282.14 871 c 256
 433.354 871 516.012 804.305 516.012 717 c 256
 516.012 681.067 501.678 654.048 481.14 634.379 c 256
 447.95 602.593 398.558 590 367.268 590 c 257
 334.268 632 l 257
 375.14 673 l 257
 397.856 673 426.53 679 426.53 716.615 c 256
 426.53 764 370.14 771 282.14 771 c 256
 194.14 771 162.397 741 162.397 710 c 256
 162.397 685.732 180.27 672.87 202.27 672.87 c 256
 209.997 672.87 258.657 675 267.14 675 c 257
 325.14 630.332 l 257
 267.14 560 l 257
 248.14 560 222.27 558 188.14 558 c 256
 137.487 558 47.3975 598.971 47.3975 710 c 256
27.7617 193.437 m 256
 27.7617 234.737 39.2441 280.437 53.2441 306 c 257
 22 306 l 257
 22 391 l 257
 311.243 389.5 l 257
 344.745 306 l 257
 195 306 l 258
 154.244 306 134.762 245.162 134.762 193.437 c 256
 134.762 156.328 140.436 114.652 177.693 114.652 c 256
 219.869 114.652 234.875 179.678 234.875 249.5 c 257
 330.786 249.5 l 257
 330.786 176.75 346.254 115 389.244 115 c 256
 446 115 446 239.958 446 293 c 256
 446 467 405.14 560 267.14 560 c 257
 267.14 675.115 l 257
 484.14 675.115 561 527 561 293 c 256
 561 181.996 560 0 389.244 0 c 256
 333.324 0 295.302 33.1445 280.481 79.0303 c 257
 264.336 31.6025 224.924 0 172.244 0 c 256
 56.4443 0 27.7617 105.454 27.7617 193.437 c 256
80.3369 409.272 m 256
 80.3369 481.535 129.308 531.563 203.609 531.563 c 256
 280.596 531.563 351.994 474.899 351.994 365.563 c 256
 351.994 351 348.801 325 344.745 306 c 257
 254.365 371.875 l 257
 255.306 376.782 255.78 381.771 255.78 386.714 c 256
 255.78 416.144 238.967 444 203.609 444 c 256
 178.81 444 169.817 426.134 169.817 404.787 c 256
 169.817 386.793 182.103 370.325 190.801 356 c 257
 110.801 318.563 l 257
 90.8008 351 80.3369 380.62 80.3369 409.272 c 256
EndSplineSet
EndChar

StartChar: si_DdR.halant
Encoding: 89 -1 89
GlifName: si_D_dR_.halant
Width: 583
VWidth: 0
GlyphClass: 2
Flags: W
LayerCount: 2
Back
Fore
SplineSet
26.7598 -79 m 256
 136.76 -79 l 256
 136.76 -139.032 194.925 -178 286.76 -178 c 256
 378.595 -178 436.76 -140.27 436.76 -69 c 256
 436.76 -37 433.477 -7 378.76 23 c 257
 356.76 72 l 257
 459.76 79 l 257
 522.76 55 546.76 -16 546.76 -79 c 256
 546.76 -224 424.76 -284 286.76 -284 c 256
 148.76 -284 26.7598 -224 26.7598 -79 c 256
EndSplineSet
Refer: 86 -1 N 1 0 0 1 0 0 2
EndChar

StartChar: si_DdRI
Encoding: 90 -1 90
GlifName: si_D_dR_I_
Width: 583
VWidth: 0
GlyphClass: 2
Flags: W
LayerCount: 2
Back
Fore
SplineSet
26.7598 -79 m 256
 136.76 -79 l 256
 136.76 -139.032 194.925 -178 286.76 -178 c 256
 378.595 -178 436.76 -140.27 436.76 -69 c 256
 436.76 -37 433.477 -7 378.76 23 c 257
 356.76 72 l 257
 459.76 79 l 257
 522.76 55 546.76 -16 546.76 -79 c 256
 546.76 -224 424.76 -284 286.76 -284 c 256
 148.76 -284 26.7598 -224 26.7598 -79 c 256
EndSplineSet
Refer: 87 -1 N 1 0 0 1 0 0 2
EndChar

StartChar: si_DdRIi
Encoding: 91 -1 91
GlifName: si_D_dR_I_i
Width: 583
VWidth: 0
GlyphClass: 2
Flags: W
LayerCount: 2
Back
Fore
SplineSet
26.7598 -79 m 256
 136.76 -79 l 256
 136.76 -139.032 194.925 -178 286.76 -178 c 256
 378.595 -178 436.76 -140.27 436.76 -69 c 256
 436.76 -37 433.477 -7 378.76 23 c 257
 356.76 72 l 257
 459.76 79 l 257
 522.76 55 546.76 -16 546.76 -79 c 256
 546.76 -224 424.76 -284 286.76 -284 c 256
 148.76 -284 26.7598 -224 26.7598 -79 c 256
EndSplineSet
Refer: 88 -1 N 1 0 0 1 0 0 2
EndChar

StartChar: si_DdRa
Encoding: 92 -1 92
GlifName: si_D_dR_a
Width: 583
VWidth: 0
GlyphClass: 2
Flags: W
LayerCount: 2
Back
Fore
SplineSet
26.7598 -79 m 256
 136.76 -79 l 256
 136.76 -139.032 194.925 -178 286.76 -178 c 256
 378.595 -178 436.76 -140.27 436.76 -69 c 256
 436.76 -37 433.477 -7 378.76 23 c 257
 356.76 72 l 257
 459.76 79 l 257
 522.76 55 546.76 -16 546.76 -79 c 256
 546.76 -224 424.76 -284 286.76 -284 c 256
 148.76 -284 26.7598 -224 26.7598 -79 c 256
27.7617 193.437 m 256
 27.7617 234.737 39.2441 280.437 53.2441 306 c 257
 22 306 l 257
 22 391 l 257
 311.243 389.5 l 257
 344.745 306 l 257
 195 306 l 258
 154.244 306 134.762 245.162 134.762 193.437 c 256
 134.762 156.328 140.436 114.652 177.693 114.652 c 256
 219.869 114.652 234.875 179.678 234.875 249.5 c 257
 330.786 249.5 l 257
 330.786 176.75 346.254 115 389.244 115 c 256
 446 115 446 239.958 446 293 c 256
 446 522.797 403 639.885 265 639.885 c 256
 223.896 639.885 176.237 618.96 159.182 576.855 c 257
 50.1494 613.029 l 257
 86.1338 707.868 178.279 755 265 755 c 256
 482 755 561 599.056 561 293 c 256
 561 181.996 560 0 389.244 0 c 256
 333.324 0 295.302 33.1445 280.481 79.0303 c 257
 264.336 31.6025 224.924 0 172.244 0 c 256
 56.4443 0 27.7617 105.454 27.7617 193.437 c 256
80.3369 409.272 m 256
 80.3369 481.535 129.308 531.563 203.609 531.563 c 256
 280.596 531.563 351.994 474.899 351.994 365.563 c 256
 351.994 351 348.801 325 344.745 306 c 257
 254.365 371.875 l 257
 255.307 376.782 255.78 381.771 255.78 386.714 c 256
 255.78 416.144 238.967 444 203.609 444 c 256
 178.81 444 169.817 426.134 169.817 404.787 c 256
 169.817 386.793 182.103 370.325 190.801 356 c 257
 110.801 318.563 l 257
 90.8008 351 80.3369 380.62 80.3369 409.272 c 256
EndSplineSet
EndChar

StartChar: si_DdU
Encoding: 93 -1 93
GlifName: si_D_dU_
Width: 583
VWidth: 0
GlyphClass: 2
Flags: W
LayerCount: 2
Back
Fore
SplineSet
62.8164 -103.642 m 256
 62.8164 -85.6904 65.0791 -64.9189 69.8447 -41 c 257
 175.989 -53 l 257
 175.354 -58.2256 175.027 -63.0078 175.027 -67.3584 c 256
 175.027 -91.1045 184.735 -102 206.76 -102 c 258
 425.76 -102 l 257
 425.76 -205 l 257
 165.76 -205 l 258
 103.192 -205 62.8164 -179.479 62.8164 -103.642 c 256
417.76 64 m 257
 453.76 172 l 257
 531.76 225 l 257
 531.76 -205 l 257
 417.76 -205 l 257
 417.76 64 l 257
27.7617 193.437 m 256
 27.7617 234.737 39.2441 280.437 53.2441 306 c 257
 22 306 l 257
 22 391 l 257
 311.243 389.5 l 257
 344.745 306 l 257
 195 306 l 258
 154.244 306 134.762 245.162 134.762 193.437 c 256
 134.762 156.328 140.436 114.652 177.693 114.652 c 256
 219.869 114.652 234.875 179.678 234.875 249.5 c 257
 330.786 249.5 l 257
 330.786 176.75 346.254 115 389.244 115 c 256
 446 115 446 239.958 446 293 c 256
 446 522.797 403 639.885 265 639.885 c 256
 223.896 639.885 176.237 618.96 159.182 576.855 c 257
 50.1494 613.029 l 257
 86.1338 707.868 178.279 755 265 755 c 256
 482 755 561 599.056 561 293 c 256
 561 181.996 560 0 389.244 0 c 256
 333.324 0 295.302 33.1445 280.481 79.0303 c 257
 264.336 31.6025 224.924 0 172.244 0 c 256
 56.4443 0 27.7617 105.454 27.7617 193.437 c 256
80.3369 409.272 m 256
 80.3369 481.535 129.308 531.563 203.609 531.563 c 256
 280.596 531.563 351.994 474.899 351.994 365.563 c 256
 351.994 351 348.801 325 344.745 306 c 257
 254.365 371.875 l 257
 255.307 376.782 255.78 381.771 255.78 386.714 c 256
 255.78 416.144 238.967 444 203.609 444 c 256
 178.81 444 169.817 426.134 169.817 404.787 c 256
 169.817 386.793 182.103 370.325 190.801 356 c 257
 110.801 318.563 l 257
 90.8008 351 80.3369 380.62 80.3369 409.272 c 256
EndSplineSet
EndChar

StartChar: si_DdUu
Encoding: 94 -1 94
GlifName: si_D_dU_u
Width: 583
VWidth: 0
GlyphClass: 2
Flags: W
LayerCount: 2
Back
Fore
SplineSet
62.8164 -103.642 m 256
 62.8164 -85.9404 65.0156 -65.499 69.6465 -42 c 257
 173.309 -57 l 257
 172.283 -63.2686 171.812 -68.7656 171.812 -73.5605 c 256
 171.812 -94.4297 180.734 -102 191.76 -102 c 256
 232.785 -102 278.76 -59.1631 364.186 -59.1631 c 256
 382.035 -59.1631 403.76 -65 417.76 -74 c 257
 417.76 -205 l 257
 400.76 -169.666 376.537 -157.889 348.648 -157.889 c 256
 292.871 -157.889 222.427 -205 165.76 -205 c 256
 103.192 -205 62.8164 -179.479 62.8164 -103.642 c 256
417.76 64 m 257
 487.76 173 l 257
 531.76 225 l 257
 531.76 -205 l 257
 417.76 -205 l 257
 417.76 64 l 257
27.7617 193.437 m 256
 27.7617 234.737 39.2441 280.437 53.2441 306 c 257
 22 306 l 257
 22 391 l 257
 311.243 389.5 l 257
 344.745 306 l 257
 195 306 l 258
 154.244 306 134.762 245.162 134.762 193.437 c 256
 134.762 156.328 140.436 114.652 177.693 114.652 c 256
 219.869 114.652 234.875 179.678 234.875 249.5 c 257
 330.786 249.5 l 257
 330.786 176.75 346.254 115 389.244 115 c 256
 446 115 446 239.958 446 293 c 256
 446 522.797 403 639.885 265 639.885 c 256
 223.896 639.885 176.237 618.96 159.182 576.855 c 257
 50.1494 613.029 l 257
 86.1338 707.868 178.279 755 265 755 c 256
 482 755 561 599.056 561 293 c 256
 561 181.996 560 0 389.244 0 c 256
 333.324 0 295.302 33.1445 280.481 79.0303 c 257
 264.336 31.6025 224.924 0 172.244 0 c 256
 56.4443 0 27.7617 105.454 27.7617 193.437 c 256
80.3369 409.272 m 256
 80.3369 481.535 129.308 531.563 203.609 531.563 c 256
 280.596 531.563 351.994 474.899 351.994 365.563 c 256
 351.994 351 348.801 325 344.745 306 c 257
 254.365 371.875 l 257
 255.307 376.782 255.78 381.771 255.78 386.714 c 256
 255.78 416.144 238.967 444 203.609 444 c 256
 178.81 444 169.817 426.134 169.817 404.787 c 256
 169.817 386.793 182.103 370.325 190.801 356 c 257
 110.801 318.563 l 257
 90.8008 351 80.3369 380.62 80.3369 409.272 c 256
EndSplineSet
EndChar

StartChar: si_Dda
Encoding: 95 3497 95
GlifName: si_D_da
Width: 583
VWidth: 0
GlyphClass: 2
Flags: W
LayerCount: 2
Back
Fore
SplineSet
27.7617 193.437 m 256
 27.7617 234.737 39.2441 280.437 53.2441 306 c 257
 22 306 l 257
 22 391 l 257
 311.243 389.5 l 257
 344.745 306 l 257
 195 306 l 258
 154.244 306 134.762 245.162 134.762 193.437 c 256
 134.762 156.328 140.436 114.652 177.693 114.652 c 256
 219.869 114.652 234.875 179.678 234.875 249.5 c 257
 330.786 249.5 l 257
 330.786 176.75 346.254 115 389.244 115 c 256
 446 115 446 239.958 446 293 c 256
 446 522.797 403 639.885 265 639.885 c 256
 223.896 639.885 176.237 618.96 159.182 576.855 c 257
 50.1494 613.029 l 257
 86.1338 707.868 178.279 755 265 755 c 256
 482 755 561 599.056 561 293 c 256
 561 181.996 560 0 389.244 0 c 256
 333.324 0 295.302 33.1445 280.481 79.0303 c 257
 264.336 31.6025 224.924 0 172.244 0 c 256
 56.4443 0 27.7617 105.454 27.7617 193.437 c 256
80.3369 409.272 m 256
 80.3369 481.535 129.308 531.563 203.609 531.563 c 256
 280.596 531.563 351.994 474.899 351.994 365.563 c 256
 351.994 351 348.801 325 344.745 306 c 257
 254.365 371.875 l 257
 255.307 376.782 255.78 381.771 255.78 386.714 c 256
 255.78 416.144 238.967 444 203.609 444 c 256
 178.81 444 169.817 426.134 169.817 404.787 c 256
 169.817 386.793 182.103 370.325 190.801 356 c 257
 110.801 318.563 l 257
 90.8008 351 80.3369 380.62 80.3369 409.272 c 256
EndSplineSet
EndChar

StartChar: si_Dda.reph
Encoding: 96 -1 96
GlifName: si_D_da.reph
Width: 583
VWidth: 0
GlyphClass: 2
Flags: W
LayerCount: 2
Back
Fore
SplineSet
117.055 706.572 m 256
 117.055 776.741 168.578 848.83 279.762 848.83 c 256
 382.081 848.83 459.762 782.337 459.762 673 c 256
 459.762 630.604 429.78 557.011 373.762 530 c 257
 323.762 594 l 257
 358.762 615.392 366.762 652 366.762 676 c 256
 366.762 733.027 332.498 772 273.762 772 c 256
 227.473 772 190.762 747.116 190.762 706.83 c 256
 190.762 687.128 198.624 667.244 213.762 656.83 c 257
 288.097 618.53 l 257
 188 587 l 257
 135 607 117.055 652.681 117.055 706.572 c 256
198.812 685.258 m 256
 198.812 668.959 211.729 655.83 227.762 655.83 c 256
 243.795 655.83 256.711 668.959 256.711 685.258 c 256
 256.711 701.557 243.795 714.687 227.762 714.687 c 256
 211.729 714.687 198.812 701.557 198.812 685.258 c 256
120.762 685 m 256
 120.762 741 188.073 768.567 244.644 768.567 c 256
 295.805 768.567 337.244 731.924 337.244 685 c 256
 337.244 626.291 288.397 579 227.762 579 c 256
 168.5 579 120.762 626.291 120.762 685 c 256
50.7617 662 m 257
 77.7617 688 109.196 715.017 157.762 729.287 c 257
 221.762 630 l 257
 150.341 628.73 141.762 614 109.762 588 c 257
 50.7617 662 l 257
27.7617 193.437 m 256
 27.7617 234.737 39.2441 280.437 53.2441 306 c 257
 22 306 l 257
 22 391 l 257
 311.243 389.5 l 257
 344.745 306 l 257
 195 306 l 258
 154.244 306 134.762 245.162 134.762 193.437 c 256
 134.762 156.328 140.436 114.652 177.693 114.652 c 256
 219.869 114.652 234.875 179.678 234.875 249.5 c 257
 330.786 249.5 l 257
 330.786 176.75 346.254 115 389.244 115 c 256
 446 115 446 239.958 446 293 c 256
 446 445.199 427.138 547.957 374.304 600 c 257
 422.24 702 l 257
 524.358 645.847 561 514.057 561 293 c 256
 561 181.996 560 0 389.244 0 c 256
 333.324 0 295.302 33.1445 280.481 79.0303 c 257
 264.336 31.6025 224.924 0 172.244 0 c 256
 56.4443 0 27.7617 105.454 27.7617 193.437 c 256
80.3369 409.272 m 256
 80.3369 481.535 129.308 531.563 203.609 531.563 c 256
 280.596 531.563 351.994 474.899 351.994 365.563 c 256
 351.994 351 348.801 325 344.745 306 c 257
 254.365 371.875 l 257
 255.307 376.782 255.78 381.771 255.78 386.714 c 256
 255.78 416.144 238.967 444 203.609 444 c 256
 178.81 444 169.817 426.134 169.817 404.787 c 256
 169.817 386.793 182.103 370.325 190.801 356 c 257
 110.801 318.563 l 257
 90.8008 351 80.3369 380.62 80.3369 409.272 c 256
EndSplineSet
EndChar

StartChar: si_Ddh.halant
Encoding: 98 -1 98
GlifName: si_D_dh.halant
Width: 583
VWidth: 0
GlyphClass: 2
Flags: W
LayerCount: 2
Back
Fore
SplineSet
520.655 634.806 m 257
 535.655 706 l 257
 541.475 704.738 546.753 704.159 551.527 704.159 c 256
 580.179 704.159 590.655 724.999 590.655 749 c 256
 590.655 789.499 559.022 790.933 545.463 790.933 c 256
 542.443 790.933 539.764 790.603 537.655 790 c 257
 516.655 824 l 257
 546.655 866 l 257
 582.655 866 666.655 862 666.655 749 c 256
 666.655 673.727 616.882 629 559.331 629 c 256
 546.666 629 533.625 630.915 520.655 634.806 c 257
463.655 866 m 257
 546.655 866 l 257
 546.655 812 l 257
 539.655 796 l 257
 539.655 767 539.655 735 539.655 704 c 257
 546.655 684 l 257
 546.655 459 l 257
 463.655 459 l 257
 463.655 866 l 257
255.771 611.134 m 256
 255.771 667.849 296.979 688.157 296.979 709.823 c 256
 296.979 716.953 292.518 724.23 280.655 733 c 257
 386.981 755 l 257
 367.76 647 l 257
 351.381 639.98 341.76 621.142 341.76 605 c 256
 341.76 585.998 359.771 559.628 400.981 548.854 c 256
 405.315 547.722 409.906 546.762 414.76 546 c 257
 498.981 524 l 257
 431.655 461 l 257
 417.86 461.4 403.413 463.68 388.981 467.641 c 256
 322.211 485.97 255.771 540.309 255.771 611.134 c 256
27.7617 193.437 m 256
 27.7617 234.737 39.2441 280.437 53.2441 306 c 257
 22 306 l 257
 22 391 l 257
 311.243 389.5 l 257
 344.745 306 l 257
 195 306 l 258
 154.244 306 134.762 245.162 134.762 193.437 c 256
 134.762 156.328 140.436 114.652 177.693 114.652 c 256
 219.869 114.652 234.875 179.678 234.875 249.5 c 257
 330.786 249.5 l 257
 330.786 176.75 346.254 115 389.244 115 c 256
 446 115 446 239.958 446 293 c 256
 446 384.548 431.138 481.404 412.498 545 c 257
 406.76 579 388.76 628 366.677 648 c 257
 343.939 683.221 315.439 712.004 280.655 733 c 257
 352.655 817 l 257
 409.75 789.767 456.655 705.931 475.655 641 c 257
 488.022 616.934 509.249 615.217 518.143 588 c 256
 542.131 514.591 561 410 561 293 c 256
 561 181.996 560 0 389.244 0 c 256
 333.324 0 295.302 33.1445 280.481 79.0303 c 257
 264.336 31.6025 224.924 0 172.244 0 c 256
 56.4443 0 27.7617 105.454 27.7617 193.437 c 256
80.3369 409.272 m 256
 80.3369 481.535 129.308 531.563 203.609 531.563 c 256
 280.596 531.563 351.994 474.899 351.994 365.563 c 256
 351.994 351 348.801 325 344.745 306 c 257
 254.365 371.875 l 257
 255.307 376.782 255.78 381.771 255.78 386.714 c 256
 255.78 416.144 238.967 444 203.609 444 c 256
 178.81 444 169.817 426.134 169.817 404.787 c 256
 169.817 386.793 182.103 370.325 190.801 356 c 257
 110.801 318.563 l 257
 90.8008 351 80.3369 380.62 80.3369 409.272 c 256
EndSplineSet
EndChar

StartChar: si_DdhI
Encoding: 99 -1 99
GlifName: si_D_dhI_
Width: 624
VWidth: 0
GlyphClass: 2
Flags: W
LayerCount: 2
Back
Fore
SplineSet
133 689 m 256
 133 806.737 264.471 866 400 866 c 256
 528.93 866 654 804.059 654 681 c 256
 654 602.259 595.807 527 493 527 c 257
 461 552 l 257
 474 609 l 257
 531.711 609 560 634.855 560 681 c 256
 560 739.54 486.16 772 400 772 c 256
 306.84 772 227 742.393 227 689 c 256
 227 649.264 259.895 627 327 627 c 257
 340 570 l 257
 308 545 l 257
 196.253 545 133 615.372 133 689 c 256
262.771 606.134 m 256
 262.771 658.927 315 677.832 315 698 c 256
 315 704.46 313.633 711.054 310 719 c 257
 393.981 750 l 257
 366 636 l 257
 355.139 629.983 348.76 613.836 348.76 600 c 256
 348.76 582.69 364.564 558.373 400.981 548.854 c 256
 405.315 547.722 409.906 546.762 414.76 546 c 257
 498.981 524 l 257
 431.655 461 l 257
 417.86 461.4 403.394 463.61 388.981 467.641 c 256
 325.72 485.331 262.771 537.776 262.771 606.134 c 256
27.7617 193.437 m 256
 27.7617 234.737 39.2441 280.437 53.2441 306 c 257
 22 306 l 257
 22 391 l 257
 311.243 389.5 l 257
 344.745 306 l 257
 195 306 l 258
 154.244 306 134.762 245.162 134.762 193.437 c 256
 134.762 156.328 140.436 114.652 177.693 114.652 c 256
 219.869 114.652 234.875 179.678 234.875 249.5 c 257
 330.786 249.5 l 257
 330.786 176.75 346.254 115 389.244 115 c 256
 446 115 446 239.958 446 293 c 256
 446 384.548 431.138 481.404 412.498 545 c 257
 406.539 575.369 387.848 619.136 364.917 637 c 257
 350.401 670.978 332.207 698.745 310 719 c 257
 393.981 750 l 257
 505.953 676.224 561 502.745 561 293 c 256
 561 181.996 560 0 389.244 0 c 256
 333.324 0 295.302 33.1445 280.481 79.0303 c 257
 264.336 31.6025 224.924 0 172.244 0 c 256
 56.4443 0 27.7617 105.454 27.7617 193.437 c 256
80.3369 409.272 m 256
 80.3369 481.535 129.308 531.563 203.609 531.563 c 256
 280.596 531.563 351.994 474.899 351.994 365.563 c 256
 351.994 351 348.801 325 344.745 306 c 257
 254.365 371.875 l 257
 255.307 376.782 255.78 381.771 255.78 386.714 c 256
 255.78 416.144 238.967 444 203.609 444 c 256
 178.81 444 169.817 426.134 169.817 404.787 c 256
 169.817 386.793 182.103 370.325 190.801 356 c 257
 110.801 318.563 l 257
 90.8008 351 80.3369 380.62 80.3369 409.272 c 256
EndSplineSet
EndChar

StartChar: si_DdhIi
Encoding: 100 -1 100
GlifName: si_D_dhI_i
Width: 626
VWidth: 0
GlyphClass: 2
Flags: W
LayerCount: 2
Back
Fore
SplineSet
496.208 615.615 m 256
 496.208 593.364 513.841 575.44 535.729 575.44 c 256
 557.618 575.44 575.251 593.364 575.251 615.615 c 256
 575.251 637.865 557.618 655.79 535.729 655.79 c 256
 513.841 655.79 496.208 637.865 496.208 615.615 c 256
418.208 615 m 256
 418.208 689.488 471.446 724 519.208 724 c 256
 537.311 724 554.605 719.916 567.732 712 c 257
 583.462 712 650.208 699.96 650.208 614 c 256
 650.208 551.415 580.656 501 529.208 501 c 256
 467.73 501 418.208 551.861 418.208 615 c 256
133.208 689 m 256
 133.208 806.737 258.77 866 388.208 866 c 256
 523.615 866 658 790.271 658 656.404 c 256
 658 535 579.208 501 529.208 501 c 257
 466.208 532 l 257
 520.208 566 l 257
 561.849 566 578.208 578 578.208 614 c 256
 578.208 715.641 508.208 772 388.208 772 c 256
 301.51 772 227.208 742.394 227.208 689 c 256
 227.208 649.264 260.103 627 327.208 627 c 257
 340.208 570 l 257
 308.208 545 l 257
 196.461 545 133.208 615.372 133.208 689 c 256
262.979 606.134 m 256
 262.979 658.928 315.208 677.832 315.208 698 c 256
 315.208 704.46 313.841 711.054 310.208 719 c 257
 394.189 750 l 257
 366.208 636 l 257
 355.348 629.983 348.968 613.836 348.968 600 c 256
 348.968 582.69 364.771 558.373 401.189 548.854 c 256
 405.523 547.722 410.114 546.762 414.968 546 c 257
 499.189 524 l 257
 431.863 461 l 257
 418.068 461.4 403.602 463.61 389.189 467.641 c 256
 325.928 485.331 262.979 537.776 262.979 606.134 c 256
27.9697 193.437 m 256
 27.9697 234.737 39.4521 280.437 53.4521 306 c 257
 22.208 306 l 257
 22.208 391 l 257
 311.451 389.5 l 257
 344.953 306 l 257
 195.208 306 l 258
 154.452 306 134.97 245.162 134.97 193.437 c 256
 134.97 156.328 140.644 114.652 177.901 114.652 c 256
 220.077 114.652 235.083 179.678 235.083 249.5 c 257
 330.994 249.5 l 257
 330.994 176.75 346.462 115 389.452 115 c 256
 446.208 115 446.208 239.958 446.208 293 c 256
 446.208 384.548 431.346 481.404 412.706 545 c 257
 406.747 575.369 388.056 619.136 365.125 637 c 257
 350.609 670.978 332.414 698.745 310.208 719 c 257
 394.189 750 l 257
 433.905 723.832 465.342 688.077 487.208 644 c 257
 481.383 639.985 478.257 630.592 478.257 619.66 c 256
 478.257 596.332 492.492 566 525.109 566 c 257
 545.789 494.384 561.208 398.762 561.208 293 c 256
 561.208 181.996 560.208 0 389.452 0 c 256
 333.532 0 295.51 33.1445 280.689 79.0303 c 257
 264.544 31.6025 225.132 0 172.452 0 c 256
 56.6523 0 27.9697 105.454 27.9697 193.437 c 256
80.5449 409.272 m 256
 80.5449 481.535 129.516 531.563 203.817 531.563 c 256
 280.804 531.563 352.202 474.899 352.202 365.563 c 256
 352.202 351 349.009 325 344.953 306 c 257
 254.573 371.875 l 257
 255.515 376.782 255.988 381.771 255.988 386.714 c 256
 255.988 416.144 239.175 444 203.817 444 c 256
 179.018 444 170.025 426.134 170.025 404.787 c 256
 170.025 386.793 182.311 370.325 191.009 356 c 257
 111.009 318.563 l 257
 91.0088 351 80.5449 380.62 80.5449 409.272 c 256
EndSplineSet
EndChar

StartChar: si_DdhU
Encoding: 101 -1 101
GlifName: si_D_dhU_
Width: 583
VWidth: 0
GlyphClass: 2
Flags: W
LayerCount: 2
Back
Fore
SplineSet
62.8164 -103.642 m 256
 62.8164 -85.6904 65.0791 -64.9189 69.8447 -41 c 257
 175.989 -53 l 257
 175.354 -58.2256 175.027 -63.0078 175.027 -67.3584 c 256
 175.027 -91.1045 184.735 -102 206.76 -102 c 258
 425.76 -102 l 257
 425.76 -205 l 257
 165.76 -205 l 258
 103.192 -205 62.8164 -179.479 62.8164 -103.642 c 256
417.76 64 m 257
 453.76 172 l 257
 531.76 225 l 257
 531.76 -205 l 257
 417.76 -205 l 257
 417.76 64 l 257
255.771 611.134 m 256
 255.771 667.849 296.979 688.157 296.979 709.823 c 256
 296.979 716.953 292.518 724.23 280.655 733 c 257
 386.981 755 l 257
 367.76 647 l 257
 351.381 639.98 341.76 621.142 341.76 605 c 256
 341.76 585.998 359.771 559.628 400.981 548.854 c 256
 405.315 547.722 409.906 546.762 414.76 546 c 257
 498.981 524 l 257
 431.655 461 l 257
 417.86 461.4 403.413 463.68 388.981 467.641 c 256
 322.211 485.97 255.771 540.309 255.771 611.134 c 256
27.7617 193.437 m 256
 27.7617 234.737 39.2441 280.437 53.2441 306 c 257
 22 306 l 257
 22 391 l 257
 311.243 389.5 l 257
 344.745 306 l 257
 195 306 l 258
 154.244 306 134.762 245.162 134.762 193.437 c 256
 134.762 156.328 140.436 114.652 177.693 114.652 c 256
 219.869 114.652 234.875 179.678 234.875 249.5 c 257
 330.786 249.5 l 257
 330.786 176.75 346.254 115 389.244 115 c 256
 446 115 446 239.958 446 293 c 256
 446 384.548 431.138 481.404 412.498 545 c 257
 406.76 579 388.76 628 366.677 648 c 257
 343.939 683.221 315.439 712.004 280.655 733 c 257
 352.655 817 l 257
 431.633 764.921 486.044 686.228 518.143 588 c 256
 542.131 514.591 561 410 561 293 c 256
 561 181.996 560 0 389.244 0 c 256
 333.324 0 295.302 33.1445 280.481 79.0303 c 257
 264.336 31.6025 224.924 0 172.244 0 c 256
 56.4443 0 27.7617 105.454 27.7617 193.437 c 256
80.3369 409.272 m 256
 80.3369 481.535 129.308 531.563 203.609 531.563 c 256
 280.596 531.563 351.994 474.899 351.994 365.563 c 256
 351.994 351 348.801 325 344.745 306 c 257
 254.365 371.875 l 257
 255.307 376.782 255.78 381.771 255.78 386.714 c 256
 255.78 416.144 238.967 444 203.609 444 c 256
 178.81 444 169.817 426.134 169.817 404.787 c 256
 169.817 386.793 182.103 370.325 190.801 356 c 257
 110.801 318.563 l 257
 90.8008 351 80.3369 380.62 80.3369 409.272 c 256
EndSplineSet
EndChar

StartChar: si_DdhUu
Encoding: 102 -1 102
GlifName: si_D_dhU_u
Width: 583
VWidth: 0
GlyphClass: 2
Flags: W
LayerCount: 2
Back
Fore
SplineSet
62.8164 -103.642 m 256
 62.8164 -85.9404 65.0156 -65.499 69.6465 -42 c 257
 173.309 -57 l 257
 172.283 -63.2686 171.812 -68.7656 171.812 -73.5605 c 256
 171.812 -94.4297 180.734 -102 191.76 -102 c 256
 232.785 -102 278.76 -59.1631 364.186 -59.1631 c 256
 382.035 -59.1631 403.76 -65 417.76 -74 c 257
 417.76 -205 l 257
 400.76 -169.666 376.537 -157.889 348.648 -157.889 c 256
 292.871 -157.889 222.427 -205 165.76 -205 c 256
 103.192 -205 62.8164 -179.479 62.8164 -103.642 c 256
417.76 64 m 257
 487.76 173 l 257
 531.76 225 l 257
 531.76 -205 l 257
 417.76 -205 l 257
 417.76 64 l 257
255.771 611.134 m 256
 255.771 667.849 296.979 688.157 296.979 709.823 c 256
 296.979 716.953 292.518 724.23 280.655 733 c 257
 386.981 755 l 257
 367.76 647 l 257
 351.381 639.98 341.76 621.142 341.76 605 c 256
 341.76 585.998 359.771 559.628 400.981 548.854 c 256
 405.315 547.722 409.906 546.762 414.76 546 c 257
 498.981 524 l 257
 431.655 461 l 257
 417.86 461.4 403.413 463.68 388.981 467.641 c 256
 322.211 485.97 255.771 540.309 255.771 611.134 c 256
27.7617 193.437 m 256
 27.7617 234.737 39.2441 280.437 53.2441 306 c 257
 22 306 l 257
 22 391 l 257
 311.243 389.5 l 257
 344.745 306 l 257
 195 306 l 258
 154.244 306 134.762 245.162 134.762 193.437 c 256
 134.762 156.328 140.436 114.652 177.693 114.652 c 256
 219.869 114.652 234.875 179.678 234.875 249.5 c 257
 330.786 249.5 l 257
 330.786 176.75 346.254 115 389.244 115 c 256
 446 115 446 239.958 446 293 c 256
 446 384.548 431.138 481.404 412.498 545 c 257
 406.76 579 388.76 628 366.677 648 c 257
 343.939 683.221 315.439 712.004 280.655 733 c 257
 352.655 817 l 257
 431.633 764.921 486.044 686.228 518.143 588 c 256
 542.131 514.591 561 410 561 293 c 256
 561 181.996 560 0 389.244 0 c 256
 333.324 0 295.302 33.1445 280.481 79.0303 c 257
 264.336 31.6025 224.924 0 172.244 0 c 256
 56.4443 0 27.7617 105.454 27.7617 193.437 c 256
80.3369 409.272 m 256
 80.3369 481.535 129.308 531.563 203.609 531.563 c 256
 280.596 531.563 351.994 474.899 351.994 365.563 c 256
 351.994 351 348.801 325 344.745 306 c 257
 254.365 371.875 l 257
 255.307 376.782 255.78 381.771 255.78 386.714 c 256
 255.78 416.144 238.967 444 203.609 444 c 256
 178.81 444 169.817 426.134 169.817 404.787 c 256
 169.817 386.793 182.103 370.325 190.801 356 c 257
 110.801 318.563 l 257
 90.8008 351 80.3369 380.62 80.3369 409.272 c 256
EndSplineSet
EndChar

StartChar: si_Ddha
Encoding: 103 3498 103
GlifName: si_D_dha
Width: 554
VWidth: 0
GlyphClass: 2
Flags: W
HStem: -203 160 199 110
VStem: -3482 138 -3201 125
LayerCount: 2
Back
Fore
SplineSet
226.89 611.134 m 256
 226.89 667.849 268.098 688.157 268.098 709.823 c 256
 268.098 716.953 263.636 724.23 251.773 733 c 257
 358.1 755 l 257
 338.878 647 l 257
 322.499 639.98 312.878 621.142 312.878 605 c 256
 312.878 585.998 330.89 559.628 372.1 548.854 c 256
 376.434 547.722 381.024 546.762 385.878 546 c 257
 470.1 524 l 257
 402.773 461 l 257
 388.979 461.4 374.531 463.68 360.1 467.641 c 256
 293.329 485.97 226.89 540.309 226.89 611.134 c 256
-1.12012 193.437 m 256
 -1.12012 234.737 10.3623 280.437 24.3623 306 c 257
 -6.88184 306 l 257
 -6.88184 391 l 257
 282.361 389.5 l 257
 315.863 306 l 257
 166.118 306 l 258
 125.362 306 105.88 245.162 105.88 193.437 c 256
 105.88 156.328 111.554 114.652 148.812 114.652 c 256
 190.987 114.652 205.993 179.678 205.993 249.5 c 257
 301.904 249.5 l 257
 301.904 176.75 317.372 115 360.362 115 c 256
 417.118 115 417.118 239.958 417.118 293 c 256
 417.118 384.548 402.256 481.404 383.616 545 c 257
 377.878 579 359.878 628 337.795 648 c 257
 315.058 683.221 286.558 712.004 251.773 733 c 257
 323.773 817 l 257
 402.751 764.921 457.162 686.228 489.261 588 c 256
 513.249 514.591 532.118 410 532.118 293 c 256
 532.118 181.996 531.118 0 360.362 0 c 256
 304.442 0 266.42 33.1445 251.6 79.0303 c 257
 235.454 31.6025 196.042 0 143.362 0 c 256
 27.5625 0 -1.12012 105.454 -1.12012 193.437 c 256
51.4551 409.272 m 256
 51.4551 481.535 100.426 531.563 174.728 531.563 c 256
 251.714 531.563 323.112 474.899 323.112 365.563 c 256
 323.112 351 319.919 325 315.863 306 c 257
 225.483 371.875 l 257
 226.425 376.782 226.898 381.771 226.898 386.714 c 256
 226.898 416.144 210.085 444 174.728 444 c 256
 149.928 444 140.936 426.134 140.936 404.787 c 256
 140.936 386.793 153.221 370.325 161.919 356 c 257
 81.9189 318.563 l 257
 61.9189 351 51.4551 380.62 51.4551 409.272 c 256
EndSplineSet
PickledDataWithLists: "(dp1
S'com.fontlab.hintData'
p2
(dp3
S'vhints'
p4
(lp5
(dp6
S'position'
p7
I-3482
sS'width'
p8
I138
sa(dp9
g7
I-3201
sg8
I125
sasS'hhints'
p10
(lp11
(dp12
g7
I-203
sg8
I160
sa(dp13
g7
I199
sg8
I110
sass."
EndChar

StartChar: si_Dh.halant
Encoding: 105 -1 105
GlifName: si_D_h.halant
Width: 581
VWidth: 0
GlyphClass: 2
Flags: W
LayerCount: 2
Back
Fore
SplineSet
61.1514 743.688 m 256
 61.1514 811.694 122.365 871 275.916 871 c 256
 439.85 871 529.461 790.408 529.461 701 c 256
 529.461 607 440.241 565 389.589 565 c 257
 356.589 607 l 257
 376.461 648 l 257
 402.589 655 414.461 676.732 414.461 701 c 256
 414.461 733.879 378.479 771 275.916 771 c 256
 191.97 771 168.175 747.772 168.175 724.965 c 256
 168.175 705.182 177.154 697 189.154 682 c 257
 185.154 649 l 257
 102.154 656 l 257
 75.1543 680 61.1514 713.359 61.1514 743.688 c 256
22 231.204 m 256
 22 277.471 28.2109 319.61 36.1279 345 c 256
 60.1973 422.729 115.579 472 187.678 472 c 256
 215.444 472 244.476 465.063 272.85 445.258 c 257
 234.984 345 l 257
 221.137 352.989 208.467 356.607 197.121 356.607 c 256
 170.338 356.607 150.938 336.442 140.864 306 c 256
 136.433 291.601 132.947 261.724 132.947 229.771 c 256
 132.947 175.234 143.101 114.652 176.038 114.652 c 256
 218.214 114.652 233.22 179.678 233.22 249.5 c 257
 329.131 249.5 l 257
 329.131 176.75 344.599 115 387.589 115 c 256
 444.345 115 444.345 239.958 444.345 293 c 256
 444.345 527 352.666 581 232.154 581 c 256
 194.612 581 142.398 564.031 113.154 538 c 257
 50.1543 620 l 257
 118.154 684 197.154 690.976 248.154 690.976 c 256
 437.443 690.976 559.345 587 559.345 293 c 256
 559.345 181.996 558.345 0 387.589 0 c 256
 331.669 0 293.646 33.1445 278.826 79.0303 c 257
 262.681 31.6025 223.269 0 170.589 0 c 256
 53.9805 0 22 126.225 22 231.204 c 256
EndSplineSet
EndChar

StartChar: si_DhI
Encoding: 106 -1 106
GlifName: si_D_hI_
Width: 581
VWidth: 0
GlyphClass: 2
Flags: W
LayerCount: 2
Back
Fore
SplineSet
45.7422 710 m 256
 45.7422 797.305 129.271 871 280.484 871 c 256
 431.698 871 514.356 792.305 514.356 705 c 256
 514.356 611 425.137 569 374.484 569 c 257
 341.484 611 l 257
 361.356 652 l 257
 387.484 659 399.356 680.732 399.356 705 c 256
 399.356 736 368.484 771 280.484 771 c 256
 192.484 771 160.742 741 160.742 710 c 256
 160.742 685.732 178.614 672.87 200.614 672.87 c 256
 208.342 672.87 257.002 675 265.484 675 c 257
 336.484 630.332 l 257
 265.484 560 l 257
 246.484 560 220.614 558 186.484 558 c 256
 135.832 558 45.7422 598.971 45.7422 710 c 256
22 231.204 m 256
 22 277.471 28.2109 319.61 36.1279 345 c 256
 60.1973 422.729 115.579 472 187.678 472 c 256
 215.444 472 244.476 465.063 272.85 445.258 c 257
 234.984 345 l 257
 221.137 352.989 208.467 356.607 197.121 356.607 c 256
 170.338 356.607 150.938 336.442 140.864 306 c 256
 136.433 291.601 132.947 261.724 132.947 229.771 c 256
 132.947 175.234 143.101 114.652 176.038 114.652 c 256
 218.214 114.652 233.22 179.678 233.22 249.5 c 257
 329.131 249.5 l 257
 329.131 176.75 344.599 115 387.589 115 c 256
 444.345 115 444.345 241 444.345 293 c 256
 444.345 467 403.484 560 265.484 560 c 257
 265.484 675.115 l 257
 482.484 675.115 559.345 527 559.345 293 c 256
 559.345 181.996 558.345 0 387.589 0 c 256
 331.669 0 293.646 33.1445 278.826 79.0303 c 257
 262.681 31.6025 223.269 0 170.589 0 c 256
 53.9805 0 22 126.225 22 231.204 c 256
EndSplineSet
EndChar

StartChar: si_DhIi
Encoding: 107 -1 107
GlifName: si_D_hI_i
Width: 581
VWidth: 0
GlyphClass: 2
Flags: W
LayerCount: 2
Back
Fore
SplineSet
345.832 716.73 m 256
 345.832 694.479 363.465 676.556 385.354 676.556 c 256
 407.242 676.556 424.875 694.479 424.875 716.73 c 256
 424.875 738.98 407.242 756.905 385.354 756.905 c 256
 363.465 756.905 345.832 738.98 345.832 716.73 c 256
254.356 717.115 m 256
 254.356 789.115 312.356 847.115 384.356 847.115 c 256
 456.356 847.115 514.356 789.115 514.356 717.115 c 256
 514.356 645.115 456.356 587.115 384.356 587.115 c 256
 312.356 587.115 254.356 645.115 254.356 717.115 c 256
45.7422 710.115 m 256
 45.7422 797.42 129.271 871.115 280.484 871.115 c 256
 431.698 871.115 514.356 804.42 514.356 717.115 c 256
 514.356 681.183 500.022 654.163 479.484 634.494 c 256
 446.295 602.708 396.902 590.115 365.612 590.115 c 257
 332.612 632.115 l 257
 373.484 673.115 l 257
 396.201 673.115 424.875 679.115 424.875 716.73 c 256
 424.875 764.115 368.484 771.115 280.484 771.115 c 256
 192.484 771.115 160.742 741.115 160.742 710.115 c 256
 160.742 685.848 178.614 672.985 200.614 672.985 c 256
 208.342 672.985 257.002 675.115 265.484 675.115 c 257
 323.484 630.447 l 257
 265.484 560.115 l 257
 246.484 560.115 220.614 558.115 186.484 558.115 c 256
 135.832 558.115 45.7422 599.086 45.7422 710.115 c 256
22 231.204 m 256
 22 277.471 28.2109 319.61 36.1279 345 c 256
 60.1973 422.729 115.579 472 187.678 472 c 256
 215.444 472 244.476 465.063 272.85 445.258 c 257
 234.984 345 l 257
 221.137 352.989 208.467 356.607 197.121 356.607 c 256
 170.338 356.607 150.938 336.442 140.864 306 c 256
 136.433 291.601 132.947 261.724 132.947 229.771 c 256
 132.947 175.234 143.101 114.652 176.038 114.652 c 256
 218.214 114.652 233.22 179.678 233.22 249.5 c 257
 329.131 249.5 l 257
 329.131 176.75 344.599 115 387.589 115 c 256
 444.345 115 444.345 241 444.345 293 c 256
 444.345 467 403.484 560 265.484 560 c 257
 265.484 675.115 l 257
 482.484 675.115 559.345 527 559.345 293 c 256
 559.345 181.996 558.345 0 387.589 0 c 256
 331.669 0 293.646 33.1445 278.826 79.0303 c 257
 262.681 31.6025 223.269 0 170.589 0 c 256
 53.9805 0 22 126.225 22 231.204 c 256
EndSplineSet
EndChar

StartChar: si_DhR.halant
Encoding: 108 -1 108
GlifName: si_D_hR_.halant
Width: 581
VWidth: 0
GlyphClass: 2
Flags: W
LayerCount: 2
Back
Fore
SplineSet
25.1045 -79 m 256
 135.104 -79 l 256
 135.104 -139.032 193.27 -178 285.104 -178 c 256
 376.939 -178 435.104 -140.27 435.104 -69 c 256
 435.104 -37 431.821 -7 377.104 23 c 257
 355.104 72 l 257
 458.104 79 l 257
 521.104 55 545.104 -16 545.104 -79 c 256
 545.104 -224 423.104 -284 285.104 -284 c 256
 147.104 -284 25.1045 -224 25.1045 -79 c 256
EndSplineSet
Refer: 105 -1 N 1 0 0 1 0 0 2
EndChar

StartChar: si_DhRI
Encoding: 109 -1 109
GlifName: si_D_hR_I_
Width: 581
VWidth: 0
GlyphClass: 2
Flags: W
LayerCount: 2
Back
Fore
SplineSet
25.1045 -79 m 256
 135.104 -79 l 256
 135.104 -139.032 193.27 -178 285.104 -178 c 256
 376.939 -178 435.104 -140.27 435.104 -69 c 256
 435.104 -37 431.821 -7 377.104 23 c 257
 355.104 72 l 257
 458.104 79 l 257
 521.104 55 545.104 -16 545.104 -79 c 256
 545.104 -224 423.104 -284 285.104 -284 c 256
 147.104 -284 25.1045 -224 25.1045 -79 c 256
EndSplineSet
Refer: 106 -1 N 1 0 0 1 0 0 2
EndChar

StartChar: si_DhRIi
Encoding: 110 -1 110
GlifName: si_D_hR_I_i
Width: 581
VWidth: 0
GlyphClass: 2
Flags: W
LayerCount: 2
Back
Fore
SplineSet
25.1045 -79 m 256
 135.104 -79 l 256
 135.104 -139.032 193.27 -178 285.104 -178 c 256
 376.939 -178 435.104 -140.27 435.104 -69 c 256
 435.104 -37 431.821 -7 377.104 23 c 257
 355.104 72 l 257
 458.104 79 l 257
 521.104 55 545.104 -16 545.104 -79 c 256
 545.104 -224 423.104 -284 285.104 -284 c 256
 147.104 -284 25.1045 -224 25.1045 -79 c 256
EndSplineSet
Refer: 107 -1 N 1 0 0 1 0 0 2
EndChar

StartChar: si_DhRa
Encoding: 111 -1 111
GlifName: si_D_hR_a
Width: 581
VWidth: 0
GlyphClass: 2
Flags: W
LayerCount: 2
Back
Fore
SplineSet
25.1045 -79 m 256
 135.104 -79 l 256
 135.104 -139.032 193.27 -178 285.104 -178 c 256
 376.939 -178 435.104 -140.27 435.104 -69 c 256
 435.104 -37 431.821 -7 377.104 23 c 257
 355.104 72 l 257
 458.104 79 l 257
 521.104 55 545.104 -16 545.104 -79 c 256
 545.104 -224 423.104 -284 285.104 -284 c 256
 147.104 -284 25.1045 -224 25.1045 -79 c 256
22 231.204 m 256
 22 277.471 28.261 319.595 36.1279 345 c 256
 60.1973 422.729 115.579 472 187.678 472 c 256
 215.444 472 244.476 465.063 272.85 445.258 c 257
 234.984 345 l 257
 221.137 352.989 208.467 356.607 197.121 356.607 c 256
 170.338 356.607 150.296 336.647 140.864 306 c 256
 136.433 291.601 132.947 261.724 132.947 229.771 c 256
 132.947 175.234 143.101 114.652 176.038 114.652 c 256
 218.214 114.652 233.22 179.678 233.22 249.5 c 257
 329.131 249.5 l 257
 329.131 176.75 344.599 115 387.589 115 c 256
 444.345 115 444.345 239.958 444.345 293 c 256
 444.345 522.797 401.345 639.885 263.345 639.885 c 256
 222.241 639.885 174.582 618.96 157.526 576.855 c 257
 48.4941 613.029 l 257
 84.4785 707.868 176.624 755 263.345 755 c 256
 480.345 755 559.345 599.056 559.345 293 c 256
 559.345 181.996 558.345 0 387.589 0 c 256
 331.669 0 293.646 33.1445 278.826 79.0303 c 257
 262.681 31.6025 223.269 0 170.589 0 c 256
 53.9805 0 22 126.225 22 231.204 c 256
EndSplineSet
EndChar

StartChar: si_DhU
Encoding: 112 -1 112
GlifName: si_D_hU_
Width: 581
VWidth: 0
GlyphClass: 2
Flags: W
LayerCount: 2
Back
Fore
SplineSet
61.1611 -103.642 m 256
 61.1611 -85.6904 63.4238 -64.9189 68.1895 -41 c 257
 174.334 -53 l 257
 173.698 -58.2256 173.372 -63.0078 173.372 -67.3584 c 256
 173.372 -91.1045 183.08 -102 205.104 -102 c 258
 424.104 -102 l 257
 424.104 -205 l 257
 164.104 -205 l 258
 101.537 -205 61.1611 -179.479 61.1611 -103.642 c 256
416.104 64 m 257
 452.104 172 l 257
 530.104 225 l 257
 530.104 -205 l 257
 416.104 -205 l 257
 416.104 64 l 257
22 231.204 m 256
 22 277.471 28.261 319.595 36.1279 345 c 256
 60.1973 422.729 115.579 472 187.678 472 c 256
 215.444 472 244.476 465.063 272.85 445.258 c 257
 234.984 345 l 257
 221.137 352.989 208.467 356.607 197.121 356.607 c 256
 170.338 356.607 150.296 336.647 140.864 306 c 256
 136.433 291.601 132.947 261.724 132.947 229.771 c 256
 132.947 175.234 143.101 114.652 176.038 114.652 c 256
 218.214 114.652 233.22 179.678 233.22 249.5 c 257
 329.131 249.5 l 257
 329.131 176.75 344.599 115 387.589 115 c 256
 444.345 115 444.345 239.958 444.345 293 c 256
 444.345 522.797 401.345 639.885 263.345 639.885 c 256
 222.241 639.885 174.582 618.96 157.526 576.855 c 257
 48.4941 613.029 l 257
 84.4785 707.868 176.624 755 263.345 755 c 256
 480.345 755 559.345 599.056 559.345 293 c 256
 559.345 181.996 558.345 0 387.589 0 c 256
 331.669 0 293.646 33.1445 278.826 79.0303 c 257
 262.681 31.6025 223.269 0 170.589 0 c 256
 53.9805 0 22 126.225 22 231.204 c 256
EndSplineSet
EndChar

StartChar: si_DhUu
Encoding: 113 -1 113
GlifName: si_D_hU_u
Width: 581
VWidth: 0
GlyphClass: 2
Flags: W
LayerCount: 2
Back
Fore
SplineSet
61.1611 -103.642 m 256
 61.1611 -85.9404 63.3604 -65.499 67.9912 -42 c 257
 171.653 -57 l 257
 170.628 -63.2686 170.157 -68.7656 170.157 -73.5605 c 256
 170.157 -94.4297 179.079 -102 190.104 -102 c 256
 231.13 -102 277.104 -59.1631 362.53 -59.1631 c 256
 380.38 -59.1631 402.104 -65 416.104 -74 c 257
 416.104 -205 l 257
 399.104 -169.666 374.882 -157.889 346.993 -157.889 c 256
 291.216 -157.889 220.771 -205 164.104 -205 c 256
 101.537 -205 61.1611 -179.479 61.1611 -103.642 c 256
416.104 64 m 257
 486.104 173 l 257
 530.104 225 l 257
 530.104 -205 l 257
 416.104 -205 l 257
 416.104 64 l 257
22 231.204 m 256
 22 277.471 28.261 319.595 36.1279 345 c 256
 60.1973 422.729 115.579 472 187.678 472 c 256
 215.444 472 244.476 465.063 272.85 445.258 c 257
 234.984 345 l 257
 221.137 352.989 208.467 356.607 197.121 356.607 c 256
 170.338 356.607 150.296 336.647 140.864 306 c 256
 136.433 291.601 132.947 261.724 132.947 229.771 c 256
 132.947 175.234 143.101 114.652 176.038 114.652 c 256
 218.214 114.652 233.22 179.678 233.22 249.5 c 257
 329.131 249.5 l 257
 329.131 176.75 344.599 115 387.589 115 c 256
 444.345 115 444.345 239.958 444.345 293 c 256
 444.345 522.797 401.345 639.885 263.345 639.885 c 256
 222.241 639.885 174.582 618.96 157.526 576.855 c 257
 48.4941 613.029 l 257
 84.4785 707.868 176.624 755 263.345 755 c 256
 480.345 755 559.345 599.056 559.345 293 c 256
 559.345 181.996 558.345 0 387.589 0 c 256
 331.669 0 293.646 33.1445 278.826 79.0303 c 257
 262.681 31.6025 223.269 0 170.589 0 c 256
 53.9805 0 22 126.225 22 231.204 c 256
EndSplineSet
EndChar

StartChar: si_Dha
Encoding: 114 3504 114
GlifName: si_D_ha
Width: 581
VWidth: 0
GlyphClass: 2
Flags: W
LayerCount: 2
Back
Fore
SplineSet
22 231.204 m 256
 22 277.471 28.2109 319.61 36.1279 345 c 256
 60.1973 422.729 115.579 472 187.678 472 c 256
 215.444 472 244.476 465.063 272.85 445.258 c 257
 234.984 345 l 257
 221.137 352.989 208.467 356.607 197.121 356.607 c 256
 170.338 356.607 150.938 336.442 140.864 306 c 256
 136.433 291.601 132.947 261.724 132.947 229.771 c 256
 132.947 175.234 143.101 114.652 176.038 114.652 c 256
 218.214 114.652 233.22 179.678 233.22 249.5 c 257
 329.131 249.5 l 257
 329.131 176.75 344.599 115 387.589 115 c 256
 444.345 115 444.345 239.958 444.345 293 c 256
 444.345 522.797 401.345 639.885 263.345 639.885 c 256
 222.241 639.885 174.582 618.96 157.526 576.855 c 257
 48.4941 613.029 l 257
 84.4785 707.868 176.624 755 263.345 755 c 256
 480.345 755 559.345 599.056 559.345 293 c 256
 559.345 181.996 558.345 0 387.589 0 c 256
 331.669 0 293.646 33.1445 278.826 79.0303 c 257
 262.681 31.6025 223.269 0 170.589 0 c 256
 53.9805 0 22 126.225 22 231.204 c 256
EndSplineSet
EndChar

StartChar: si_Dha.reph
Encoding: 115 -1 115
GlifName: si_D_ha.reph
Width: 581
VWidth: 0
GlyphClass: 2
Flags: W
LayerCount: 2
Back
Fore
SplineSet
115.399 706.572 m 256
 115.399 776.741 166.923 848.83 278.106 848.83 c 256
 380.426 848.83 458.106 782.337 458.106 673 c 256
 458.106 630.604 428.125 557.011 372.106 530 c 257
 322.106 594 l 257
 357.106 615.392 365.106 652 365.106 676 c 256
 365.106 733.027 330.843 772 272.106 772 c 256
 225.817 772 189.106 747.116 189.106 706.83 c 256
 189.106 687.128 196.969 667.244 212.106 656.83 c 257
 286.441 618.53 l 257
 186.345 587 l 257
 133.345 607 115.399 652.682 115.399 706.572 c 256
197.157 685.258 m 256
 197.157 668.959 210.073 655.83 226.106 655.83 c 256
 242.14 655.83 255.056 668.959 255.056 685.258 c 256
 255.056 701.557 242.14 714.687 226.106 714.687 c 256
 210.073 714.687 197.157 701.557 197.157 685.258 c 256
119.106 685 m 256
 119.106 741 186.418 768.567 242.988 768.567 c 256
 294.149 768.567 335.589 731.924 335.589 685 c 256
 335.589 626.291 286.742 579 226.106 579 c 256
 166.845 579 119.106 626.291 119.106 685 c 256
49.1064 662 m 257
 76.1064 688 107.541 715.017 156.106 729.287 c 257
 220.106 630 l 257
 148.686 628.73 140.106 614 108.106 588 c 257
 49.1064 662 l 257
22 231.204 m 256
 22 277.471 28.2109 319.61 36.1279 345 c 256
 60.1973 422.729 115.579 472 187.678 472 c 256
 215.444 472 244.476 465.063 272.85 445.258 c 257
 234.984 345 l 257
 221.137 352.989 208.467 356.607 197.121 356.607 c 256
 170.338 356.607 150.938 336.442 140.864 306 c 256
 136.433 291.601 132.947 261.724 132.947 229.771 c 256
 132.947 175.234 143.101 114.652 176.038 114.652 c 256
 218.214 114.652 233.22 179.678 233.22 249.5 c 257
 329.131 249.5 l 257
 329.131 176.75 344.599 115 387.589 115 c 256
 444.345 115 444.345 239.958 444.345 293 c 256
 444.345 445.199 425.482 547.957 372.648 600 c 257
 420.585 702 l 257
 522.703 645.847 559.345 514.057 559.345 293 c 256
 559.345 181.996 558.345 0 387.589 0 c 256
 331.669 0 293.646 33.1445 278.826 79.0303 c 257
 262.681 31.6025 223.269 0 170.589 0 c 256
 53.9805 0 22 126.225 22 231.204 c 256
EndSplineSet
EndChar

StartChar: si_DvocR
Encoding: 117 -1 117
GlifName: si_D_vocR_
Width: 739
VWidth: 0
GlyphClass: 2
Flags: W
LayerCount: 2
Back
Fore
SplineSet
432 143 m 256
 432 256.62 493.615 292.603 546.138 292.603 c 256
 573.63 292.603 598.631 282.743 611 269 c 257
 597 192 l 257
 589.439 197.021 576.178 201.976 562.95 201.976 c 256
 542.937 201.976 523 190.632 523 151 c 256
 523 101.738 544.509 89.7637 565.705 89.7637 c 256
 573.548 89.7637 581.347 91.4041 588 93.4004 c 256
 594.382 95.3154 599.707 97.5596 603 99 c 257
 650 0 l 257
 638.371 13.0381 626.494 17.2598 613.888 17.2598 c 256
 590.719 17.2598 565.086 3 534 3 c 256
 458 3 432 90 432 143 c 256
440 367 m 256
 439.001 379.28 438.504 390.916 438.504 401.917 c 256
 438.504 505.582 482.639 552.93 567 552.93 c 256
 652.813 552.93 694.965 509.858 694.965 397.941 c 256
 694.965 322.785 680.709 247.06 680.709 183.678 c 256
 680.709 131.896 688.827 84.9717 717 43 c 257
 650 0 l 257
 598.742 63.6494 583.678 113.988 583.678 178.513 c 256
 583.678 232.04 603.059 319.246 603.059 400.967 c 256
 603.059 435.521 594.098 455 567 455 c 256
 539.976 455 530.837 435.611 530.837 401.237 c 256
 530.837 391.093 531.633 379.643 533 367 c 256
 440 367 l 256
22 217 m 256
 22 330.947 118.68 421.352 239 421.352 c 256
 257.83 421.352 270 420 287.807 418.437 c 257
 288.868 424.679 289.371 430.648 289.371 436.312 c 256
 289.371 473.944 267.142 498 238.615 498 c 256
 209.26 498 193.432 477 193.432 453.164 c 256
 193.432 440.756 196.948 427.391 204.78 418 c 257
 127 379 l 257
 107.69 404.207 99.9561 430.604 99.9561 458.407 c 256
 99.9561 534.137 152.056 596 238.615 596 c 256
 315.605 596 387 539.336 387 430 c 256
 387 398.735 380 357 368 318 c 257
 368 318 287.531 318 239 318 c 256
 183 318 134 274 134 217 c 256
 134 160 180.782 116 239 116 c 256
 274.293 116 305.569 131.386 325.662 155.437 c 257
 412 93.042 l 257
 371.89 36.2998 309.454 0 239 0 c 256
 118.664 0 22 96.6641 22 217 c 256
154.334 -57.9704 m 256
 154.334 -31.6058 161.78 -4.27516 178 21.5381 c 257
 268 44.4365 l 257
 278 4 l 257
 266.925 -8.77351 261.221 -26.319 261.221 -43.2046 c 256
 261.221 -70.996 276.672 -97 309.055 -97 c 256
 333.686 -97 360.509 -85.0557 383 -54.5635 c 257
 460 -106.563 l 257
 414.089 -175.431 359.333 -202.407 309.055 -202.407 c 256
 216.628 -202.407 154.334 -134.23 154.334 -57.9704 c 256
EndSplineSet
EndChar

